<svg id="svg" version="1.1" width="400" height="553.9543057996485" viewBox="0 0 400 553.9543057996485" xmlns="http://www.w3.org/2000/svg" xmlns:xlink="http://www.w3.org/1999/xlink" ><g id="svgg"><path id="path0" d="" stroke="none" fill="#000000" fill-rule="evenodd"></path><path id="path1" d="" stroke="none" fill="#003333" fill-rule="evenodd"></path><path id="path2" d="M179.202 0.274 C 177.333 0.363,175.632 0.608,175.422 0.818 C 175.212 1.028,173.906 1.200,172.520 1.200 C 171.134 1.200,170.000 1.354,170.000 1.543 C 170.000 1.731,168.155 2.012,165.900 2.166 C 163.645 2.321,161.629 2.616,161.420 2.823 C 161.211 3.031,160.277 3.200,159.344 3.200 C 158.411 3.200,157.536 3.380,157.400 3.600 C 157.264 3.820,156.533 4.000,155.776 4.000 C 155.019 4.000,154.400 4.159,154.400 4.353 C 154.400 4.547,153.051 4.832,151.403 4.987 C 149.754 5.141,148.304 5.433,148.179 5.634 C 148.055 5.835,147.434 6.000,146.800 6.000 C 146.166 6.000,145.536 6.180,145.400 6.400 C 145.264 6.620,144.713 6.800,144.176 6.800 C 143.639 6.800,143.200 6.957,143.200 7.148 C 143.200 7.340,142.120 7.619,140.800 7.768 C 139.480 7.918,138.400 8.211,138.400 8.420 C 138.400 8.629,137.860 8.800,137.200 8.800 C 136.540 8.800,136.000 8.980,136.000 9.200 C 136.000 9.420,135.550 9.600,135.000 9.600 C 134.450 9.600,134.000 9.760,134.000 9.955 C 134.000 10.150,133.194 10.430,132.209 10.578 C 131.224 10.725,130.314 11.016,130.186 11.223 C 130.058 11.430,129.423 11.600,128.776 11.600 C 128.129 11.600,127.600 11.780,127.600 12.000 C 127.600 12.220,127.330 12.400,127.000 12.400 C 126.670 12.400,126.400 12.556,126.400 12.747 C 126.400 12.938,125.639 13.197,124.709 13.322 C 123.778 13.446,122.953 13.740,122.875 13.974 C 122.797 14.208,122.298 14.400,121.767 14.400 C 121.235 14.400,120.800 14.580,120.800 14.800 C 120.800 15.020,120.440 15.200,120.000 15.200 C 119.560 15.200,119.200 15.380,119.200 15.600 C 119.200 15.820,118.841 16.000,118.403 16.000 C 117.417 16.000,114.400 17.277,114.400 17.694 C 114.400 17.862,114.040 18.000,113.600 18.000 C 113.160 18.000,112.800 18.180,112.800 18.400 C 112.800 18.620,112.621 18.800,112.403 18.800 C 111.720 18.800,108.800 20.173,108.800 20.494 C 108.800 20.662,108.440 20.800,108.000 20.800 C 107.560 20.800,107.200 20.980,107.200 21.200 C 107.200 21.420,107.021 21.600,106.803 21.600 C 106.120 21.600,103.200 22.973,103.200 23.294 C 103.200 23.462,102.840 23.600,102.400 23.600 C 101.960 23.600,101.598 23.735,101.596 23.900 C 101.594 24.065,100.784 24.555,99.796 24.990 C 98.808 25.424,98.000 25.919,98.000 26.090 C 98.000 26.260,97.730 26.400,97.400 26.400 C 97.070 26.400,96.800 26.580,96.800 26.800 C 96.800 27.020,96.462 27.200,96.049 27.200 C 95.636 27.200,95.074 27.470,94.800 27.800 C 94.526 28.130,94.054 28.400,93.751 28.400 C 93.448 28.400,93.200 28.580,93.200 28.800 C 93.200 29.020,92.932 29.200,92.603 29.200 C 92.275 29.200,91.782 29.560,91.507 30.000 C 91.232 30.440,90.713 30.800,90.353 30.800 C 89.993 30.800,89.474 31.070,89.200 31.400 C 88.926 31.730,88.454 32.000,88.151 32.000 C 87.848 32.000,87.600 32.180,87.600 32.400 C 87.600 32.620,87.330 32.800,87.000 32.800 C 86.670 32.800,86.400 32.951,86.400 33.136 C 86.400 33.320,85.680 33.815,84.801 34.236 C 83.922 34.656,83.099 35.315,82.974 35.700 C 82.849 36.085,82.476 36.400,82.146 36.400 C 81.597 36.400,79.355 37.886,78.071 39.100 C 77.781 39.375,77.402 39.600,77.231 39.600 C 77.059 39.600,76.354 40.140,75.663 40.800 C 74.972 41.460,74.225 42.000,74.003 42.000 C 73.781 42.000,72.924 42.677,72.100 43.504 C 71.275 44.332,70.108 45.261,69.507 45.568 C 68.905 45.876,68.311 46.450,68.186 46.844 C 68.061 47.237,67.608 47.670,67.180 47.806 C 66.751 47.943,66.400 48.222,66.400 48.427 C 66.400 48.632,66.217 48.800,65.993 48.800 C 65.329 48.800,47.600 66.662,47.600 67.332 C 47.600 67.670,47.240 68.060,46.800 68.200 C 46.360 68.340,46.000 68.597,46.000 68.771 C 46.000 68.945,45.372 69.698,44.604 70.444 C 43.837 71.190,43.207 71.944,43.204 72.120 C 43.202 72.296,42.570 73.088,41.800 73.881 C 41.030 74.674,40.400 75.484,40.400 75.680 C 40.400 75.877,39.950 76.455,39.400 76.965 C 38.850 77.475,38.400 78.115,38.400 78.388 C 38.400 78.661,37.950 79.239,37.400 79.671 C 36.850 80.104,36.400 80.793,36.400 81.202 C 36.400 81.611,36.049 82.058,35.620 82.194 C 35.191 82.330,34.526 83.152,34.143 84.021 C 33.760 84.889,33.301 85.600,33.123 85.600 C 32.945 85.600,32.800 85.870,32.800 86.200 C 32.800 86.530,32.648 86.800,32.463 86.800 C 32.278 86.800,31.787 87.430,31.372 88.200 C 30.957 88.970,30.479 89.600,30.309 89.600 C 30.139 89.600,30.000 89.960,30.000 90.400 C 30.000 90.840,29.848 91.200,29.663 91.200 C 29.478 91.200,28.983 91.870,28.563 92.689 C 28.143 93.508,27.485 94.532,27.100 94.965 C 26.715 95.397,26.400 95.987,26.400 96.275 C 26.400 96.564,26.234 96.800,26.032 96.800 C 25.829 96.800,25.545 97.340,25.400 98.000 C 25.255 98.660,24.971 99.200,24.768 99.200 C 24.566 99.200,24.400 99.481,24.400 99.824 C 24.400 100.167,24.220 100.336,24.000 100.200 C 23.780 100.064,23.600 100.323,23.600 100.776 C 23.600 101.229,23.464 101.600,23.298 101.600 C 23.131 101.600,22.747 102.185,22.444 102.900 C 21.279 105.647,20.633 107.007,20.400 107.200 C 20.167 107.393,19.521 108.753,18.356 111.500 C 18.053 112.215,17.669 112.800,17.502 112.800 C 17.336 112.800,17.194 113.115,17.187 113.500 C 17.180 113.885,16.910 114.549,16.587 114.976 C 16.264 115.404,16.000 116.169,16.000 116.676 C 16.000 117.184,15.820 117.600,15.600 117.600 C 15.380 117.600,15.200 117.960,15.200 118.400 C 15.200 118.840,15.065 119.201,14.900 119.203 C 14.531 119.207,13.600 121.152,13.600 121.919 C 13.600 122.449,12.769 124.573,11.966 126.095 C 11.765 126.477,11.600 127.152,11.600 127.595 C 11.600 128.038,11.431 128.400,11.225 128.400 C 11.018 128.400,10.728 129.210,10.579 130.200 C 10.431 131.190,10.150 132.000,9.955 132.000 C 9.760 132.000,9.600 132.450,9.600 133.000 C 9.600 133.550,9.440 134.000,9.245 134.000 C 9.050 134.000,8.788 134.495,8.663 135.100 C 7.668 139.898,7.426 140.800,7.133 140.800 C 6.950 140.800,6.800 141.419,6.800 142.176 C 6.800 142.933,6.620 143.664,6.400 143.800 C 6.180 143.936,6.000 144.566,6.000 145.200 C 6.000 145.834,5.834 146.455,5.631 146.581 C 5.429 146.706,5.137 147.979,4.984 149.410 C 4.831 150.841,4.547 152.109,4.353 152.229 C 4.159 152.349,4.000 153.157,4.000 154.024 C 4.000 154.891,3.820 155.600,3.600 155.600 C 3.380 155.600,3.200 156.410,3.200 157.400 C 3.200 158.390,3.038 159.200,2.839 159.200 C 2.641 159.200,2.350 161.270,2.192 163.800 C 2.033 166.330,1.746 168.400,1.552 168.400 C 1.358 168.400,1.200 169.645,1.200 171.167 C 1.200 172.885,1.027 173.991,0.743 174.086 C -0.638 174.546,0.157 230.224,1.590 233.400 C 1.789 233.840,2.069 236.135,2.214 238.500 C 2.359 240.865,2.640 242.901,2.839 243.024 C 3.037 243.147,3.200 244.047,3.200 245.024 C 3.200 246.001,3.380 246.800,3.600 246.800 C 3.820 246.800,4.000 247.700,4.000 248.800 C 4.000 249.900,4.159 250.800,4.353 250.800 C 4.547 250.800,4.832 252.149,4.987 253.797 C 5.141 255.446,5.433 256.896,5.634 257.021 C 5.835 257.145,6.000 257.867,6.000 258.624 C 6.000 259.381,6.180 260.000,6.400 260.000 C 6.620 260.000,6.800 260.630,6.800 261.400 C 6.800 262.170,6.962 262.800,7.161 262.800 C 7.359 262.800,7.647 263.880,7.800 265.201 C 7.953 266.521,8.241 267.702,8.439 267.824 C 8.638 267.947,8.800 268.476,8.800 269.000 C 8.800 269.524,8.980 270.064,9.200 270.200 C 9.420 270.336,9.600 270.977,9.600 271.624 C 9.600 272.271,9.763 272.800,9.962 272.800 C 10.162 272.800,10.449 273.700,10.600 274.800 C 10.751 275.899,11.038 276.900,11.237 277.023 C 11.437 277.146,11.600 277.687,11.600 278.224 C 11.600 278.761,11.780 279.200,12.000 279.200 C 12.220 279.200,12.400 279.650,12.400 280.200 C 12.400 280.750,12.557 281.200,12.748 281.200 C 12.940 281.200,13.215 282.093,13.360 283.184 C 13.505 284.275,13.798 285.275,14.012 285.407 C 14.225 285.539,14.400 286.087,14.400 286.624 C 14.400 287.161,14.580 287.600,14.800 287.600 C 15.020 287.600,15.200 287.960,15.200 288.400 C 15.200 288.840,15.356 289.200,15.548 289.200 C 15.739 289.200,15.994 289.808,16.115 290.551 C 16.235 291.294,16.709 292.677,17.167 293.626 C 17.625 294.574,18.000 295.676,18.000 296.075 C 18.000 296.474,18.172 296.800,18.382 296.800 C 18.592 296.800,18.882 297.432,19.027 298.204 C 19.172 298.977,19.450 299.707,19.645 299.828 C 19.840 299.949,20.000 300.397,20.000 300.824 C 20.000 301.251,20.180 301.600,20.400 301.600 C 20.620 301.600,20.800 301.960,20.800 302.400 C 20.800 302.840,20.980 303.200,21.200 303.200 C 21.420 303.200,21.600 303.554,21.600 303.986 C 21.600 304.863,22.833 307.726,23.300 307.933 C 23.465 308.007,23.600 308.412,23.600 308.833 C 23.600 309.255,23.780 309.600,24.000 309.600 C 24.220 309.600,24.400 310.050,24.400 310.600 C 24.400 311.150,24.572 311.600,24.782 311.600 C 24.992 311.600,25.282 312.230,25.426 313.000 C 25.571 313.770,25.849 314.400,26.045 314.400 C 26.240 314.400,26.400 314.670,26.400 315.000 C 26.400 315.330,26.580 315.600,26.800 315.600 C 27.020 315.600,27.200 315.960,27.200 316.400 C 27.200 316.840,27.380 317.200,27.600 317.200 C 27.820 317.200,28.000 317.471,28.000 317.803 C 28.000 318.400,29.968 322.414,30.450 322.800 C 30.587 322.910,30.826 323.585,30.982 324.300 C 31.137 325.015,31.429 325.600,31.632 325.600 C 31.834 325.600,32.000 325.960,32.000 326.400 C 32.000 326.840,32.180 327.200,32.400 327.200 C 32.620 327.200,32.800 327.470,32.800 327.800 C 32.800 328.130,32.960 328.400,33.155 328.400 C 33.351 328.400,33.629 329.030,33.774 329.800 C 33.918 330.570,34.208 331.200,34.418 331.200 C 34.628 331.200,34.800 331.560,34.800 332.000 C 34.800 332.440,34.967 332.800,35.171 332.800 C 35.375 332.800,35.860 333.520,36.248 334.400 C 36.636 335.280,37.099 336.000,37.277 336.000 C 37.455 336.000,37.600 336.360,37.600 336.800 C 37.600 337.240,37.780 337.600,38.000 337.600 C 38.220 337.600,38.400 337.870,38.400 338.200 C 38.400 338.530,38.580 338.800,38.800 338.800 C 39.020 338.800,39.200 339.055,39.200 339.368 C 39.200 340.081,40.498 342.394,40.900 342.397 C 41.065 342.399,41.200 342.760,41.200 343.200 C 41.200 343.640,41.343 344.000,41.518 344.000 C 41.693 344.000,42.170 344.810,42.578 345.800 C 42.987 346.790,43.473 347.600,43.660 347.600 C 43.847 347.600,44.000 347.870,44.000 348.200 C 44.000 348.530,44.160 348.800,44.357 348.800 C 44.553 348.800,44.826 349.250,44.964 349.800 C 45.102 350.350,45.402 350.800,45.631 350.800 C 45.860 350.800,45.949 350.960,45.828 351.155 C 45.707 351.350,45.877 351.732,46.204 352.004 C 46.532 352.276,46.800 352.731,46.800 353.016 C 46.800 353.300,46.935 353.593,47.100 353.667 C 47.265 353.740,47.760 354.519,48.200 355.397 C 48.969 356.932,49.629 357.888,50.700 359.016 C 50.975 359.306,51.200 359.804,51.200 360.122 C 51.200 360.441,51.470 360.926,51.800 361.200 C 52.130 361.474,52.400 361.946,52.400 362.249 C 52.400 362.552,52.559 362.800,52.753 362.800 C 52.948 362.800,53.221 363.115,53.360 363.500 C 53.721 364.499,54.563 365.875,55.336 366.729 C 55.701 367.133,56.000 367.674,56.000 367.931 C 56.000 368.189,56.180 368.400,56.400 368.400 C 56.620 368.400,56.800 368.766,56.800 369.213 C 56.800 369.659,57.070 370.129,57.400 370.255 C 57.730 370.382,58.000 370.760,58.000 371.096 C 58.000 371.432,58.334 371.997,58.743 372.353 C 59.151 372.709,59.613 373.405,59.770 373.900 C 59.926 374.395,60.222 374.800,60.427 374.800 C 60.632 374.800,60.800 375.030,60.800 375.312 C 60.800 375.593,61.160 376.083,61.600 376.400 C 62.040 376.717,62.400 377.275,62.400 377.639 C 62.400 378.004,62.670 378.526,63.000 378.800 C 63.330 379.074,63.600 379.531,63.600 379.816 C 63.600 380.100,63.750 380.393,63.933 380.467 C 64.116 380.540,64.924 381.635,65.728 382.900 C 66.532 384.165,67.372 385.200,67.595 385.200 C 67.818 385.200,68.000 385.538,68.000 385.951 C 68.000 386.364,68.270 386.926,68.600 387.200 C 68.930 387.474,69.200 387.880,69.200 388.102 C 69.200 388.324,69.534 388.797,69.943 389.153 C 70.351 389.509,70.813 390.205,70.970 390.700 C 71.126 391.195,71.422 391.600,71.627 391.600 C 71.832 391.600,72.000 391.948,72.000 392.373 C 72.000 392.798,72.360 393.260,72.800 393.400 C 73.240 393.540,73.600 394.002,73.600 394.427 C 73.600 394.852,73.741 395.200,73.914 395.200 C 74.086 395.200,74.569 395.785,74.985 396.500 C 75.402 397.215,76.045 398.070,76.414 398.400 C 76.784 398.730,77.213 399.405,77.370 399.900 C 77.526 400.395,77.822 400.800,78.027 400.800 C 78.232 400.800,78.400 401.068,78.400 401.397 C 78.400 401.725,78.760 402.218,79.200 402.493 C 79.640 402.768,80.000 403.284,80.000 403.640 C 80.000 403.996,80.450 404.626,81.000 405.039 C 81.550 405.452,82.000 406.107,82.000 406.495 C 82.000 406.883,82.141 407.200,82.314 407.200 C 82.486 407.200,82.969 407.785,83.385 408.500 C 83.802 409.215,84.471 410.091,84.872 410.447 C 85.272 410.803,85.600 411.220,85.600 411.374 C 85.600 411.665,87.428 414.207,88.300 415.129 C 88.575 415.419,88.800 415.798,88.800 415.969 C 88.800 416.141,89.340 416.846,90.000 417.537 C 90.660 418.228,91.200 418.947,91.200 419.135 C 91.200 419.323,91.515 419.850,91.900 420.305 C 93.705 422.439,93.998 422.835,94.546 423.881 C 94.869 424.497,95.508 425.265,95.966 425.588 C 96.425 425.912,96.800 426.415,96.800 426.707 C 96.800 426.999,97.250 427.655,97.800 428.165 C 98.350 428.675,98.800 429.277,98.800 429.504 C 98.800 429.731,99.247 430.340,99.793 430.858 C 100.339 431.376,100.789 431.933,100.793 432.096 C 100.802 432.475,104.480 437.357,104.890 437.533 C 105.061 437.607,105.200 437.840,105.200 438.051 C 105.200 438.262,105.650 438.920,106.200 439.513 C 106.750 440.107,107.200 440.726,107.200 440.889 C 107.200 441.170,108.138 442.321,110.400 444.815 C 110.950 445.422,111.452 446.161,111.515 446.459 C 111.578 446.757,112.073 447.396,112.615 447.881 C 113.157 448.365,113.600 448.975,113.600 449.235 C 113.600 449.495,114.050 450.125,114.600 450.635 C 115.150 451.145,115.600 451.756,115.600 451.994 C 115.600 452.232,116.095 452.954,116.700 453.597 C 118.268 455.265,120.000 457.462,120.000 457.783 C 120.000 457.934,120.225 458.308,120.500 458.615 C 121.606 459.848,122.000 460.379,122.000 460.636 C 122.000 460.785,122.317 461.197,122.704 461.553 C 123.092 461.909,123.940 462.920,124.590 463.800 C 125.240 464.680,126.003 465.638,126.286 465.929 C 126.568 466.219,126.801 466.669,126.801 466.929 C 126.802 467.188,127.341 467.760,128.000 468.200 C 128.659 468.640,129.198 469.302,129.199 469.671 C 129.199 470.040,129.650 470.696,130.200 471.129 C 130.750 471.561,131.200 472.139,131.200 472.412 C 131.200 472.685,131.650 473.325,132.200 473.835 C 132.750 474.345,133.200 474.954,133.200 475.188 C 133.200 475.422,133.785 476.234,134.500 476.992 C 136.943 479.582,138.000 480.917,138.000 481.414 C 138.000 481.687,138.538 482.335,139.196 482.855 C 139.854 483.375,140.394 484.102,140.396 484.471 C 140.398 484.840,140.850 485.496,141.400 485.929 C 141.950 486.361,142.400 486.883,142.400 487.088 C 142.400 487.293,142.850 487.883,143.400 488.400 C 143.950 488.917,144.400 489.562,144.400 489.834 C 144.400 490.106,144.895 490.750,145.500 491.264 C 146.105 491.779,146.823 492.700,147.097 493.311 C 147.370 493.922,147.865 494.527,148.197 494.654 C 148.528 494.781,148.800 495.136,148.800 495.443 C 148.800 495.749,148.980 496.000,149.200 496.000 C 149.420 496.000,149.600 496.245,149.600 496.544 C 149.600 496.843,150.050 497.426,150.600 497.839 C 151.150 498.252,151.600 498.826,151.600 499.114 C 151.600 499.402,152.050 500.055,152.600 500.565 C 153.150 501.075,153.600 501.664,153.600 501.874 C 153.600 502.084,154.005 502.636,154.500 503.100 C 155.640 504.170,156.400 505.095,156.400 505.415 C 156.400 505.551,157.210 506.473,158.200 507.463 C 159.190 508.453,160.000 509.421,160.000 509.614 C 160.000 509.806,160.990 510.978,162.200 512.218 C 163.410 513.457,164.400 514.629,164.400 514.822 C 164.400 515.015,165.660 516.432,167.200 517.972 C 168.740 519.512,170.000 520.931,170.000 521.125 C 170.000 521.319,170.360 521.893,170.800 522.400 C 171.240 522.907,171.600 523.209,171.600 523.070 C 171.600 522.724,175.608 526.901,176.600 528.280 C 177.040 528.891,178.975 530.988,180.900 532.939 C 182.825 534.890,184.400 536.634,184.400 536.816 C 184.400 536.997,184.721 537.248,185.113 537.373 C 185.506 537.497,186.139 538.127,186.520 538.773 C 186.901 539.418,188.965 541.723,191.107 543.894 C 193.248 546.065,195.531 548.552,196.180 549.421 C 196.828 550.289,197.773 551.366,198.280 551.813 C 198.786 552.260,199.200 552.845,199.200 553.113 C 199.200 553.381,199.650 553.600,200.200 553.600 C 200.750 553.600,201.200 553.436,201.200 553.236 C 201.200 553.036,202.010 552.100,203.000 551.157 C 203.990 550.213,204.800 549.300,204.800 549.128 C 204.800 548.955,205.610 547.969,206.600 546.935 C 207.590 545.902,208.400 544.908,208.400 544.726 C 208.400 544.544,209.179 543.627,210.131 542.689 C 211.083 541.750,212.203 540.446,212.620 539.791 C 213.037 539.136,213.969 538.082,214.689 537.449 C 215.410 536.816,216.000 536.075,216.000 535.802 C 216.000 535.528,216.990 534.307,218.200 533.087 C 219.410 531.868,220.400 530.740,220.400 530.581 C 220.400 530.422,220.805 529.911,221.301 529.446 C 221.796 528.981,222.921 527.706,223.801 526.614 C 224.680 525.522,225.985 523.999,226.700 523.231 C 227.415 522.462,228.000 521.720,228.000 521.582 C 228.000 521.444,228.855 520.409,229.900 519.283 C 233.389 515.522,235.326 513.275,235.719 512.534 C 235.933 512.130,236.498 511.440,236.974 511.000 C 237.451 510.560,238.372 509.480,239.020 508.600 C 239.669 507.720,240.785 506.439,241.500 505.753 C 242.215 505.067,242.800 504.310,242.800 504.072 C 242.800 503.834,243.430 503.027,244.200 502.279 C 244.970 501.531,245.600 500.781,245.600 500.612 C 245.600 500.444,246.095 499.723,246.700 499.010 C 248.024 497.450,248.631 496.681,250.183 494.592 C 250.834 493.716,251.509 492.940,251.683 492.867 C 251.858 492.793,252.000 492.547,252.000 492.319 C 252.000 492.092,252.495 491.328,253.100 490.622 C 254.828 488.607,256.585 486.327,256.753 485.885 C 256.837 485.663,257.422 484.942,258.053 484.282 C 258.684 483.621,259.200 482.956,259.200 482.802 C 259.200 482.648,259.539 482.131,259.954 481.653 C 260.369 481.175,261.134 480.158,261.654 479.394 C 262.174 478.630,262.735 478.004,262.900 478.003 C 263.065 478.001,263.200 477.812,263.200 477.583 C 263.200 477.353,263.650 476.680,264.200 476.087 C 264.750 475.493,265.200 474.872,265.200 474.705 C 265.200 474.538,265.830 473.734,266.600 472.918 C 267.370 472.101,268.000 471.289,268.000 471.113 C 268.000 470.937,268.540 470.228,269.200 469.537 C 269.860 468.846,270.400 468.136,270.400 467.959 C 270.400 467.781,270.850 467.186,271.400 466.636 C 271.950 466.086,272.400 465.480,272.400 465.288 C 272.400 465.096,272.850 464.517,273.400 464.000 C 273.950 463.483,274.400 462.822,274.400 462.530 C 274.400 462.239,274.535 461.996,274.700 461.991 C 274.865 461.986,275.540 461.177,276.200 460.192 C 276.860 459.207,277.535 458.401,277.700 458.401 C 277.865 458.400,278.000 458.161,278.000 457.870 C 278.000 457.578,278.450 456.917,279.000 456.400 C 279.550 455.883,280.000 455.144,280.000 454.757 C 280.000 454.370,280.351 453.943,280.780 453.806 C 281.208 453.670,281.671 453.205,281.809 452.772 C 281.946 452.339,282.585 451.408,283.229 450.703 C 283.873 449.998,284.400 449.291,284.400 449.131 C 284.400 448.972,284.850 448.356,285.400 447.762 C 285.950 447.169,286.400 446.483,286.400 446.238 C 286.400 445.993,286.760 445.568,287.200 445.293 C 287.640 445.018,288.000 444.533,288.000 444.215 C 288.000 443.897,288.450 443.186,289.000 442.636 C 289.550 442.086,290.000 441.525,290.000 441.390 C 290.000 441.254,290.225 440.892,290.500 440.585 C 291.687 439.262,292.000 438.809,292.000 438.417 C 292.000 438.188,292.141 438.000,292.314 438.000 C 292.486 438.000,292.922 437.505,293.283 436.900 C 293.643 436.295,294.267 435.430,294.669 434.978 C 295.576 433.959,296.287 432.864,296.779 431.732 C 296.986 431.255,297.411 430.715,297.724 430.532 C 298.036 430.350,298.588 429.660,298.951 429.000 C 299.992 427.105,300.523 426.345,301.688 425.084 C 302.286 424.437,302.883 423.568,303.015 423.153 C 303.146 422.739,303.422 422.400,303.627 422.400 C 303.832 422.400,304.000 422.130,304.000 421.800 C 304.000 421.470,304.141 421.200,304.314 421.200 C 304.486 421.200,304.968 420.615,305.384 419.900 C 305.799 419.185,306.244 418.510,306.371 418.400 C 306.882 417.958,308.800 414.931,308.800 414.567 C 308.800 414.352,309.160 413.917,309.600 413.600 C 310.040 413.283,310.400 412.793,310.400 412.512 C 310.400 412.230,310.568 412.000,310.773 412.000 C 310.978 412.000,311.274 411.595,311.430 411.100 C 311.587 410.605,312.049 409.909,312.457 409.553 C 312.866 409.197,313.200 408.724,313.200 408.502 C 313.200 408.280,313.470 407.874,313.800 407.600 C 314.130 407.326,314.400 406.764,314.400 406.351 C 314.400 405.938,314.582 405.600,314.805 405.600 C 315.028 405.600,315.867 404.565,316.671 403.300 C 317.474 402.035,318.237 400.910,318.366 400.800 C 318.691 400.523,319.479 399.243,320.277 397.700 C 320.646 396.985,321.095 396.400,321.274 396.400 C 321.453 396.400,321.600 396.130,321.600 395.800 C 321.600 395.470,321.752 395.200,321.937 395.200 C 322.122 395.200,322.613 394.570,323.028 393.800 C 323.443 393.030,323.921 392.400,324.091 392.400 C 324.261 392.400,324.400 392.040,324.400 391.600 C 324.400 391.160,324.539 390.800,324.709 390.800 C 324.879 390.800,325.357 390.170,325.772 389.400 C 326.187 388.630,326.678 388.000,326.863 388.000 C 327.048 388.000,327.200 387.730,327.200 387.400 C 327.200 387.070,327.353 386.800,327.539 386.800 C 327.726 386.800,328.216 386.035,328.627 385.100 C 329.039 384.165,329.697 383.109,330.088 382.753 C 330.480 382.397,330.800 381.924,330.800 381.702 C 330.800 381.480,331.070 381.074,331.400 380.800 C 331.730 380.526,332.000 379.964,332.000 379.551 C 332.000 379.138,332.180 378.800,332.400 378.800 C 332.620 378.800,332.800 378.530,332.800 378.200 C 332.800 377.870,332.952 377.600,333.137 377.600 C 333.322 377.600,333.813 376.970,334.228 376.200 C 334.643 375.430,335.121 374.800,335.291 374.800 C 335.461 374.800,335.600 374.440,335.600 374.000 C 335.600 373.560,335.780 373.200,336.000 373.200 C 336.220 373.200,336.400 372.930,336.400 372.600 C 336.400 372.270,336.577 372.000,336.792 372.000 C 337.008 372.000,337.298 371.550,337.436 371.000 C 337.574 370.450,337.847 370.000,338.043 370.000 C 338.240 370.000,338.400 369.764,338.400 369.475 C 338.400 369.187,338.715 368.591,339.100 368.152 C 339.770 367.387,340.830 365.616,341.763 363.703 C 342.003 363.210,342.335 362.805,342.500 362.803 C 342.665 362.801,342.800 362.552,342.800 362.249 C 342.800 361.946,343.070 361.474,343.400 361.200 C 343.730 360.926,344.000 360.364,344.000 359.951 C 344.000 359.538,344.180 359.200,344.400 359.200 C 344.620 359.200,344.800 358.930,344.800 358.600 C 344.800 358.270,344.953 358.000,345.139 358.000 C 345.326 358.000,345.816 357.235,346.228 356.300 C 346.641 355.365,347.073 354.510,347.189 354.400 C 347.560 354.049,349.243 351.026,349.472 350.300 C 349.594 349.915,349.852 349.600,350.047 349.600 C 350.241 349.600,350.400 349.240,350.400 348.800 C 350.400 348.360,350.535 347.999,350.700 347.997 C 351.102 347.994,352.400 345.681,352.400 344.968 C 352.400 344.655,352.580 344.400,352.800 344.400 C 353.020 344.400,353.200 344.130,353.200 343.800 C 353.200 343.470,353.380 343.200,353.600 343.200 C 353.820 343.200,354.000 342.840,354.000 342.400 C 354.000 341.960,354.177 341.600,354.392 341.600 C 354.608 341.600,354.898 341.150,355.036 340.600 C 355.174 340.050,355.447 339.600,355.643 339.600 C 355.840 339.600,356.000 339.240,356.000 338.800 C 356.000 338.360,356.138 338.000,356.306 338.000 C 356.627 338.000,358.000 335.080,358.000 334.397 C 358.000 334.179,358.136 334.000,358.302 334.000 C 358.469 334.000,358.859 333.415,359.170 332.700 C 359.481 331.985,359.840 331.310,359.968 331.200 C 360.096 331.090,360.740 329.878,361.400 328.507 C 362.060 327.135,362.727 326.010,362.882 326.007 C 363.037 326.003,363.282 325.370,363.426 324.600 C 363.571 323.830,363.849 323.200,364.045 323.200 C 364.240 323.200,364.400 322.930,364.400 322.600 C 364.400 322.270,364.580 322.000,364.800 322.000 C 365.020 322.000,365.200 321.764,365.200 321.475 C 365.200 321.186,365.650 320.017,366.200 318.877 C 366.750 317.737,367.200 316.533,367.200 316.202 C 367.200 315.871,367.380 315.600,367.600 315.600 C 367.820 315.600,368.000 315.330,368.000 315.000 C 368.000 314.670,368.180 314.400,368.400 314.400 C 368.620 314.400,368.800 314.040,368.800 313.600 C 368.800 313.160,368.991 312.800,369.224 312.800 C 369.457 312.800,369.544 312.632,369.417 312.428 C 369.291 312.223,369.370 311.942,369.593 311.804 C 369.817 311.666,370.000 311.203,370.000 310.776 C 370.000 310.349,370.136 310.000,370.302 310.000 C 370.469 310.000,370.844 309.415,371.136 308.700 C 372.024 306.526,372.292 305.918,373.773 302.711 C 374.558 301.013,375.200 299.510,375.200 299.372 C 375.200 299.103,375.922 297.429,377.448 294.160 C 377.971 293.038,378.400 291.733,378.400 291.260 C 378.400 290.787,378.560 290.400,378.756 290.400 C 378.952 290.400,379.351 289.590,379.643 288.600 C 379.935 287.610,380.300 286.800,380.452 286.800 C 380.605 286.800,380.851 286.081,381.000 285.202 C 381.148 284.323,381.434 283.503,381.635 283.378 C 381.836 283.254,382.000 282.713,382.000 282.176 C 382.000 281.639,382.153 281.200,382.339 281.200 C 382.728 281.200,384.000 277.488,384.000 276.354 C 384.000 275.939,384.180 275.600,384.400 275.600 C 384.620 275.600,384.800 275.150,384.800 274.600 C 384.800 274.050,384.980 273.600,385.200 273.600 C 385.420 273.600,385.600 273.150,385.600 272.600 C 385.600 272.050,385.763 271.600,385.962 271.600 C 386.162 271.600,386.449 270.700,386.600 269.600 C 386.751 268.500,387.038 267.600,387.238 267.600 C 387.437 267.600,387.600 267.060,387.600 266.400 C 387.600 265.740,387.780 265.200,388.000 265.200 C 388.220 265.200,388.400 264.838,388.400 264.395 C 388.400 263.952,388.560 263.277,388.757 262.895 C 389.314 261.809,390.400 257.824,390.400 256.865 C 390.400 256.389,390.560 256.000,390.755 256.000 C 390.950 256.000,391.205 255.505,391.322 254.900 C 391.439 254.295,391.749 253.080,392.011 252.200 C 392.273 251.320,392.685 249.475,392.926 248.100 C 393.167 246.725,393.507 245.600,393.682 245.600 C 393.857 245.600,394.000 244.981,394.000 244.224 C 394.000 243.467,394.180 242.736,394.400 242.600 C 394.620 242.464,394.800 241.812,394.800 241.150 C 394.800 240.489,394.977 239.616,395.194 239.212 C 395.410 238.807,395.706 237.199,395.851 235.638 C 395.996 234.077,396.269 232.800,396.457 232.800 C 396.646 232.800,396.800 232.001,396.800 231.024 C 396.800 230.047,396.980 229.136,397.200 229.000 C 397.420 228.864,397.600 228.055,397.600 227.202 C 397.600 226.350,397.780 225.179,398.000 224.601 C 398.219 224.023,398.517 221.716,398.660 219.475 C 398.804 217.234,399.119 215.272,399.360 215.115 C 399.986 214.708,399.981 167.551,399.355 166.762 C 399.110 166.453,398.797 164.850,398.660 163.200 C 398.522 161.550,398.293 159.750,398.151 159.200 C 398.008 158.650,397.808 157.345,397.707 156.300 C 397.606 155.255,397.360 154.400,397.161 154.400 C 396.963 154.400,396.800 153.691,396.800 152.824 C 396.800 151.957,396.620 151.136,396.400 151.000 C 396.180 150.864,396.002 150.358,396.003 149.876 C 396.008 148.647,394.663 143.428,394.300 143.267 C 394.135 143.193,394.000 142.518,394.000 141.767 C 394.000 141.015,393.820 140.400,393.600 140.400 C 393.380 140.400,393.200 139.944,393.200 139.387 C 393.200 138.830,392.930 137.728,392.600 136.938 C 392.270 136.149,392.000 135.164,392.000 134.751 C 392.000 134.338,391.820 134.000,391.600 134.000 C 391.380 134.000,391.200 133.550,391.200 133.000 C 391.200 132.450,391.020 132.000,390.800 132.000 C 390.580 132.000,390.400 131.622,390.400 131.160 C 390.400 130.393,389.689 128.455,388.766 126.705 C 388.565 126.323,388.400 125.738,388.400 125.405 C 388.400 125.072,388.264 124.800,388.098 124.800 C 387.717 124.800,386.950 123.005,386.602 121.300 C 386.456 120.585,386.171 120.000,385.968 120.000 C 385.766 120.000,385.600 119.640,385.600 119.200 C 385.600 118.760,385.420 118.400,385.200 118.400 C 384.980 118.400,384.800 118.130,384.800 117.800 C 384.800 117.470,384.640 117.200,384.445 117.200 C 384.249 117.200,383.971 116.570,383.826 115.800 C 383.682 115.030,383.392 114.400,383.182 114.400 C 382.972 114.400,382.800 114.040,382.800 113.600 C 382.800 113.160,382.662 112.800,382.494 112.800 C 382.173 112.800,380.800 109.880,380.800 109.197 C 380.800 108.979,380.620 108.800,380.400 108.800 C 380.180 108.800,380.000 108.564,380.000 108.275 C 380.000 107.987,379.662 107.388,379.249 106.945 C 378.836 106.501,378.361 105.706,378.193 105.177 C 377.909 104.283,376.515 102.056,375.954 101.600 C 375.819 101.490,375.581 100.995,375.427 100.500 C 375.272 100.005,374.978 99.600,374.773 99.600 C 374.568 99.600,374.400 99.364,374.400 99.075 C 374.400 98.787,374.040 98.164,373.600 97.692 C 373.160 97.220,372.800 96.646,372.800 96.417 C 372.800 96.188,372.632 96.000,372.427 96.000 C 372.222 96.000,371.926 95.595,371.770 95.100 C 371.613 94.605,371.151 93.909,370.743 93.553 C 370.334 93.197,370.000 92.627,370.000 92.286 C 370.000 91.946,369.841 91.607,369.646 91.533 C 369.177 91.357,366.400 87.690,366.400 87.247 C 366.400 87.057,365.770 86.364,365.000 85.706 C 364.230 85.048,363.600 84.259,363.600 83.951 C 363.600 83.644,362.974 82.854,362.209 82.196 C 361.443 81.538,360.813 80.786,360.809 80.524 C 360.804 80.261,360.035 79.223,359.100 78.215 C 358.165 77.208,356.860 75.742,356.200 74.959 C 355.540 74.176,353.965 72.478,352.700 71.187 C 351.435 69.896,350.400 68.724,350.400 68.584 C 350.400 68.443,348.960 66.877,347.200 65.103 C 345.440 63.328,343.997 61.769,343.994 61.638 C 343.984 61.220,338.257 55.430,336.741 54.305 C 335.938 53.709,334.027 51.957,332.493 50.411 C 330.959 48.865,329.585 47.600,329.438 47.600 C 329.189 47.600,328.712 47.201,326.214 44.900 C 325.676 44.405,325.130 44.000,325.000 44.000 C 324.870 44.000,324.330 43.595,323.801 43.100 C 322.364 41.756,321.661 41.200,321.399 41.200 C 321.269 41.200,320.714 40.750,320.164 40.200 C 319.614 39.650,318.990 39.200,318.778 39.200 C 318.566 39.200,317.833 38.665,317.150 38.012 C 316.466 37.359,315.568 36.717,315.153 36.585 C 314.739 36.454,314.400 36.178,314.400 35.973 C 314.400 35.768,314.130 35.600,313.800 35.600 C 313.470 35.600,313.200 35.448,313.200 35.263 C 313.200 35.078,312.570 34.587,311.800 34.172 C 311.030 33.757,310.400 33.279,310.400 33.109 C 310.400 32.939,310.059 32.800,309.643 32.800 C 309.226 32.800,308.779 32.521,308.648 32.181 C 308.517 31.841,307.868 31.373,307.205 31.142 C 306.542 30.911,306.000 30.559,306.000 30.361 C 306.000 30.162,305.730 30.000,305.400 30.000 C 305.070 30.000,304.799 29.865,304.797 29.700 C 304.795 29.535,304.390 29.203,303.897 28.963 C 302.182 28.127,300.199 26.998,300.000 26.745 C 299.594 26.228,296.026 24.400,295.423 24.400 C 295.080 24.400,294.800 24.249,294.800 24.065 C 294.800 23.881,293.765 23.212,292.500 22.578 C 291.235 21.944,290.140 21.285,290.067 21.113 C 289.993 20.941,289.603 20.800,289.200 20.800 C 288.797 20.800,288.407 20.665,288.333 20.500 C 288.151 20.089,285.310 18.800,284.586 18.800 C 284.264 18.800,284.000 18.620,284.000 18.400 C 284.000 18.180,283.640 18.000,283.200 18.000 C 282.760 18.000,282.400 17.820,282.400 17.600 C 282.400 17.380,282.128 17.200,281.795 17.200 C 281.462 17.200,280.877 17.029,280.495 16.819 C 280.113 16.610,279.080 16.141,278.200 15.778 C 277.320 15.414,275.880 14.787,275.000 14.384 C 274.120 13.982,272.950 13.539,272.400 13.401 C 271.850 13.263,271.040 13.005,270.600 12.828 C 268.766 12.092,267.357 11.485,266.691 11.144 C 266.301 10.945,265.176 10.672,264.191 10.537 C 263.206 10.402,262.400 10.136,262.400 9.946 C 262.400 9.756,261.950 9.600,261.400 9.600 C 260.850 9.600,260.400 9.420,260.400 9.200 C 260.400 8.980,260.085 8.797,259.700 8.794 C 259.315 8.791,258.280 8.529,257.400 8.212 C 256.520 7.895,255.215 7.627,254.500 7.618 C 253.785 7.608,253.200 7.420,253.200 7.200 C 253.200 6.980,252.761 6.800,252.224 6.800 C 251.687 6.800,251.148 6.640,251.027 6.444 C 250.906 6.249,250.221 5.995,249.504 5.881 C 248.787 5.768,247.480 5.482,246.600 5.247 C 245.720 5.012,244.325 4.815,243.500 4.810 C 242.675 4.804,242.000 4.620,242.000 4.400 C 242.000 4.180,241.381 4.000,240.624 4.000 C 239.867 4.000,239.136 3.820,239.000 3.600 C 238.864 3.380,237.964 3.200,237.000 3.200 C 236.036 3.200,235.145 3.034,235.020 2.832 C 234.894 2.629,232.990 2.336,230.787 2.180 C 228.585 2.023,226.686 1.739,226.568 1.548 C 226.450 1.357,225.229 1.200,223.856 1.200 C 222.463 1.200,221.150 0.990,220.885 0.725 C 220.411 0.251,187.224 -0.109,179.202 0.274 M205.200 27.037 C 208.830 27.361,213.420 27.774,215.400 27.955 C 219.430 28.324,230.274 29.897,231.200 30.248 C 231.530 30.373,232.700 30.625,233.800 30.807 C 238.721 31.624,250.675 34.938,255.400 36.795 C 255.840 36.968,258.630 38.053,261.600 39.207 C 267.272 41.409,270.491 42.817,274.800 44.981 C 279.215 47.197,283.749 49.661,284.862 50.449 C 285.446 50.862,286.029 51.200,286.159 51.200 C 286.614 51.200,298.252 58.795,299.800 60.102 C 300.020 60.288,301.207 61.196,302.438 62.120 C 306.451 65.133,307.781 66.183,309.000 67.298 C 309.660 67.902,311.129 69.162,312.265 70.098 C 324.105 79.856,338.588 97.553,349.162 115.185 C 354.843 124.658,362.457 142.715,365.951 155.000 C 367.025 158.779,368.263 163.794,368.815 166.600 C 369.074 167.920,369.447 169.522,369.643 170.160 C 369.839 170.798,370.000 171.914,370.000 172.641 C 370.000 173.368,370.178 174.376,370.396 174.881 C 370.614 175.387,370.962 177.510,371.170 179.600 C 371.378 181.690,371.820 184.750,372.153 186.400 C 372.627 188.750,372.762 192.683,372.779 204.554 C 372.799 218.675,372.606 222.245,371.601 226.400 C 371.414 227.170,371.070 229.510,370.835 231.600 C 370.341 235.992,369.842 239.053,369.206 241.600 C 368.741 243.460,368.428 244.891,367.589 249.000 C 367.319 250.320,366.953 251.760,366.776 252.200 C 366.598 252.640,366.271 253.630,366.049 254.400 C 364.499 259.777,360.785 270.825,360.401 271.200 C 360.288 271.310,359.951 272.120,359.652 273.000 C 358.172 277.353,351.518 290.793,347.967 296.600 C 347.564 297.260,346.947 298.361,346.597 299.046 C 346.247 299.731,345.609 300.669,345.180 301.129 C 344.751 301.590,344.400 302.141,344.400 302.355 C 344.400 302.568,344.175 302.988,343.900 303.288 C 343.625 303.588,343.220 304.117,343.000 304.463 C 341.815 306.326,339.510 309.734,339.163 310.137 C 338.942 310.392,338.093 311.500,337.276 312.600 C 326.049 327.710,310.945 342.174,295.800 352.317 C 292.940 354.233,290.510 355.903,290.400 356.029 C 290.290 356.155,289.930 356.387,289.600 356.545 C 289.270 356.702,288.640 357.051,288.200 357.321 C 285.559 358.935,281.349 361.317,278.400 362.865 C 276.530 363.846,274.640 364.852,274.200 365.099 C 273.438 365.528,269.499 367.318,267.800 368.009 C 267.360 368.188,266.010 368.774,264.800 369.312 C 261.007 370.999,256.410 372.709,251.600 374.224 C 249.730 374.812,247.840 375.432,247.400 375.601 C 245.752 376.235,240.825 377.499,238.600 377.860 C 237.940 377.967,237.040 378.210,236.600 378.400 C 235.853 378.723,235.231 378.858,231.900 379.419 C 231.185 379.540,229.880 379.815,229.000 380.031 C 228.120 380.247,225.960 380.581,224.200 380.774 C 222.440 380.966,219.740 381.410,218.200 381.761 C 213.511 382.831,181.401 382.701,178.200 381.600 C 176.921 381.160,175.138 380.799,174.237 380.798 C 173.337 380.796,171.520 380.598,170.200 380.358 C 163.931 379.214,164.344 379.301,158.000 377.778 C 156.570 377.435,154.950 377.061,154.400 376.947 C 153.850 376.833,153.040 376.591,152.600 376.410 C 152.160 376.228,150.720 375.778,149.400 375.408 C 147.033 374.745,145.366 374.211,143.800 373.614 C 143.360 373.447,142.010 372.987,140.800 372.593 C 138.809 371.946,137.894 371.578,133.740 369.753 C 133.046 369.449,132.287 369.200,132.052 369.200 C 131.817 369.200,131.034 368.878,130.312 368.484 C 129.590 368.090,127.740 367.250,126.200 366.618 C 124.660 365.986,123.220 365.335,123.000 365.170 C 122.780 365.006,121.430 364.255,120.000 363.501 C 118.570 362.747,116.500 361.622,115.400 361.001 C 114.300 360.380,113.040 359.676,112.600 359.436 C 112.160 359.196,111.710 358.910,111.600 358.800 C 111.490 358.690,110.860 358.317,110.200 357.971 C 108.305 356.978,107.017 356.220,106.800 355.970 C 106.690 355.843,106.015 355.399,105.300 354.984 C 104.585 354.568,104.000 354.086,104.000 353.914 C 104.000 353.741,103.829 353.600,103.619 353.600 C 103.221 353.600,98.190 350.201,97.271 349.312 C 96.981 349.030,96.621 348.799,96.471 348.798 C 96.322 348.797,95.660 348.291,95.000 347.673 C 94.340 347.055,93.510 346.381,93.155 346.175 C 92.420 345.748,89.408 343.288,87.017 341.162 C 86.128 340.371,84.963 339.381,84.429 338.962 C 81.425 336.603,68.766 323.458,65.809 319.626 C 65.373 319.062,64.828 318.402,64.596 318.159 C 64.364 317.916,63.101 316.296,61.788 314.559 C 60.474 312.822,59.265 311.340,59.100 311.267 C 58.935 311.193,58.800 310.910,58.800 310.636 C 58.800 310.363,58.350 309.717,57.800 309.200 C 57.250 308.683,56.800 308.037,56.800 307.764 C 56.800 307.490,56.661 307.207,56.491 307.133 C 56.056 306.945,50.400 298.099,50.400 297.606 C 50.400 297.383,50.258 297.200,50.084 297.200 C 49.911 297.200,49.237 296.165,48.587 294.900 C 47.936 293.635,47.302 292.510,47.177 292.400 C 46.934 292.186,40.120 278.345,39.596 277.000 C 39.424 276.560,38.840 275.210,38.298 274.000 C 37.755 272.790,37.088 271.170,36.815 270.400 C 36.543 269.630,36.171 268.640,35.991 268.200 C 35.810 267.760,35.362 266.500,34.996 265.400 C 34.629 264.300,34.165 263.087,33.965 262.705 C 33.764 262.323,33.600 261.736,33.600 261.400 C 33.600 261.064,33.435 260.477,33.233 260.095 C 32.903 259.469,32.466 257.990,31.135 253.000 C 30.901 252.120,30.563 251.040,30.385 250.600 C 30.047 249.767,29.920 249.229,28.968 244.600 C 28.651 243.060,28.202 240.900,27.970 239.800 C 27.492 237.535,27.031 234.765,26.406 230.400 C 26.170 228.750,25.673 225.330,25.301 222.800 C 24.450 217.010,24.099 195.578,24.789 191.587 C 25.038 190.150,25.601 186.190,26.040 182.787 C 26.921 175.952,27.359 173.099,27.940 170.400 C 28.153 169.410,28.532 167.430,28.782 166.000 C 29.031 164.570,29.396 162.860,29.591 162.200 C 29.786 161.540,30.159 160.190,30.419 159.200 C 30.680 158.210,31.032 156.950,31.201 156.400 C 31.371 155.850,31.820 154.230,32.199 152.800 C 32.578 151.370,33.041 149.840,33.228 149.400 C 33.415 148.960,33.919 147.520,34.349 146.200 C 35.391 143.002,37.484 137.293,38.161 135.800 C 38.460 135.140,39.018 133.880,39.400 133.000 C 39.783 132.120,40.524 130.482,41.048 129.360 C 41.571 128.238,42.000 127.128,42.000 126.893 C 42.000 126.659,42.135 126.407,42.300 126.333 C 42.465 126.260,43.368 124.670,44.307 122.800 C 46.889 117.658,49.702 112.616,50.071 112.467 C 50.252 112.393,50.400 112.166,50.400 111.961 C 50.400 111.490,56.074 102.647,56.491 102.467 C 56.661 102.393,56.800 102.100,56.800 101.816 C 56.800 101.531,57.089 101.058,57.442 100.765 C 57.795 100.472,58.779 99.209,59.628 97.959 C 60.477 96.708,61.403 95.441,61.686 95.143 C 61.969 94.844,62.733 93.880,63.386 93.000 C 64.038 92.120,64.758 91.198,64.986 90.951 C 65.213 90.705,66.750 88.910,68.400 86.964 C 74.020 80.334,83.944 70.805,91.274 65.000 C 92.663 63.900,93.860 62.865,93.933 62.700 C 94.007 62.535,94.307 62.400,94.600 62.400 C 94.893 62.400,95.193 62.241,95.267 62.046 C 95.395 61.704,106.250 54.000,106.602 54.000 C 106.697 54.000,108.027 53.190,109.558 52.200 C 111.088 51.210,112.519 50.400,112.737 50.400 C 112.955 50.400,113.193 50.265,113.267 50.100 C 113.552 49.459,126.711 42.806,132.018 40.621 C 134.098 39.764,135.971 38.914,136.180 38.732 C 136.389 38.549,136.863 38.400,137.234 38.400 C 137.605 38.400,138.424 38.131,139.054 37.802 C 139.684 37.474,140.504 37.204,140.876 37.202 C 141.248 37.201,141.664 37.020,141.800 36.800 C 141.936 36.580,142.451 36.400,142.944 36.400 C 143.437 36.400,144.011 36.257,144.220 36.082 C 144.633 35.736,146.073 35.252,149.800 34.207 C 151.120 33.836,152.513 33.368,152.895 33.167 C 153.277 32.965,154.012 32.800,154.528 32.800 C 155.044 32.800,155.601 32.665,155.765 32.500 C 156.047 32.217,158.435 31.653,163.000 30.791 C 164.100 30.583,165.810 30.226,166.800 29.996 C 167.790 29.767,169.860 29.413,171.400 29.209 C 172.940 29.006,175.170 28.651,176.355 28.420 C 177.540 28.189,179.826 28.000,181.436 28.000 C 183.045 28.000,184.776 27.816,185.281 27.592 C 186.084 27.235,193.171 26.574,197.200 26.481 C 197.970 26.464,201.570 26.714,205.200 27.037 M211.400 106.564 C 210.080 107.052,206.030 108.899,202.400 110.669 C 195.489 114.039,195.063 114.227,192.800 114.922 C 191.852 115.213,175.457 115.424,142.000 115.576 L 92.600 115.800 89.837 117.104 C 86.473 118.690,84.074 120.606,81.984 123.375 C 80.544 125.281,48.000 189.779,48.000 190.725 C 48.000 190.950,47.865 191.193,47.700 191.267 C 47.265 191.460,42.400 201.460,42.400 202.161 C 42.400 202.487,42.220 202.864,42.000 203.000 C 41.232 203.475,41.536 208.259,42.438 209.888 C 44.936 214.397,46.323 215.000,54.200 215.000 C 61.592 215.000,61.463 215.043,66.527 210.921 C 69.437 208.552,71.522 207.355,75.200 205.939 C 76.348 205.497,89.894 205.363,150.600 205.192 C 197.343 205.060,224.995 204.839,225.672 204.592 C 227.886 203.782,230.254 201.723,231.228 199.759 L 232.200 197.800 232.402 164.400 C 232.587 133.579,232.658 130.846,233.321 129.000 C 236.316 120.662,241.830 115.789,250.240 114.047 C 256.936 112.659,258.919 110.146,255.787 107.013 L 254.373 105.600 234.087 105.639 C 214.176 105.677,213.755 105.694,211.400 106.564 M254.777 125.640 C 250.631 125.921,249.217 126.444,247.231 128.431 C 244.400 131.261,244.622 127.792,244.400 172.800 C 244.250 203.274,244.080 213.670,243.717 214.481 C 242.561 217.068,243.506 216.988,212.625 217.113 C 179.569 217.247,181.699 216.785,185.744 222.938 C 191.481 231.665,193.820 240.065,193.297 250.062 C 192.941 256.868,190.745 256.401,223.046 256.398 C 255.734 256.395,253.353 256.969,252.935 249.189 C 252.153 234.652,259.165 220.577,271.151 212.621 C 278.837 207.519,285.839 205.411,294.800 205.501 C 298.893 205.542,300.974 205.842,306.000 207.119 C 311.421 208.496,318.358 212.697,323.249 217.567 C 329.949 224.237,333.234 230.704,335.250 241.192 C 336.212 246.194,340.940 247.829,343.487 244.041 L 344.400 242.682 344.386 213.441 C 344.369 178.869,344.657 181.226,339.303 171.854 C 338.531 170.504,337.499 168.680,337.008 167.800 C 336.517 166.920,335.358 164.850,334.433 163.200 C 333.509 161.550,332.652 159.885,332.529 159.500 C 332.407 159.115,332.148 158.800,331.953 158.800 C 331.759 158.800,331.600 158.642,331.600 158.449 C 331.600 158.256,330.498 156.141,329.152 153.749 C 327.805 151.357,326.157 148.410,325.489 147.200 C 324.821 145.990,323.583 143.769,322.737 142.264 C 321.892 140.759,321.200 139.445,321.200 139.343 C 321.200 139.241,320.205 137.647,318.989 135.800 C 315.260 130.139,310.497 126.759,305.184 126.007 C 302.110 125.572,260.270 125.267,254.777 125.640 M113.713 134.539 C 117.035 135.696,117.055 135.642,104.141 161.510 C 90.270 189.297,92.438 187.131,78.923 186.699 C 67.517 186.334,67.334 188.090,81.794 159.142 C 93.012 136.686,93.666 135.539,95.800 134.596 C 97.488 133.850,111.605 133.805,113.713 134.539 M156.000 134.557 L 157.800 135.102 157.666 136.818 C 157.489 139.077,157.316 139.449,145.549 162.976 C 135.349 183.369,133.994 185.652,131.711 186.290 C 129.337 186.953,115.120 186.635,113.496 185.883 C 111.046 184.748,111.252 184.204,123.369 159.795 C 134.395 137.582,135.570 135.525,137.780 134.563 C 139.510 133.809,153.516 133.805,156.000 134.557 M196.113 134.539 C 199.503 135.719,199.339 136.184,186.490 161.847 C 174.127 186.540,174.409 186.121,169.783 186.617 C 165.789 187.044,155.323 186.683,154.738 186.098 C 154.464 185.824,153.935 185.600,153.563 185.600 C 152.736 185.600,152.346 184.729,152.831 183.964 C 153.027 183.654,153.191 182.916,153.194 182.324 C 153.200 181.172,174.220 138.690,175.872 136.490 C 177.520 134.296,178.554 134.068,187.000 134.039 C 192.316 134.020,195.055 134.170,196.113 134.539 M301.416 145.126 C 303.255 146.181,304.429 147.817,308.215 154.600 C 309.689 157.240,311.296 160.120,311.787 161.000 C 312.278 161.880,313.360 163.860,314.190 165.400 C 315.020 166.940,315.845 168.384,316.023 168.609 C 316.201 168.834,316.867 170.004,317.503 171.209 C 318.138 172.414,319.266 174.480,320.008 175.800 C 323.464 181.947,324.388 184.970,322.950 185.423 C 322.538 185.552,321.887 185.825,321.505 186.029 C 320.086 186.787,266.793 186.457,265.223 185.681 C 262.971 184.567,262.817 183.282,262.808 165.531 C 262.798 145.649,262.868 145.317,267.248 144.416 C 271.522 143.536,299.664 144.122,301.416 145.126 M213.307 151.500 C 213.881 155.013,214.003 158.179,213.974 168.800 C 213.934 183.465,213.790 184.491,211.592 185.782 C 208.733 187.462,193.175 186.711,193.205 184.895 C 193.247 182.274,205.950 155.968,209.572 150.999 C 210.687 149.469,211.600 147.988,211.600 147.709 C 211.600 145.389,212.713 147.861,213.307 151.500 M83.678 217.993 C 50.281 227.339,56.427 276.169,91.000 276.169 C 103.048 276.169,111.401 271.094,117.615 260.000 C 118.539 258.350,119.615 256.640,120.007 256.200 C 120.399 255.760,120.786 255.040,120.866 254.600 C 121.043 253.624,121.628 253.637,122.185 254.630 C 122.413 255.035,123.140 256.216,123.800 257.254 C 124.460 258.291,125.630 260.261,126.400 261.633 C 135.888 278.526,159.940 281.409,173.294 267.253 C 188.060 251.600,182.086 226.009,162.000 218.872 C 148.726 214.156,133.042 219.909,126.398 231.930 C 125.629 233.322,124.415 235.342,123.700 236.421 C 122.985 237.499,122.400 238.543,122.400 238.741 C 122.400 240.013,121.237 239.949,120.540 238.639 C 111.204 221.088,98.348 213.887,83.678 217.993 M286.878 217.993 C 253.459 227.345,259.604 276.169,294.200 276.169 C 308.856 276.169,320.164 267.008,323.232 252.649 C 324.443 246.983,324.301 244.566,322.348 237.600 C 318.387 223.475,301.212 213.981,286.878 217.993 M95.857 237.429 C 105.809 242.402,102.248 257.155,91.087 257.191 C 78.965 257.230,76.433 240.957,87.883 236.592 C 90.108 235.743,93.115 236.059,95.857 237.429 M156.860 237.460 C 162.762 240.639,164.422 247.774,160.478 253.004 C 155.512 259.591,145.758 258.469,142.333 250.917 C 138.210 241.823,148.047 232.711,156.860 237.460 M297.755 236.817 C 308.822 240.958,306.066 257.153,294.287 257.191 C 282.161 257.230,279.606 240.825,291.083 236.613 C 293.249 235.818,295.247 235.879,297.755 236.817 " stroke="none" fill="#334f73" fill-rule="evenodd"></path><path id="path3" d="M190.850 26.865 C 188.127 27.058,185.607 27.397,185.250 27.618 C 184.798 27.897,185.211 27.925,186.600 27.710 C 189.159 27.314,208.486 27.357,210.600 27.764 C 211.480 27.933,212.053 27.923,211.873 27.742 C 211.550 27.417,199.924 26.418,197.200 26.482 C 196.430 26.500,193.572 26.672,190.850 26.865 M174.200 28.675 C 167.194 29.802,163.136 30.718,165.000 30.751 C 165.440 30.759,166.610 30.588,167.600 30.371 C 170.035 29.838,174.112 29.232,179.400 28.617 L 183.800 28.105 180.800 28.100 C 179.150 28.097,176.180 28.356,174.200 28.675 M212.433 28.145 C 212.525 28.225,214.400 28.387,216.600 28.505 C 218.821 28.625,220.066 28.581,219.400 28.408 C 218.209 28.097,212.114 27.867,212.433 28.145 M222.400 29.179 C 223.386 29.516,226.690 29.741,226.367 29.450 C 226.275 29.368,225.120 29.196,223.800 29.069 C 222.245 28.920,221.752 28.958,222.400 29.179 M227.608 29.949 C 229.066 30.430,232.787 30.871,231.800 30.446 C 231.360 30.256,230.010 29.992,228.800 29.859 C 227.411 29.706,226.972 29.739,227.608 29.949 M160.803 31.189 C 160.475 31.397,159.258 31.685,158.098 31.830 C 156.938 31.975,155.891 32.252,155.771 32.447 C 155.651 32.641,155.111 32.800,154.571 32.800 C 154.031 32.800,153.277 32.969,152.895 33.176 C 152.513 33.383,151.684 33.661,151.053 33.795 C 150.422 33.929,150.005 34.139,150.127 34.261 C 150.249 34.383,152.025 34.022,154.074 33.459 C 156.124 32.896,159.240 32.084,161.000 31.654 C 163.393 31.069,163.847 30.864,162.800 30.842 C 162.030 30.826,161.132 30.982,160.803 31.189 M233.800 31.200 C 235.676 31.677,236.739 31.677,236.000 31.200 C 235.670 30.987,234.770 30.831,234.000 30.853 L 232.600 30.895 233.800 31.200 M237.400 32.000 C 237.840 32.189,238.650 32.338,239.200 32.332 L 240.200 32.320 239.200 32.000 C 238.650 31.824,237.840 31.674,237.400 31.668 L 236.600 31.656 237.400 32.000 M242.600 33.226 C 245.396 34.103,247.876 34.613,246.600 34.048 C 245.331 33.486,241.386 32.396,240.765 32.436 C 240.454 32.457,241.280 32.812,242.600 33.226 M146.529 35.130 C 145.391 35.503,144.326 35.941,144.163 36.104 C 144.000 36.267,143.457 36.400,142.957 36.400 C 142.457 36.400,141.936 36.580,141.800 36.800 C 141.664 37.020,141.248 37.201,140.876 37.202 C 140.504 37.204,139.684 37.474,139.054 37.802 C 138.424 38.131,137.605 38.400,137.234 38.400 C 136.863 38.400,136.389 38.549,136.180 38.732 C 135.971 38.914,134.098 39.764,132.018 40.621 C 126.711 42.806,113.552 49.459,113.267 50.100 C 113.193 50.265,112.955 50.400,112.737 50.400 C 112.519 50.400,111.088 51.210,109.558 52.200 C 108.027 53.190,106.697 54.000,106.602 54.000 C 106.250 54.000,95.395 61.704,95.267 62.046 C 95.193 62.241,94.893 62.400,94.600 62.400 C 94.307 62.400,94.007 62.535,93.933 62.700 C 93.860 62.865,92.663 63.900,91.274 65.000 C 83.944 70.805,74.020 80.334,68.400 86.964 C 66.750 88.910,65.213 90.705,64.986 90.951 C 64.758 91.198,64.038 92.120,63.386 93.000 C 62.733 93.880,61.969 94.844,61.686 95.143 C 61.403 95.441,60.477 96.708,59.628 97.959 C 58.779 99.209,57.795 100.472,57.442 100.765 C 57.089 101.058,56.800 101.531,56.800 101.816 C 56.800 102.100,56.661 102.393,56.491 102.467 C 56.074 102.647,50.400 111.490,50.400 111.961 C 50.400 112.166,50.252 112.393,50.071 112.467 C 49.702 112.616,46.889 117.658,44.307 122.800 C 43.368 124.670,42.465 126.260,42.300 126.333 C 42.135 126.407,42.000 126.659,42.000 126.893 C 42.000 127.128,41.571 128.238,41.048 129.360 C 40.524 130.482,39.825 132.030,39.495 132.800 C 39.165 133.570,38.607 134.830,38.256 135.600 C 37.502 137.249,35.458 142.798,34.349 146.200 C 33.919 147.520,33.415 148.960,33.228 149.400 C 33.041 149.840,32.578 151.370,32.199 152.800 C 31.820 154.230,31.371 155.850,31.201 156.400 C 31.032 156.950,30.680 158.210,30.419 159.200 C 30.159 160.190,29.785 161.540,29.589 162.200 C 29.093 163.866,28.655 166.800,28.902 166.800 C 29.015 166.800,29.423 165.405,29.809 163.700 C 31.204 157.548,34.997 145.076,36.591 141.400 C 36.877 140.740,37.242 139.750,37.403 139.200 C 37.564 138.650,38.015 137.480,38.406 136.600 C 38.797 135.720,39.606 133.830,40.204 132.400 C 41.485 129.335,45.293 121.607,47.200 118.200 C 47.939 116.880,48.736 115.433,48.972 114.985 C 55.410 102.735,71.702 82.657,84.200 71.570 C 90.341 66.122,97.601 60.468,102.481 57.333 C 104.087 56.301,105.490 55.355,105.600 55.229 C 108.659 51.729,134.028 39.713,147.500 35.383 C 149.534 34.729,150.132 34.372,149.100 34.426 C 148.825 34.441,147.668 34.758,146.529 35.130 M248.000 34.800 C 248.330 35.013,248.960 35.178,249.400 35.166 L 250.200 35.144 249.400 34.800 C 248.204 34.286,247.205 34.286,248.000 34.800 M250.400 35.363 C 250.400 35.632,255.323 37.210,255.527 37.007 C 255.630 36.903,255.464 36.735,255.157 36.632 C 250.964 35.230,250.400 35.080,250.400 35.363 M256.400 37.600 C 256.730 37.813,257.270 37.988,257.600 37.988 C 258.133 37.988,258.133 37.945,257.600 37.600 C 257.270 37.387,256.730 37.212,256.400 37.212 C 255.867 37.212,255.867 37.255,256.400 37.600 M258.600 38.400 C 258.736 38.620,259.104 38.800,259.418 38.800 C 261.443 38.800,279.815 47.643,286.316 51.747 C 287.233 52.326,288.123 52.796,288.292 52.791 C 288.699 52.779,286.699 51.220,286.262 51.209 C 286.076 51.204,285.446 50.862,284.862 50.449 C 281.737 48.237,271.357 43.123,263.273 39.812 C 258.555 37.880,258.215 37.777,258.600 38.400 M289.600 53.571 C 290.150 54.047,291.500 54.970,292.600 55.622 C 293.700 56.275,295.725 57.627,297.100 58.628 C 298.475 59.628,299.599 60.301,299.598 60.124 C 299.596 59.834,292.884 55.239,289.800 53.415 L 288.600 52.705 289.600 53.571 M300.646 61.109 C 301.112 61.489,302.192 62.336,303.046 62.991 C 312.304 70.085,323.254 80.605,330.780 89.635 C 333.039 92.345,334.977 94.796,335.087 95.081 C 335.196 95.367,335.462 95.600,335.677 95.600 C 337.234 95.600,318.662 75.370,312.265 70.098 C 311.129 69.162,309.660 67.902,309.000 67.298 C 307.833 66.230,307.096 65.646,302.445 62.100 C 300.288 60.455,298.929 59.706,300.646 61.109 M337.717 98.431 C 338.741 99.844,340.595 102.485,341.838 104.300 C 343.081 106.115,344.187 107.600,344.295 107.600 C 344.713 107.600,337.036 96.593,336.301 96.139 C 336.055 95.987,336.692 97.019,337.717 98.431 M217.200 105.051 C 214.524 105.216,210.842 106.009,210.548 106.484 C 210.312 106.867,212.204 106.492,213.274 105.945 C 213.644 105.755,223.043 105.600,234.160 105.600 L 254.373 105.600 255.843 107.070 C 256.652 107.878,257.231 108.294,257.131 107.993 C 257.031 107.693,256.269 106.896,255.438 106.223 L 253.927 105.000 236.663 104.958 C 227.168 104.935,218.410 104.976,217.200 105.051 M205.270 108.847 C 203.879 109.522,202.826 110.159,202.930 110.263 C 203.139 110.472,208.000 108.105,208.000 107.794 C 208.000 107.518,208.053 107.498,205.270 108.847 M344.400 108.269 C 344.400 108.416,344.641 108.821,344.936 109.169 C 345.732 110.106,349.200 115.972,349.200 116.381 C 349.200 116.575,349.348 116.793,349.529 116.867 C 349.711 116.940,351.277 119.829,353.009 123.287 C 354.742 126.744,356.228 129.505,356.311 129.422 C 356.490 129.243,350.789 117.915,349.061 115.017 C 345.756 109.475,344.400 107.511,344.400 108.269 M256.649 110.982 C 255.601 112.581,254.311 113.203,250.328 114.028 C 241.784 115.799,235.917 121.005,233.380 129.068 C 233.022 130.205,232.805 131.465,232.899 131.868 C 233.001 132.310,233.185 131.967,233.363 131.000 C 233.525 130.120,233.813 129.040,234.004 128.600 C 234.194 128.160,234.467 127.383,234.610 126.874 C 234.865 125.969,238.067 121.056,238.954 120.210 C 241.465 117.813,246.452 115.186,249.045 114.894 C 250.021 114.784,250.915 114.538,251.033 114.347 C 251.151 114.156,251.822 113.999,252.524 113.999 C 254.521 113.996,258.374 111.041,257.508 110.175 C 257.398 110.065,257.011 110.428,256.649 110.982 M196.113 113.243 C 195.186 113.670,193.296 114.282,191.913 114.603 C 189.452 115.176,189.441 115.184,191.400 114.993 C 193.306 114.808,197.372 113.455,198.180 112.738 C 198.795 112.191,197.954 112.397,196.113 113.243 M93.338 115.506 C 92.924 115.770,156.691 115.758,179.800 115.491 C 184.860 115.432,167.580 115.346,141.400 115.298 C 115.220 115.251,93.592 115.344,93.338 115.506 M89.800 116.689 C 85.716 118.342,77.680 126.613,78.937 127.871 C 79.069 128.003,79.342 127.681,79.544 127.155 C 80.869 123.697,85.506 119.133,89.636 117.223 C 92.365 115.960,92.474 115.607,89.800 116.689 M251.410 125.445 C 248.563 126.213,246.313 128.025,244.940 130.656 C 243.689 133.053,243.600 135.928,243.598 174.120 C 243.596 197.998,243.447 213.135,243.204 214.010 C 242.475 216.632,243.353 216.556,212.209 216.706 C 179.102 216.865,180.653 216.559,184.670 222.150 C 186.139 224.195,187.602 226.690,188.921 229.400 C 189.350 230.280,189.858 231.313,190.050 231.695 C 190.243 232.077,190.400 232.716,190.400 233.115 C 190.400 233.514,190.566 234.011,190.769 234.220 C 191.834 235.316,192.882 244.356,192.565 249.719 C 192.285 254.457,192.478 254.999,194.879 256.241 C 196.542 257.101,249.921 257.068,251.587 256.207 C 253.439 255.249,254.114 253.453,253.558 250.967 C 252.953 248.264,253.586 239.125,254.441 238.220 C 254.638 238.011,254.800 237.458,254.800 236.991 C 254.800 230.832,267.946 212.400,272.340 212.400 C 272.556 212.400,272.793 212.253,272.867 212.073 C 273.075 211.562,278.716 208.913,281.596 207.974 C 299.112 202.260,320.611 210.153,329.046 225.394 C 329.830 226.811,331.685 230.573,332.007 231.400 C 333.304 234.726,334.396 238.696,334.406 240.120 C 334.422 242.522,336.377 246.001,337.709 245.999 C 338.498 245.997,338.453 245.908,337.320 245.217 C 336.010 244.417,335.545 243.317,334.792 239.222 C 332.322 225.796,323.188 214.327,310.624 208.874 C 307.377 207.464,306.744 207.265,302.000 206.155 C 282.975 201.704,260.160 215.292,254.910 234.200 C 253.011 241.039,252.646 243.815,252.935 249.189 C 253.353 256.969,255.734 256.395,223.046 256.398 C 190.745 256.401,192.941 256.868,193.297 250.062 C 193.820 240.065,191.481 231.665,185.744 222.938 C 181.699 216.785,179.569 217.247,212.625 217.113 C 243.506 216.988,242.561 217.068,243.717 214.481 C 244.080 213.670,244.250 203.274,244.400 172.800 C 244.622 127.792,244.400 131.261,247.231 128.431 C 250.295 125.366,252.229 125.212,283.000 125.577 C 305.774 125.848,306.242 125.869,308.490 126.751 C 312.860 128.466,316.621 131.838,319.587 136.700 C 321.229 139.391,321.524 139.410,320.100 136.733 C 316.521 130.007,309.758 125.690,302.331 125.392 C 289.633 124.884,253.354 124.921,251.410 125.445 M77.242 130.842 C 76.547 132.200,76.051 133.384,76.140 133.473 C 76.228 133.562,76.876 132.529,77.579 131.179 C 78.282 129.828,78.778 128.645,78.681 128.548 C 78.585 128.452,77.937 129.484,77.242 130.842 M356.400 130.126 C 356.400 130.397,359.682 137.776,359.903 138.000 C 360.278 138.381,359.485 136.188,358.345 133.690 C 357.715 132.309,357.200 131.015,357.200 130.814 C 357.200 130.612,357.020 130.336,356.800 130.200 C 356.580 130.064,356.400 130.031,356.400 130.126 M232.400 165.200 L 232.200 197.800 231.228 199.759 C 230.254 201.723,227.886 203.782,225.672 204.592 C 224.995 204.839,197.343 205.060,150.600 205.192 C 89.894 205.363,76.348 205.497,75.200 205.939 C 71.522 207.355,69.437 208.552,66.527 210.921 C 61.463 215.043,61.592 215.000,54.200 215.000 C 46.469 215.000,43.948 213.871,42.362 209.700 C 42.151 209.144,41.878 208.789,41.756 208.910 C 41.128 209.539,44.410 213.786,46.130 214.570 C 50.049 216.356,60.356 216.510,62.000 214.806 C 62.110 214.692,62.672 214.356,63.249 214.059 C 63.827 213.762,65.398 212.560,66.742 211.388 C 68.948 209.464,71.638 207.940,75.600 206.370 C 76.769 205.907,89.234 205.781,151.200 205.608 C 234.812 205.374,226.727 205.710,229.973 202.332 C 232.934 199.250,232.819 200.840,232.703 164.800 L 232.600 132.600 232.400 165.200 M74.573 136.275 C 73.962 137.554,73.393 138.735,73.308 138.900 C 73.223 139.065,73.235 139.200,73.336 139.200 C 73.639 139.200,76.072 134.339,75.870 134.137 C 75.767 134.034,75.184 134.996,74.573 136.275 M95.800 134.596 C 93.666 135.539,93.012 136.686,81.794 159.142 C 67.334 188.090,67.517 186.334,78.923 186.699 C 92.438 187.131,90.270 189.297,104.141 161.510 C 114.580 140.599,116.465 136.306,115.593 135.433 C 114.132 133.972,98.689 133.319,95.800 134.596 M137.780 134.563 C 135.570 135.525,134.395 137.582,123.369 159.795 C 111.252 184.204,111.046 184.748,113.496 185.883 C 115.120 186.635,129.337 186.953,131.711 186.290 C 133.994 185.652,135.349 183.369,145.549 162.976 C 157.316 139.449,157.489 139.077,157.666 136.818 L 157.800 135.102 156.000 134.557 C 153.516 133.805,139.510 133.809,137.780 134.563 M178.128 134.622 C 177.429 134.929,176.414 135.769,175.873 136.490 C 174.673 138.087,159.491 168.424,159.757 168.690 C 159.861 168.795,163.390 161.977,167.598 153.540 C 177.829 133.030,176.399 134.412,187.400 134.412 C 200.481 134.412,200.549 132.628,186.392 160.911 C 172.356 188.952,174.999 186.000,163.932 186.000 C 152.334 186.000,151.910 185.668,154.996 179.000 C 155.709 177.460,156.622 175.480,157.025 174.600 C 157.428 173.720,157.858 172.910,157.979 172.800 C 158.420 172.400,159.629 169.496,159.435 169.302 C 159.083 168.950,153.200 181.239,153.194 182.339 C 153.191 182.923,153.027 183.654,152.831 183.964 C 152.346 184.729,152.736 185.600,153.563 185.600 C 153.935 185.600,154.464 185.824,154.738 186.098 C 155.323 186.683,165.789 187.044,169.783 186.617 C 174.409 186.121,174.127 186.540,186.490 161.847 C 196.796 141.264,198.929 136.369,197.999 135.439 C 196.510 133.950,181.108 133.317,178.128 134.622 M113.400 134.968 C 116.405 136.011,116.641 135.371,103.612 161.400 C 92.203 184.191,92.420 183.799,90.538 185.116 C 89.145 186.092,73.170 186.523,72.600 185.600 C 72.464 185.380,72.007 185.200,71.584 185.200 C 69.660 185.200,70.956 182.059,82.142 159.613 C 93.307 137.211,94.028 135.944,96.153 135.012 C 97.933 134.232,111.181 134.197,113.400 134.968 M155.400 134.966 C 158.566 136.062,158.845 135.311,144.984 162.983 C 132.128 188.648,134.617 186.000,123.348 186.000 C 109.602 186.000,109.522 188.415,124.238 159.000 C 134.788 137.914,135.740 136.265,138.036 135.119 C 139.853 134.213,152.892 134.098,155.400 134.966 M360.258 139.198 C 360.400 139.747,360.850 140.917,361.259 141.798 C 361.667 142.679,361.885 142.951,361.742 142.402 C 361.600 141.853,361.150 140.683,360.741 139.802 C 360.333 138.921,360.115 138.649,360.258 139.198 M321.200 139.351 C 321.200 139.434,322.280 141.436,323.600 143.800 C 324.920 146.164,326.004 148.211,326.009 148.349 C 326.025 148.807,327.582 150.608,327.591 150.180 C 327.596 149.949,327.442 149.589,327.249 149.380 C 326.894 148.995,325.959 147.353,323.106 142.100 C 321.728 139.563,321.200 138.802,321.200 139.351 M71.773 141.875 C 71.162 143.154,70.593 144.335,70.508 144.500 C 70.423 144.665,70.435 144.800,70.536 144.800 C 70.839 144.800,73.272 139.939,73.070 139.737 C 72.967 139.634,72.384 140.596,71.773 141.875 M362.012 144.000 C 362.012 144.330,362.187 144.870,362.400 145.200 C 362.745 145.733,362.788 145.733,362.788 145.200 C 362.788 144.870,362.613 144.330,362.400 144.000 C 362.055 143.467,362.012 143.467,362.012 144.000 M267.248 144.416 C 262.868 145.317,262.798 145.649,262.808 165.531 C 262.817 183.282,262.971 184.567,265.223 185.681 C 266.793 186.457,320.086 186.787,321.505 186.029 C 321.887 185.825,322.538 185.552,322.950 185.423 C 324.388 184.970,323.464 181.947,320.008 175.800 C 319.266 174.480,318.138 172.414,317.503 171.209 C 316.867 170.004,316.201 168.834,316.023 168.609 C 315.845 168.384,315.020 166.940,314.190 165.400 C 313.360 163.860,312.278 161.880,311.787 161.000 C 311.296 160.120,309.689 157.240,308.215 154.600 C 301.939 143.356,303.902 144.219,284.400 144.128 C 275.930 144.088,268.212 144.217,267.248 144.416 M300.681 145.282 C 302.108 145.896,303.975 147.874,304.998 149.855 C 305.724 151.262,306.507 152.674,309.515 158.000 C 310.074 158.990,310.862 160.385,311.266 161.100 C 311.670 161.815,312.331 162.985,312.735 163.700 C 313.390 164.859,314.841 167.469,316.795 171.000 C 317.160 171.660,318.489 174.043,319.750 176.296 C 321.960 180.248,323.506 184.227,323.020 184.714 C 321.853 185.881,319.378 185.988,293.549 185.994 C 264.472 186.001,264.909 186.037,264.044 183.553 C 263.746 182.700,263.600 176.752,263.600 165.487 C 263.600 147.926,263.792 145.600,265.240 145.600 C 265.632 145.600,266.064 145.420,266.200 145.200 C 266.580 144.585,299.244 144.663,300.681 145.282 M68.973 147.475 C 68.362 148.754,67.793 149.935,67.708 150.100 C 67.623 150.265,67.635 150.400,67.736 150.400 C 68.039 150.400,70.472 145.539,70.270 145.337 C 70.167 145.234,69.584 146.196,68.973 147.475 M211.600 147.709 C 211.600 147.988,210.687 149.469,209.572 150.999 C 205.950 155.968,193.247 182.274,193.205 184.895 C 193.175 186.711,208.733 187.462,211.592 185.782 C 213.790 184.491,213.934 183.465,213.974 168.800 C 214.011 155.143,213.323 147.200,212.103 147.200 C 211.826 147.200,211.600 147.429,211.600 147.709 M213.480 167.400 C 213.657 182.628,213.432 184.511,211.312 185.500 C 209.980 186.122,196.177 186.211,195.800 185.600 C 195.664 185.380,195.207 185.200,194.784 185.200 C 193.885 185.200,194.035 182.362,195.047 180.239 C 195.351 179.600,195.600 178.850,195.600 178.572 C 195.600 178.294,195.742 178.007,195.916 177.933 C 196.264 177.787,198.400 173.392,198.400 172.822 C 198.400 172.627,198.536 172.407,198.702 172.333 C 199.068 172.172,204.800 160.647,204.800 160.073 C 204.800 159.849,204.935 159.607,205.100 159.533 C 205.265 159.460,205.932 158.320,206.582 157.000 C 207.704 154.722,209.533 151.633,210.016 151.200 C 210.138 151.090,210.676 150.374,211.212 149.609 L 212.185 148.217 212.753 151.009 C 213.155 152.983,213.368 157.782,213.480 167.400 M363.788 149.201 C 364.314 151.272,365.545 154.576,365.572 153.986 C 365.587 153.649,365.223 152.299,364.763 150.986 C 363.880 148.468,363.362 147.518,363.788 149.201 M66.198 153.112 C 65.561 154.370,64.975 155.535,64.896 155.700 C 64.817 155.865,64.851 156.000,64.971 156.000 C 65.258 156.000,67.696 151.162,67.505 150.971 C 67.423 150.890,66.835 151.853,66.198 153.112 M328.400 152.400 C 328.849 153.280,329.306 154.000,329.416 154.000 C 329.526 154.000,329.249 153.280,328.800 152.400 C 328.351 151.520,327.894 150.800,327.784 150.800 C 327.674 150.800,327.951 151.520,328.400 152.400 M330.656 156.489 C 331.285 157.748,331.941 158.783,332.113 158.789 C 332.448 158.801,330.598 155.267,329.920 154.600 C 329.696 154.380,330.027 155.230,330.656 156.489 M365.627 155.086 C 365.612 155.353,365.845 156.343,366.144 157.286 C 366.443 158.229,367.023 160.410,367.433 162.134 C 367.842 163.858,368.249 165.052,368.338 164.787 C 368.426 164.522,368.192 163.202,367.817 161.853 C 367.443 160.504,366.952 158.680,366.726 157.800 C 366.213 155.803,365.663 154.444,365.627 155.086 M62.967 159.468 C 62.581 160.310,62.195 161.135,62.109 161.300 C 62.023 161.465,62.050 161.600,62.168 161.600 C 62.497 161.600,64.083 158.350,63.862 158.129 C 63.756 158.022,63.353 158.625,62.967 159.468 M334.596 163.400 C 336.002 166.094,336.800 167.279,336.800 166.672 C 336.800 166.514,336.350 165.671,335.800 164.800 C 335.250 163.929,334.796 163.077,334.791 162.908 C 334.786 162.739,334.412 162.150,333.959 161.600 C 333.494 161.036,333.772 161.820,334.596 163.400 M60.167 165.068 C 59.781 165.910,59.395 166.735,59.309 166.900 C 59.223 167.065,59.250 167.200,59.368 167.200 C 59.697 167.200,61.283 163.950,61.062 163.729 C 60.956 163.622,60.553 164.225,60.167 165.068 M368.468 166.600 C 368.474 167.040,368.624 167.850,368.800 168.400 L 369.120 169.400 369.132 168.400 C 369.138 167.850,368.989 167.040,368.800 166.600 L 368.456 165.800 368.468 166.600 M337.079 167.862 C 337.219 168.227,337.922 169.503,338.642 170.698 C 344.614 180.616,344.369 178.794,344.386 213.320 C 344.402 246.973,344.631 245.127,340.343 245.970 C 339.008 246.232,338.881 246.313,339.800 246.316 C 341.858 246.323,342.958 245.814,343.896 244.424 L 344.800 243.082 344.800 213.360 C 344.800 179.312,344.962 181.018,341.088 174.200 C 340.588 173.320,339.494 171.385,338.655 169.900 C 337.189 167.303,336.545 166.470,337.079 167.862 M28.204 169.059 C 28.067 169.907,27.856 170.960,27.735 171.400 C 27.425 172.518,26.966 175.602,26.040 182.787 C 25.601 186.190,25.038 190.150,24.789 191.587 C 24.099 195.578,24.450 217.010,25.301 222.800 C 25.673 225.330,26.170 228.750,26.406 230.400 C 27.366 237.106,28.259 241.993,28.584 242.317 C 28.917 242.651,28.822 241.182,28.389 239.305 C 25.382 226.273,23.877 200.083,25.533 189.600 C 25.758 188.170,26.144 185.290,26.389 183.200 C 26.842 179.335,27.014 178.260,28.228 171.690 C 28.605 169.649,28.809 167.876,28.682 167.749 C 28.555 167.622,28.340 168.212,28.204 169.059 M57.395 170.708 C 56.541 172.408,55.777 173.935,55.697 174.100 C 55.618 174.265,55.637 174.400,55.740 174.400 C 56.017 174.400,59.288 167.955,59.105 167.771 C 59.019 167.686,58.250 169.007,57.395 170.708 M369.379 171.400 C 369.519 172.500,369.799 174.030,370.001 174.800 C 370.203 175.570,370.490 177.280,370.638 178.600 C 370.786 179.920,370.982 180.791,371.075 180.536 C 371.167 180.280,371.046 178.840,370.806 177.336 C 370.566 175.831,370.215 173.553,370.025 172.274 C 369.601 169.408,369.028 168.632,369.379 171.400 M54.567 176.268 C 54.181 177.110,53.795 177.935,53.709 178.100 C 53.623 178.265,53.650 178.400,53.768 178.400 C 54.097 178.400,55.683 175.150,55.462 174.929 C 55.356 174.822,54.953 175.425,54.567 176.268 M51.767 181.868 C 51.381 182.710,50.995 183.535,50.909 183.700 C 50.823 183.865,50.850 184.000,50.968 184.000 C 51.297 184.000,52.883 180.750,52.662 180.529 C 52.556 180.422,52.153 181.025,51.767 181.868 M371.358 184.400 C 371.484 185.170,371.770 186.868,371.993 188.173 C 372.666 192.103,372.511 217.519,371.784 222.380 C 371.445 224.647,371.256 226.590,371.364 226.698 C 371.578 226.912,371.706 226.357,372.365 222.354 C 373.459 215.701,372.709 184.567,371.423 183.292 C 371.261 183.131,371.232 183.630,371.358 184.400 M49.109 187.316 C 47.526 190.416,47.199 191.199,47.490 191.187 C 47.660 191.180,48.298 190.072,48.906 188.726 C 50.076 186.138,50.219 185.142,49.109 187.316 M45.798 193.912 C 45.161 195.170,44.575 196.335,44.496 196.500 C 44.417 196.665,44.451 196.800,44.571 196.800 C 44.858 196.800,47.296 191.962,47.105 191.771 C 47.023 191.690,46.435 192.653,45.798 193.912 M43.114 199.299 C 41.795 202.023,41.371 203.388,41.957 203.026 C 42.201 202.876,42.400 202.487,42.400 202.163 C 42.400 201.839,42.862 200.661,43.427 199.547 C 43.992 198.432,44.381 197.448,44.292 197.359 C 44.204 197.270,43.673 198.143,43.114 199.299 M41.328 206.000 C 41.328 207.430,41.401 208.015,41.489 207.300 C 41.578 206.585,41.578 205.415,41.489 204.700 C 41.401 203.985,41.328 204.570,41.328 206.000 M84.800 217.200 C 84.470 217.413,83.793 217.591,83.295 217.594 C 82.797 217.597,82.077 217.756,81.695 217.946 C 81.313 218.136,79.993 218.751,78.762 219.311 C 74.579 221.216,67.200 227.028,67.200 228.417 C 67.200 228.559,66.750 229.199,66.199 229.838 C 65.334 230.843,63.933 233.468,62.803 236.200 C 59.594 243.962,60.274 252.758,64.750 261.400 C 66.284 264.363,73.329 272.000,74.528 272.000 C 74.861 272.000,75.193 272.135,75.267 272.300 C 75.465 272.746,79.422 274.802,80.054 274.787 C 80.354 274.781,79.558 274.257,78.285 273.624 C 50.161 259.644,59.726 217.200,91.000 217.200 C 103.978 217.200,112.379 223.297,120.540 238.639 C 121.237 239.949,122.400 240.013,122.400 238.741 C 122.400 238.543,122.985 237.499,123.700 236.421 C 124.415 235.342,125.629 233.322,126.398 231.930 C 134.019 218.141,152.483 213.128,166.630 221.008 C 186.030 231.813,186.492 260.302,167.458 272.016 C 153.411 280.660,134.384 275.849,126.400 261.633 C 125.630 260.261,124.460 258.291,123.800 257.254 C 123.140 256.216,122.413 255.035,122.185 254.630 C 121.642 253.663,121.035 253.663,120.860 254.628 C 120.783 255.053,120.399 255.760,120.007 256.200 C 119.615 256.640,118.539 258.350,117.615 260.000 C 113.033 268.180,107.387 272.861,99.000 275.433 C 95.686 276.449,86.375 276.482,83.232 275.488 C 82.040 275.111,80.979 274.888,80.875 274.992 C 80.771 275.096,81.026 275.292,81.443 275.428 C 81.859 275.564,82.650 275.824,83.200 276.007 C 88.422 277.739,96.029 277.324,101.800 274.992 C 104.821 273.771,105.600 273.384,105.600 273.102 C 105.600 272.936,105.793 272.800,106.028 272.800 C 108.183 272.800,114.983 265.763,117.914 260.499 C 118.933 258.669,120.070 256.846,120.442 256.447 C 120.814 256.048,121.198 255.379,121.296 254.961 C 121.451 254.297,121.529 254.333,121.904 255.238 C 122.140 255.809,122.584 256.529,122.890 256.838 C 123.197 257.147,123.975 258.390,124.621 259.600 C 125.266 260.810,125.886 261.890,125.998 262.000 C 126.110 262.110,126.466 262.712,126.789 263.338 C 128.436 266.530,136.898 273.697,140.073 274.590 C 140.583 274.733,141.360 274.994,141.800 275.170 C 147.981 277.638,157.189 277.629,162.095 275.151 C 162.477 274.958,163.025 274.800,163.313 274.800 C 167.864 274.800,180.800 260.681,180.800 255.713 C 180.800 255.299,180.950 254.789,181.133 254.580 C 182.435 253.095,182.435 240.505,181.133 239.020 C 180.950 238.811,180.800 238.314,180.800 237.915 C 180.800 237.516,180.629 236.877,180.419 236.495 C 180.210 236.113,179.723 235.080,179.338 234.200 C 176.203 227.049,168.474 220.162,161.200 218.042 C 160.210 217.753,158.987 217.355,158.481 217.158 C 157.300 216.698,146.728 216.690,145.519 217.149 C 145.013 217.341,143.880 217.723,143.000 217.998 C 136.680 219.975,126.400 228.134,126.400 231.173 C 126.400 231.408,126.238 231.600,126.040 231.600 C 125.841 231.600,125.346 232.409,124.940 233.399 C 124.533 234.388,124.065 235.198,123.900 235.199 C 123.735 235.199,123.600 235.470,123.600 235.800 C 123.600 236.130,123.441 236.400,123.246 236.400 C 123.051 236.400,122.564 237.075,122.164 237.900 C 121.608 239.047,121.400 239.226,121.282 238.661 C 121.196 238.254,120.743 237.480,120.274 236.941 C 119.806 236.402,118.697 234.638,117.811 233.020 C 114.911 227.725,110.629 223.141,106.453 220.861 C 103.908 219.472,101.563 218.400,101.069 218.400 C 100.774 218.400,100.405 218.271,100.247 218.114 C 99.120 216.986,86.304 216.228,84.800 217.200 M286.930 217.355 C 286.012 217.603,285.127 217.940,284.964 218.103 C 284.800 218.266,284.450 218.400,284.184 218.400 C 279.890 218.400,269.746 227.516,267.048 233.800 C 266.670 234.680,266.190 235.713,265.981 236.095 C 265.771 236.477,265.600 237.064,265.600 237.400 C 265.600 237.736,265.441 238.323,265.247 238.705 C 264.489 240.199,264.000 243.371,264.000 246.800 C 264.000 250.229,264.489 253.401,265.247 254.895 C 265.441 255.277,265.600 255.828,265.600 256.120 C 265.600 256.412,266.050 257.583,266.600 258.723 C 267.150 259.863,267.600 260.977,267.600 261.198 C 267.600 261.419,267.736 261.600,267.902 261.600 C 268.069 261.600,268.428 262.104,268.701 262.720 C 270.338 266.419,280.507 274.851,283.254 274.787 C 283.554 274.781,282.810 274.281,281.600 273.678 C 264.309 265.059,259.188 243.189,270.999 228.400 C 284.102 211.993,309.200 213.838,319.854 231.993 C 322.242 236.063,324.000 242.227,324.000 246.534 C 324.000 259.672,315.093 271.479,302.200 275.433 C 298.886 276.449,289.575 276.482,286.432 275.488 C 285.240 275.111,284.179 274.888,284.075 274.992 C 283.971 275.096,284.181 275.275,284.543 275.391 C 284.904 275.506,285.515 275.710,285.900 275.845 C 289.481 277.101,294.610 277.409,298.800 276.619 C 302.833 275.858,303.457 275.678,305.911 274.561 C 307.072 274.032,308.117 273.600,308.233 273.600 C 310.724 273.600,319.203 264.584,321.587 259.400 C 324.558 252.938,325.440 240.507,323.094 238.160 C 322.932 237.999,322.800 237.616,322.800 237.309 C 322.800 235.514,318.429 228.371,315.625 225.583 C 313.633 223.603,310.600 221.200,310.092 221.200 C 309.858 221.200,309.607 221.058,309.533 220.884 C 309.362 220.479,304.946 218.400,304.256 218.400 C 303.968 218.400,303.605 218.271,303.447 218.114 C 302.231 216.898,290.603 216.364,286.930 217.355 M370.642 230.906 C 370.456 233.054,370.146 234.910,369.952 235.030 C 369.758 235.149,369.600 235.948,369.600 236.805 C 369.600 237.661,369.440 238.776,369.245 239.281 C 368.514 241.173,367.296 248.002,367.770 247.551 C 367.914 247.413,368.196 246.423,368.396 245.351 C 368.596 244.278,368.961 242.590,369.208 241.600 C 370.193 237.642,371.270 230.229,371.113 228.483 C 371.036 227.626,370.837 228.648,370.642 230.906 M87.883 236.592 C 76.433 240.957,78.965 257.230,91.087 257.191 C 96.285 257.174,99.811 254.433,101.363 249.201 C 103.568 241.772,95.091 233.843,87.883 236.592 M148.468 236.723 C 142.365 239.287,139.776 245.277,142.333 250.917 C 146.609 260.347,160.341 258.916,162.437 248.823 C 164.042 241.090,155.560 233.743,148.468 236.723 M291.083 236.613 C 279.606 240.825,282.161 257.230,294.287 257.191 C 306.066 257.153,308.822 240.958,297.755 236.817 C 295.247 235.879,293.249 235.818,291.083 236.613 M95.495 237.691 C 96.946 238.369,97.950 239.301,100.014 241.883 C 100.226 242.149,100.400 242.633,100.400 242.960 C 100.400 243.286,100.580 243.664,100.800 243.800 C 101.020 243.936,101.200 245.119,101.200 246.428 C 101.200 255.650,90.524 260.267,83.912 253.906 C 79.873 250.020,80.371 241.552,84.793 238.941 C 85.457 238.548,86.000 238.115,86.000 237.978 C 86.000 237.742,88.047 237.025,89.800 236.648 C 91.099 236.368,93.677 236.840,95.495 237.691 M156.394 237.696 C 162.105 240.854,163.792 246.858,160.467 252.191 C 154.937 261.060,141.191 256.362,142.079 245.907 C 142.681 238.814,150.403 234.385,156.394 237.696 M298.174 237.415 C 300.554 238.410,303.156 241.327,303.908 243.846 C 307.168 254.758,292.143 261.912,285.871 252.435 C 282.970 248.051,284.541 239.525,288.438 238.506 C 288.857 238.396,289.200 238.176,289.200 238.017 C 289.200 237.858,289.965 237.497,290.900 237.215 C 291.835 236.934,292.780 236.642,293.000 236.568 C 293.703 236.330,296.785 236.835,298.174 237.415 M29.019 244.769 C 29.144 245.962,29.416 247.255,29.623 247.643 C 29.830 248.030,30.000 248.722,30.000 249.179 C 30.000 249.637,30.169 250.323,30.376 250.705 C 30.583 251.087,30.861 251.916,30.995 252.547 C 31.129 253.178,31.322 253.611,31.424 253.509 C 31.526 253.407,30.975 250.911,30.201 247.962 C 29.216 244.215,28.860 243.253,29.019 244.769 M366.985 249.100 C 366.858 249.705,366.421 251.370,366.013 252.800 C 365.606 254.230,364.968 256.480,364.596 257.800 C 364.224 259.120,363.769 260.560,363.585 261.000 C 363.400 261.440,362.780 263.240,362.207 265.000 C 361.633 266.760,361.011 268.560,360.823 269.000 C 360.635 269.440,360.207 270.430,359.872 271.200 C 359.536 271.970,359.024 273.365,358.734 274.300 C 358.443 275.235,358.069 276.000,357.903 276.000 C 357.736 276.000,357.600 276.208,357.600 276.461 C 357.600 277.230,352.500 287.774,349.954 292.268 C 349.477 293.111,348.634 294.610,348.080 295.600 C 347.527 296.590,346.477 298.290,345.748 299.378 C 345.019 300.466,344.509 301.443,344.615 301.549 C 344.849 301.782,345.747 300.631,346.604 299.000 C 346.950 298.340,347.564 297.260,347.967 296.600 C 351.518 290.793,358.172 277.353,359.652 273.000 C 359.951 272.120,360.288 271.310,360.401 271.200 C 360.802 270.808,364.818 258.830,366.101 254.200 C 366.345 253.320,366.667 252.420,366.817 252.200 C 367.146 251.717,367.662 248.000,367.400 248.000 C 367.298 248.000,367.111 248.495,366.985 249.100 M31.629 254.454 C 31.596 255.203,32.695 259.058,33.237 260.095 C 33.437 260.477,33.600 261.141,33.600 261.571 C 33.600 262.001,33.780 262.464,34.000 262.600 C 34.546 262.937,34.507 262.507,33.801 260.400 C 33.469 259.410,32.851 257.520,32.427 256.200 C 32.004 254.880,31.644 254.094,31.629 254.454 M34.400 263.525 C 34.400 263.934,35.081 265.929,35.997 268.200 C 36.174 268.640,36.543 269.630,36.815 270.400 C 37.088 271.170,37.755 272.790,38.298 274.000 C 38.840 275.210,39.424 276.560,39.596 277.000 C 40.120 278.345,46.934 292.186,47.177 292.400 C 47.302 292.510,47.936 293.635,48.587 294.900 C 49.237 296.165,49.911 297.200,50.084 297.200 C 50.258 297.200,50.400 297.383,50.400 297.606 C 50.400 298.099,56.056 306.945,56.491 307.133 C 56.661 307.207,56.800 307.490,56.800 307.764 C 56.800 308.037,57.250 308.683,57.800 309.200 C 58.350 309.717,58.800 310.363,58.800 310.636 C 58.800 310.910,58.935 311.193,59.100 311.267 C 59.265 311.340,60.474 312.822,61.788 314.559 C 63.101 316.296,64.364 317.916,64.596 318.159 C 64.828 318.402,65.373 319.062,65.809 319.626 C 68.766 323.458,81.425 336.603,84.429 338.962 C 84.963 339.381,86.128 340.371,87.017 341.162 C 89.408 343.288,92.420 345.748,93.155 346.175 C 93.510 346.381,94.340 347.055,95.000 347.673 C 95.660 348.291,96.322 348.797,96.471 348.798 C 96.621 348.799,96.981 349.030,97.271 349.312 C 98.190 350.201,103.221 353.600,103.619 353.600 C 103.829 353.600,104.000 353.741,104.000 353.914 C 104.000 354.086,104.585 354.568,105.300 354.984 C 106.015 355.399,106.690 355.843,106.800 355.970 C 107.017 356.220,108.305 356.978,110.200 357.971 C 110.860 358.317,111.490 358.690,111.600 358.800 C 111.710 358.910,112.160 359.196,112.600 359.436 C 113.040 359.676,114.300 360.380,115.400 361.001 C 116.500 361.622,118.570 362.747,120.000 363.501 C 121.430 364.255,122.780 365.006,123.000 365.170 C 123.220 365.335,124.660 365.986,126.200 366.618 C 127.740 367.250,129.590 368.090,130.312 368.484 C 131.034 368.878,131.817 369.200,132.052 369.200 C 132.287 369.200,133.046 369.449,133.740 369.753 C 137.894 371.578,138.809 371.946,140.800 372.593 C 142.010 372.987,143.360 373.447,143.800 373.614 C 145.366 374.211,147.033 374.745,149.400 375.408 C 150.720 375.778,152.160 376.228,152.600 376.410 C 153.040 376.591,153.850 376.833,154.400 376.947 C 154.950 377.061,156.570 377.435,158.000 377.778 C 164.344 379.301,163.931 379.214,170.200 380.358 C 171.520 380.598,173.337 380.796,174.237 380.798 C 175.138 380.799,176.921 381.160,178.200 381.600 C 181.401 382.701,213.511 382.831,218.200 381.761 C 219.740 381.410,222.440 380.966,224.200 380.774 C 225.960 380.581,228.120 380.247,229.000 380.031 C 230.672 379.621,232.372 379.305,234.903 378.935 C 235.729 378.814,236.505 378.555,236.626 378.358 C 236.748 378.161,237.422 377.997,238.124 377.994 C 238.826 377.991,239.670 377.813,240.000 377.600 C 240.919 377.006,239.827 377.080,237.065 377.800 C 235.798 378.130,234.356 378.400,233.860 378.400 C 233.365 378.400,232.789 378.562,232.580 378.759 C 232.371 378.956,231.480 379.222,230.600 379.348 C 229.720 379.475,227.110 379.845,224.800 380.171 C 222.490 380.497,219.520 380.991,218.200 381.270 C 214.172 382.119,182.665 381.997,178.800 381.117 C 177.150 380.742,174.360 380.255,172.600 380.036 C 168.419 379.515,166.357 379.127,160.800 377.813 C 158.270 377.215,155.613 376.633,154.896 376.519 C 154.179 376.405,153.494 376.151,153.373 375.956 C 153.252 375.760,152.848 375.601,152.476 375.602 C 151.830 375.603,145.876 373.880,144.200 373.206 C 143.760 373.029,142.500 372.582,141.400 372.211 C 139.441 371.552,138.822 371.322,136.800 370.501 C 136.250 370.278,134.990 369.780,134.000 369.393 C 130.535 368.041,120.309 363.129,116.200 360.844 C 111.317 358.128,109.911 357.279,105.200 354.201 C 76.269 335.301,53.115 307.620,39.619 275.800 C 38.686 273.600,37.761 271.440,37.562 271.000 C 37.364 270.560,36.660 268.684,35.998 266.830 C 34.801 263.479,34.400 262.650,34.400 263.525 M342.476 304.429 C 341.554 305.765,340.800 307.025,340.800 307.229 C 340.800 307.433,340.659 307.600,340.486 307.600 C 340.314 307.600,339.854 308.140,339.464 308.800 C 339.074 309.460,338.900 310.000,339.079 310.000 C 339.355 310.000,340.279 308.698,342.897 304.617 C 343.174 304.186,343.625 303.588,343.900 303.288 C 344.352 302.795,344.585 302.000,344.276 302.000 C 344.208 302.000,343.398 303.093,342.476 304.429 M337.000 312.208 C 336.340 313.193,335.665 313.999,335.500 313.999 C 335.335 314.000,335.200 314.182,335.200 314.404 C 335.200 314.626,334.660 315.372,334.000 316.063 C 333.340 316.754,332.800 317.464,332.800 317.641 C 332.800 317.819,332.395 318.379,331.900 318.886 C 331.405 319.393,330.023 320.976,328.828 322.404 C 326.201 325.544,314.015 337.691,311.328 339.849 C 310.267 340.700,309.130 341.669,308.800 342.003 C 308.470 342.336,307.480 343.144,306.600 343.798 C 304.722 345.193,303.945 345.810,302.190 347.300 C 301.477 347.905,300.693 348.400,300.447 348.400 C 300.201 348.400,300.000 348.542,300.000 348.715 C 300.000 348.889,298.785 349.824,297.300 350.794 C 295.815 351.764,294.540 352.702,294.467 352.879 C 294.393 353.056,294.093 353.200,293.800 353.200 C 293.507 353.200,293.207 353.335,293.133 353.500 C 292.949 353.915,289.703 356.000,289.242 356.000 C 289.036 356.000,288.807 356.153,288.733 356.339 C 288.660 356.526,287.790 357.134,286.800 357.690 C 285.810 358.246,283.858 359.354,282.462 360.151 C 281.065 360.948,279.760 361.600,279.562 361.600 C 279.363 361.600,279.200 361.785,279.200 362.010 C 279.200 362.538,282.358 360.893,288.200 357.321 C 288.640 357.051,289.270 356.702,289.600 356.545 C 289.930 356.387,290.290 356.155,290.400 356.029 C 290.510 355.903,292.940 354.233,295.800 352.317 C 309.577 343.089,322.952 330.661,334.000 316.819 C 338.356 311.360,339.038 310.395,338.524 310.409 C 338.346 310.414,337.660 311.223,337.000 312.208 M277.451 362.718 C 277.342 362.893,276.063 363.635,274.608 364.366 C 273.153 365.097,272.049 365.783,272.156 365.889 C 272.361 366.094,273.325 365.643,276.600 363.810 C 279.041 362.444,279.093 362.400,278.290 362.400 C 277.937 362.400,277.559 362.543,277.451 362.718 M268.200 367.394 C 265.405 368.763,264.864 369.336,267.440 368.200 C 268.188 367.870,269.430 367.322,270.200 366.981 C 271.513 366.401,271.984 365.986,271.300 366.011 C 271.135 366.017,269.740 366.640,268.200 367.394 M263.200 369.480 C 261.375 370.300,260.781 370.530,257.200 371.800 C 255.550 372.385,253.840 373.011,253.400 373.190 C 252.960 373.369,250.980 373.994,249.000 374.578 C 247.020 375.163,244.987 375.812,244.481 376.020 C 243.976 376.229,243.166 376.403,242.681 376.406 C 242.197 376.409,241.530 376.603,241.200 376.836 C 240.162 377.569,244.333 376.732,247.400 375.592 C 247.840 375.428,249.730 374.812,251.600 374.224 C 257.583 372.340,265.200 369.404,265.200 368.981 C 265.200 368.685,264.682 368.814,263.200 369.480 " stroke="none" fill="#5ea777" fill-rule="evenodd"></path><path id="path4" d="M188.600 27.643 C 173.927 28.985,165.353 30.426,154.000 33.458 C 143.458 36.273,132.256 40.652,121.368 46.213 C 115.793 49.060,106.194 54.549,105.600 55.229 C 105.490 55.355,104.087 56.301,102.481 57.333 C 87.429 67.003,69.963 84.181,57.710 101.366 C 55.191 104.899,50.116 112.809,48.972 114.985 C 48.736 115.433,47.939 116.880,47.200 118.200 C 45.293 121.607,41.485 129.335,40.204 132.400 C 39.606 133.830,38.797 135.720,38.406 136.600 C 38.015 137.480,37.564 138.650,37.403 139.200 C 37.242 139.750,36.872 140.740,36.581 141.400 C 34.137 146.929,29.719 162.855,28.201 171.600 C 27.839 173.690,27.383 176.300,27.188 177.400 C 26.994 178.500,26.634 181.110,26.389 183.200 C 26.144 185.290,25.759 188.170,25.534 189.600 C 24.105 198.663,24.945 220.179,27.212 232.600 C 27.412 233.700,27.962 236.760,28.433 239.400 C 30.108 248.778,34.680 264.605,37.562 271.000 C 37.761 271.440,38.686 273.600,39.619 275.800 C 53.115 307.620,76.269 335.301,105.200 354.201 C 111.620 358.395,115.555 360.648,122.200 363.934 C 128.970 367.282,132.479 368.856,136.600 370.394 C 137.040 370.559,137.850 370.883,138.400 371.115 C 138.950 371.348,140.300 371.841,141.400 372.211 C 142.500 372.582,143.760 373.029,144.200 373.206 C 145.876 373.880,151.830 375.603,152.476 375.602 C 152.848 375.601,153.252 375.760,153.373 375.956 C 153.494 376.151,154.179 376.405,154.896 376.519 C 155.613 376.633,158.270 377.215,160.800 377.813 C 166.357 379.127,168.419 379.515,172.600 380.036 C 174.360 380.255,177.150 380.742,178.800 381.117 C 182.665 381.997,214.172 382.119,218.200 381.270 C 219.520 380.991,222.490 380.497,224.800 380.171 C 227.110 379.845,229.720 379.475,230.600 379.348 C 231.480 379.222,232.371 378.956,232.580 378.759 C 232.789 378.562,233.359 378.400,233.848 378.400 C 235.129 378.400,240.239 377.158,246.200 375.396 C 251.714 373.767,252.537 373.514,253.400 373.177 C 253.840 373.005,255.550 372.385,257.200 371.800 C 258.850 371.215,260.560 370.589,261.000 370.409 C 261.440 370.230,262.790 369.686,264.000 369.200 C 268.236 367.502,274.367 364.612,276.492 363.312 C 277.313 362.811,278.258 362.400,278.592 362.400 C 278.926 362.400,279.200 362.220,279.200 362.000 C 279.200 361.780,279.363 361.600,279.562 361.600 C 279.760 361.600,281.065 360.948,282.462 360.151 C 283.858 359.354,285.810 358.246,286.800 357.690 C 287.790 357.134,288.660 356.526,288.733 356.339 C 288.807 356.153,289.036 356.000,289.242 356.000 C 289.703 356.000,292.949 353.915,293.133 353.500 C 293.207 353.335,293.507 353.200,293.800 353.200 C 294.093 353.200,294.393 353.056,294.467 352.879 C 294.540 352.702,295.815 351.764,297.300 350.794 C 298.785 349.824,300.000 348.889,300.000 348.715 C 300.000 348.542,300.201 348.400,300.447 348.400 C 300.693 348.400,301.477 347.905,302.190 347.300 C 303.945 345.810,304.722 345.193,306.600 343.798 C 307.480 343.144,308.470 342.336,308.800 342.003 C 309.130 341.669,310.267 340.700,311.328 339.849 C 314.015 337.691,326.201 325.544,328.828 322.404 C 330.023 320.976,331.405 319.393,331.900 318.886 C 332.395 318.379,332.800 317.819,332.800 317.641 C 332.800 317.464,333.340 316.754,334.000 316.063 C 334.660 315.372,335.200 314.626,335.200 314.404 C 335.200 314.182,335.335 313.999,335.500 313.997 C 335.665 313.996,336.226 313.370,336.746 312.606 C 337.266 311.842,338.031 310.825,338.446 310.347 C 338.861 309.869,339.200 309.359,339.200 309.214 C 339.200 309.069,339.533 308.594,339.939 308.157 C 340.346 307.721,340.752 307.192,340.841 306.982 C 340.930 306.772,342.367 304.530,344.033 302.000 C 345.700 299.470,347.519 296.590,348.075 295.600 C 348.632 294.610,349.477 293.111,349.954 292.268 C 352.500 287.774,357.600 277.230,357.600 276.461 C 357.600 276.208,357.736 276.000,357.903 276.000 C 358.069 276.000,358.443 275.235,358.734 274.300 C 359.024 273.365,359.536 271.970,359.872 271.200 C 360.207 270.430,360.635 269.440,360.823 269.000 C 361.011 268.560,361.633 266.760,362.207 265.000 C 362.780 263.240,363.400 261.440,363.585 261.000 C 363.769 260.560,364.224 259.120,364.596 257.800 C 364.968 256.480,365.626 254.140,366.059 252.600 C 366.491 251.060,367.007 249.260,367.205 248.600 C 367.402 247.940,367.752 246.320,367.981 245.000 C 368.209 243.680,368.592 241.790,368.831 240.800 C 369.070 239.810,369.351 238.280,369.455 237.400 C 369.560 236.520,369.799 235.440,369.986 235.000 C 370.173 234.560,370.527 232.310,370.773 230.000 C 371.019 227.690,371.480 224.180,371.796 222.200 C 372.598 217.186,372.631 192.321,371.843 187.096 C 371.536 185.063,371.074 181.780,370.816 179.800 C 370.558 177.820,370.196 175.570,370.013 174.800 C 369.829 174.030,369.376 171.690,369.004 169.600 C 367.071 158.714,362.606 144.425,357.380 132.400 C 355.620 128.352,349.888 117.015,349.525 116.867 C 349.346 116.793,349.200 116.582,349.200 116.397 C 349.200 116.212,348.290 114.562,347.177 112.731 C 346.064 110.899,344.939 109.044,344.677 108.610 C 343.408 106.507,336.924 97.201,335.334 95.200 C 326.242 83.760,315.655 72.986,306.053 65.400 C 304.661 64.300,302.846 62.860,302.020 62.200 C 299.765 60.397,288.585 52.800,288.188 52.800 C 288.076 52.800,287.233 52.326,286.316 51.747 C 281.389 48.637,269.310 42.605,263.200 40.204 C 261.110 39.382,259.040 38.561,258.600 38.378 C 257.667 37.990,249.957 35.357,248.200 34.826 C 238.628 31.933,225.247 29.279,215.600 28.362 C 203.357 27.198,195.700 26.994,188.600 27.643 M255.463 106.244 C 258.944 109.062,257.074 113.993,252.524 113.999 C 251.822 113.999,251.151 114.156,251.033 114.347 C 250.915 114.538,250.021 114.784,249.045 114.894 C 243.765 115.489,235.999 121.934,234.610 126.874 C 234.467 127.383,234.205 128.160,234.028 128.600 C 232.890 131.434,232.799 134.084,232.778 165.306 C 232.753 201.128,232.899 199.212,229.946 202.348 C 226.784 205.706,234.807 205.374,151.200 205.608 C 89.234 205.781,76.769 205.907,75.600 206.370 C 71.638 207.940,68.948 209.464,66.742 211.388 C 65.398 212.560,63.827 213.762,63.249 214.059 C 62.672 214.356,62.110 214.692,62.000 214.806 C 59.306 217.598,46.395 215.930,43.624 212.431 C 39.032 206.632,37.988 209.583,60.857 163.706 C 83.675 117.929,82.870 119.202,90.833 116.327 L 93.400 115.400 142.200 115.196 C 198.346 114.961,191.863 115.475,202.188 110.433 C 208.356 107.421,210.479 106.435,212.200 105.782 C 213.979 105.107,220.223 104.894,236.663 104.946 L 253.927 105.000 255.463 106.244 M302.331 125.392 C 309.805 125.692,316.106 129.690,319.992 136.600 C 320.735 137.920,322.096 140.350,323.017 142.000 C 323.939 143.650,325.100 145.720,325.598 146.600 C 326.095 147.480,327.228 149.550,328.115 151.200 C 329.002 152.850,330.059 154.678,330.464 155.262 C 330.869 155.846,331.200 156.413,331.200 156.523 C 331.200 156.699,331.872 157.913,334.835 163.088 C 335.241 163.796,336.235 165.596,337.044 167.088 C 337.854 168.579,338.646 169.980,338.805 170.200 C 339.228 170.786,341.611 175.110,342.685 177.242 C 344.806 181.450,344.800 181.349,344.800 213.360 L 344.800 243.082 343.900 244.413 C 342.328 246.740,337.492 247.027,336.083 244.878 C 335.223 243.565,334.414 241.269,334.406 240.120 C 334.396 238.696,333.304 234.726,332.007 231.400 C 331.685 230.573,329.830 226.811,329.046 225.394 C 320.611 210.153,299.112 202.260,281.596 207.974 C 278.716 208.913,273.075 211.562,272.867 212.073 C 272.793 212.253,272.556 212.400,272.340 212.400 C 267.946 212.400,254.800 230.832,254.800 236.991 C 254.800 237.458,254.638 238.011,254.441 238.220 C 253.586 239.125,252.953 248.264,253.558 250.967 C 254.114 253.453,253.439 255.249,251.587 256.207 C 249.921 257.068,196.542 257.101,194.879 256.241 C 192.478 254.999,192.285 254.457,192.565 249.719 C 192.882 244.356,191.834 235.316,190.769 234.220 C 190.566 234.011,190.400 233.514,190.400 233.115 C 190.400 232.716,190.243 232.077,190.050 231.695 C 189.858 231.313,189.350 230.280,188.921 229.400 C 187.602 226.690,186.139 224.195,184.670 222.150 C 180.653 216.559,179.102 216.865,212.209 216.706 C 243.353 216.556,242.475 216.632,243.204 214.010 C 243.447 213.135,243.596 197.998,243.598 174.120 C 243.600 135.928,243.689 133.053,244.940 130.656 C 246.313 128.025,248.563 126.213,251.410 125.445 C 253.354 124.921,289.633 124.884,302.331 125.392 M96.153 135.012 C 94.028 135.944,93.307 137.211,82.142 159.613 C 70.956 182.059,69.660 185.200,71.584 185.200 C 72.007 185.200,72.464 185.380,72.600 185.600 C 73.170 186.523,89.145 186.092,90.538 185.116 C 92.420 183.799,92.203 184.191,103.612 161.400 C 116.641 135.371,116.405 136.011,113.400 134.968 C 111.181 134.197,97.933 134.232,96.153 135.012 M138.036 135.119 C 135.740 136.265,134.788 137.914,124.238 159.000 C 109.522 188.415,109.602 186.000,123.348 186.000 C 134.617 186.000,132.128 188.648,144.984 162.983 C 158.845 135.311,158.566 136.062,155.400 134.966 C 152.892 134.098,139.853 134.213,138.036 135.119 M178.802 135.000 C 178.033 135.277,176.920 136.110,176.329 136.852 C 175.245 138.210,158.400 171.587,158.400 172.376 C 158.400 172.609,158.264 172.800,158.098 172.800 C 157.931 172.800,157.542 173.385,157.233 174.100 C 156.924 174.815,156.002 176.840,155.185 178.600 C 151.881 185.716,152.216 186.000,163.932 186.000 C 174.999 186.000,172.356 188.952,186.392 160.911 C 198.645 136.433,198.789 136.036,195.800 134.978 C 193.706 134.237,180.872 134.253,178.802 135.000 M266.200 145.200 C 266.064 145.420,265.632 145.600,265.240 145.600 C 263.792 145.600,263.600 147.926,263.600 165.487 C 263.600 176.752,263.746 182.700,264.044 183.553 C 264.909 186.037,264.472 186.001,293.549 185.994 C 319.378 185.988,321.853 185.881,323.020 184.714 C 323.506 184.227,321.960 180.248,319.750 176.296 C 318.489 174.043,317.160 171.660,316.795 171.000 C 314.841 167.469,313.390 164.859,312.735 163.700 C 312.331 162.985,311.670 161.815,311.266 161.100 C 310.862 160.385,310.074 158.990,309.515 158.000 C 306.507 152.674,305.724 151.262,304.998 149.855 C 303.975 147.874,302.108 145.896,300.681 145.282 C 299.244 144.663,266.580 144.585,266.200 145.200 M211.212 149.609 C 210.676 150.374,210.138 151.090,210.016 151.200 C 209.533 151.633,207.704 154.722,206.582 157.000 C 205.932 158.320,205.265 159.460,205.100 159.533 C 204.935 159.607,204.800 159.849,204.800 160.073 C 204.800 160.647,199.068 172.172,198.702 172.333 C 198.536 172.407,198.400 172.627,198.400 172.822 C 198.400 173.392,196.264 177.787,195.916 177.933 C 195.742 178.007,195.600 178.294,195.600 178.572 C 195.600 178.850,195.351 179.600,195.047 180.239 C 194.035 182.362,193.885 185.200,194.784 185.200 C 195.207 185.200,195.664 185.380,195.800 185.600 C 196.177 186.211,209.980 186.122,211.312 185.500 C 213.432 184.511,213.657 182.628,213.480 167.400 C 213.368 157.782,213.155 152.983,212.753 151.009 L 212.185 148.217 211.212 149.609 M98.081 217.332 C 99.115 217.605,100.090 217.957,100.247 218.114 C 100.405 218.271,100.774 218.400,101.069 218.400 C 101.563 218.400,103.908 219.472,106.453 220.861 C 110.629 223.141,114.911 227.725,117.811 233.020 C 118.697 234.638,119.806 236.402,120.274 236.941 C 120.743 237.480,121.196 238.254,121.282 238.661 C 121.400 239.226,121.608 239.047,122.164 237.900 C 122.564 237.075,123.051 236.400,123.246 236.400 C 123.441 236.400,123.600 236.130,123.600 235.800 C 123.600 235.470,123.735 235.199,123.900 235.199 C 124.065 235.198,124.533 234.388,124.940 233.399 C 125.346 232.409,125.841 231.600,126.040 231.600 C 126.238 231.600,126.400 231.408,126.400 231.173 C 126.400 228.134,136.680 219.975,143.000 217.998 C 143.880 217.723,145.013 217.341,145.519 217.149 C 146.728 216.690,157.300 216.698,158.481 217.158 C 158.987 217.355,160.210 217.753,161.200 218.042 C 168.474 220.162,176.203 227.049,179.338 234.200 C 179.723 235.080,180.210 236.113,180.419 236.495 C 180.629 236.877,180.800 237.516,180.800 237.915 C 180.800 238.314,180.950 238.811,181.133 239.020 C 182.435 240.505,182.435 253.095,181.133 254.580 C 180.950 254.789,180.800 255.299,180.800 255.713 C 180.800 260.681,167.864 274.800,163.313 274.800 C 163.025 274.800,162.477 274.958,162.095 275.151 C 157.189 277.629,147.981 277.638,141.800 275.170 C 141.360 274.994,140.583 274.733,140.073 274.590 C 136.898 273.697,128.436 266.530,126.789 263.338 C 126.466 262.712,126.110 262.110,125.998 262.000 C 125.886 261.890,125.266 260.810,124.621 259.600 C 123.975 258.390,123.197 257.147,122.890 256.838 C 122.584 256.529,122.140 255.809,121.904 255.238 C 121.529 254.333,121.451 254.297,121.296 254.961 C 121.198 255.379,120.814 256.048,120.442 256.447 C 120.070 256.846,118.933 258.669,117.914 260.499 C 114.983 265.763,108.183 272.800,106.028 272.800 C 105.793 272.800,105.600 272.936,105.600 273.102 C 105.600 273.384,104.821 273.771,101.800 274.992 C 93.870 278.197,86.403 277.816,77.707 273.762 C 76.335 273.123,75.210 272.465,75.207 272.300 C 75.203 272.135,74.912 272.000,74.561 272.000 C 73.336 272.000,66.306 264.405,64.750 261.400 C 60.274 252.758,59.594 243.962,62.803 236.200 C 63.933 233.468,65.334 230.843,66.199 229.838 C 66.750 229.199,67.200 228.559,67.200 228.417 C 67.200 227.028,74.579 221.216,78.762 219.311 C 79.993 218.751,81.313 218.136,81.695 217.946 C 82.077 217.756,82.797 217.597,83.295 217.594 C 83.793 217.591,84.470 217.413,84.800 217.200 C 85.663 216.642,95.851 216.743,98.081 217.332 M301.281 217.332 C 302.315 217.605,303.290 217.957,303.447 218.114 C 303.605 218.271,303.968 218.400,304.256 218.400 C 304.946 218.400,309.362 220.479,309.533 220.884 C 309.607 221.058,309.858 221.200,310.092 221.200 C 310.600 221.200,313.633 223.603,315.625 225.583 C 318.429 228.371,322.800 235.514,322.800 237.309 C 322.800 237.616,322.932 237.999,323.094 238.160 C 325.440 240.507,324.558 252.938,321.587 259.400 C 319.203 264.584,310.724 273.600,308.233 273.600 C 308.117 273.600,307.072 274.032,305.911 274.561 C 299.822 277.332,291.579 277.844,285.800 275.809 C 283.841 275.119,283.261 274.875,281.000 273.788 C 276.526 271.636,270.079 265.835,268.701 262.720 C 268.428 262.104,268.069 261.600,267.902 261.600 C 267.736 261.600,267.600 261.419,267.600 261.198 C 267.600 260.977,267.150 259.863,266.600 258.723 C 266.050 257.583,265.600 256.412,265.600 256.120 C 265.600 255.828,265.441 255.277,265.247 254.895 C 264.489 253.401,264.000 250.229,264.000 246.800 C 264.000 243.371,264.489 240.199,265.247 238.705 C 265.441 238.323,265.600 237.736,265.600 237.400 C 265.600 237.064,265.771 236.477,265.981 236.095 C 266.190 235.713,266.670 234.680,267.048 233.800 C 269.746 227.516,279.890 218.400,284.184 218.400 C 284.450 218.400,284.800 218.266,284.964 218.103 C 286.161 216.905,297.614 216.364,301.281 217.332 M89.800 236.648 C 88.047 237.025,86.000 237.742,86.000 237.978 C 86.000 238.115,85.457 238.548,84.793 238.941 C 80.371 241.552,79.873 250.020,83.912 253.906 C 90.524 260.267,101.200 255.650,101.200 246.428 C 101.200 245.119,101.020 243.936,100.800 243.800 C 100.580 243.664,100.400 243.286,100.400 242.960 C 100.400 242.337,100.359 242.275,98.409 239.942 C 96.542 237.707,92.343 236.101,89.800 236.648 M150.200 236.768 C 138.013 239.760,140.120 257.539,152.563 256.708 C 157.572 256.373,160.575 253.815,161.987 248.680 C 163.705 242.433,156.556 235.208,150.200 236.768 M293.000 236.568 C 292.780 236.642,291.835 236.934,290.900 237.215 C 289.965 237.497,289.200 237.858,289.200 238.017 C 289.200 238.176,288.857 238.396,288.438 238.506 C 284.541 239.525,282.970 248.051,285.871 252.435 C 292.143 261.912,307.168 254.758,303.908 243.846 C 302.619 239.530,296.437 235.405,293.000 236.568 " stroke="none" fill="#74d47c" fill-rule="evenodd"></path></g></svg>