<svg id="svg" version="1.1" width="400" height="553.9543057996485" viewBox="0 0 400 553.9543057996485" xmlns="http://www.w3.org/2000/svg" xmlns:xlink="http://www.w3.org/1999/xlink" ><g id="svgg"><path id="path0" d="M188.600 27.059 C 186.400 27.368,182.620 27.777,180.200 27.967 C 174.673 28.401,166.850 29.663,164.881 30.438 C 164.376 30.637,163.488 30.800,162.907 30.800 C 162.327 30.800,160.761 31.082,159.426 31.426 C 158.092 31.770,156.280 32.237,155.400 32.465 C 154.520 32.692,153.487 33.040,153.105 33.239 C 152.723 33.438,152.127 33.600,151.781 33.600 C 150.708 33.600,146.241 35.062,144.305 36.047 C 143.923 36.241,143.387 36.400,143.114 36.400 C 142.536 36.400,137.771 38.132,135.304 39.239 C 134.372 39.658,133.499 40.000,133.365 40.000 C 133.088 40.000,131.490 40.699,127.305 42.650 C 125.713 43.393,124.228 44.000,124.005 44.000 C 123.782 44.000,123.600 44.180,123.600 44.400 C 123.600 44.620,123.357 44.800,123.060 44.800 C 122.532 44.800,121.067 45.528,117.000 47.810 C 113.081 50.008,112.185 50.523,111.000 51.253 C 110.340 51.660,109.530 52.120,109.200 52.275 C 108.505 52.601,99.099 58.866,98.800 59.202 C 98.690 59.325,97.610 60.135,96.400 61.000 C 95.190 61.865,94.110 62.685,94.000 62.821 C 93.890 62.957,93.510 63.233,93.155 63.434 C 92.429 63.846,89.453 66.272,87.017 68.438 C 86.128 69.229,84.963 70.219,84.428 70.638 C 82.597 72.073,71.394 83.398,68.796 86.439 C 64.994 90.890,64.701 91.246,63.396 93.000 C 62.741 93.880,62.104 94.690,61.981 94.800 C 61.858 94.910,61.228 95.720,60.581 96.600 C 59.934 97.480,59.313 98.290,59.200 98.400 C 58.504 99.081,56.800 101.617,56.800 101.973 C 56.800 102.208,56.648 102.400,56.463 102.400 C 56.278 102.400,55.787 103.030,55.372 103.800 C 54.957 104.570,54.479 105.200,54.309 105.200 C 54.139 105.200,54.000 105.442,54.000 105.738 C 54.000 106.034,53.640 106.602,53.200 107.000 C 52.760 107.398,52.400 107.878,52.400 108.066 C 52.400 108.255,51.513 109.824,50.429 111.554 C 47.466 116.282,41.723 127.182,40.560 130.284 C 40.166 131.338,39.549 132.740,39.190 133.400 C 38.831 134.060,38.042 135.950,37.436 137.600 C 36.831 139.250,36.170 141.005,35.968 141.500 C 35.766 141.995,35.435 142.805,35.234 143.300 C 35.033 143.795,34.558 145.190,34.179 146.400 C 33.801 147.610,33.360 148.960,33.201 149.400 C 32.713 150.746,32.092 152.875,31.392 155.600 C 31.025 157.030,30.575 158.560,30.393 159.000 C 30.210 159.440,29.973 160.250,29.867 160.800 C 29.761 161.350,29.373 163.150,29.004 164.800 C 27.771 170.319,27.642 171.052,26.268 180.400 C 25.928 182.710,25.427 186.040,25.154 187.800 C 24.493 192.057,24.195 216.308,24.771 219.000 C 25.006 220.100,25.383 222.710,25.609 224.800 C 25.986 228.298,26.187 229.731,27.183 236.000 C 27.375 237.210,28.008 240.360,28.590 243.000 C 29.172 245.640,29.739 248.340,29.851 249.000 C 29.963 249.660,30.197 250.560,30.372 251.000 C 30.832 252.160,31.447 254.237,32.208 257.200 C 32.575 258.630,33.029 260.160,33.217 260.600 C 33.406 261.040,33.843 262.300,34.189 263.400 C 34.535 264.500,34.994 265.805,35.209 266.300 C 35.983 268.083,36.357 269.039,37.202 271.400 C 38.150 274.049,38.641 275.208,40.644 279.521 C 41.390 281.128,42.000 282.613,42.000 282.821 C 42.000 283.030,42.180 283.200,42.400 283.200 C 42.620 283.200,42.800 283.469,42.800 283.797 C 42.800 284.378,45.630 289.982,47.346 292.800 C 48.955 295.443,50.033 297.401,50.263 298.100 C 50.390 298.485,50.652 298.800,50.847 298.800 C 51.041 298.800,51.200 298.962,51.200 299.161 C 51.200 299.612,56.072 306.951,56.492 307.133 C 56.661 307.207,56.800 307.445,56.800 307.663 C 56.800 308.169,62.478 315.907,64.200 317.750 C 64.640 318.220,65.526 319.308,66.170 320.167 C 68.747 323.609,81.050 336.185,85.964 340.401 C 90.937 344.667,90.959 344.686,93.000 346.204 C 93.880 346.860,94.690 347.498,94.800 347.623 C 95.378 348.282,103.161 353.600,103.547 353.600 C 103.796 353.600,104.000 353.752,104.000 353.937 C 104.000 354.122,104.630 354.613,105.400 355.028 C 106.170 355.443,106.800 355.921,106.800 356.091 C 106.800 356.261,106.997 356.400,107.238 356.400 C 107.479 356.400,108.154 356.734,108.738 357.143 C 109.322 357.551,110.700 358.391,111.800 359.008 C 112.900 359.626,114.700 360.642,115.800 361.265 C 119.437 363.327,130.143 368.461,133.600 369.800 C 134.590 370.184,136.120 370.825,137.000 371.227 C 137.880 371.628,139.590 372.264,140.800 372.640 C 142.010 373.017,143.360 373.469,143.800 373.646 C 145.899 374.487,150.901 376.000,151.585 376.000 C 152.007 376.000,152.451 376.159,152.571 376.354 C 152.692 376.549,153.287 376.801,153.895 376.916 C 154.503 377.030,156.440 377.499,158.200 377.957 C 159.960 378.416,161.859 378.793,162.420 378.795 C 162.981 378.798,163.611 378.962,163.820 379.159 C 164.029 379.356,164.920 379.616,165.800 379.736 C 166.680 379.856,168.480 380.146,169.800 380.382 C 171.120 380.617,173.473 380.964,175.029 381.153 C 176.585 381.341,178.286 381.725,178.810 382.005 C 179.974 382.628,215.473 382.203,218.400 381.531 C 219.390 381.304,221.370 380.956,222.800 380.758 C 224.230 380.561,226.345 380.219,227.500 379.999 C 228.655 379.780,230.455 379.439,231.500 379.242 C 234.315 378.712,238.779 377.709,240.600 377.197 C 241.480 376.949,242.830 376.593,243.600 376.405 C 244.370 376.217,245.990 375.767,247.200 375.405 C 248.410 375.043,249.760 374.653,250.200 374.540 C 250.640 374.426,251.360 374.182,251.800 373.998 C 252.240 373.813,253.500 373.362,254.600 372.996 C 255.700 372.629,256.913 372.165,257.295 371.965 C 257.677 371.764,258.256 371.600,258.582 371.600 C 258.909 371.600,259.817 371.240,260.600 370.800 C 261.383 370.360,262.217 370.000,262.452 370.000 C 262.871 370.000,263.563 369.715,268.000 367.711 C 271.482 366.139,282.976 360.356,283.198 360.064 C 283.417 359.778,284.372 359.219,286.831 357.937 C 287.696 357.486,288.492 356.974,288.600 356.800 C 288.708 356.626,289.562 356.085,290.498 355.598 C 291.434 355.111,292.290 354.597,292.400 354.456 C 292.510 354.315,292.900 354.020,293.266 353.800 C 294.585 353.007,300.622 348.836,301.600 348.041 C 302.150 347.594,303.783 346.277,305.230 345.114 C 306.676 343.951,309.152 341.957,310.731 340.682 C 313.963 338.073,326.655 325.530,328.800 322.825 C 329.570 321.854,330.836 320.326,331.614 319.430 C 332.392 318.533,333.562 317.094,334.214 316.230 C 334.866 315.367,336.300 313.475,337.400 312.026 C 339.360 309.445,340.587 307.740,341.415 306.447 C 341.643 306.091,343.218 303.683,344.915 301.096 C 346.612 298.509,348.000 296.301,348.000 296.188 C 348.000 296.076,348.480 295.224,349.067 294.294 C 350.318 292.312,355.864 281.410,356.949 278.800 C 357.361 277.810,358.017 276.280,358.407 275.400 C 359.457 273.032,360.218 271.172,360.780 269.600 C 361.295 268.159,361.721 267.067,362.377 265.500 C 363.172 263.601,366.073 254.006,366.820 250.800 C 367.000 250.030,367.349 248.680,367.596 247.800 C 368.448 244.761,370.366 234.496,371.183 228.600 C 371.397 227.060,371.750 224.990,371.968 224.000 C 372.471 221.722,372.485 189.721,371.985 187.000 C 371.783 185.900,371.515 184.100,371.391 183.000 C 371.164 180.995,370.986 179.856,369.795 172.800 C 369.091 168.633,368.891 167.698,367.443 161.800 C 365.070 152.133,361.849 142.376,358.332 134.200 C 356.321 129.524,351.674 120.148,349.783 116.950 C 348.802 115.291,348.000 113.864,348.000 113.778 C 348.000 113.213,337.224 97.063,336.405 96.400 C 336.269 96.290,335.627 95.480,334.979 94.600 C 334.330 93.720,333.620 92.795,333.400 92.544 C 333.180 92.293,331.830 90.673,330.400 88.944 C 322.158 78.978,298.455 57.600,295.646 57.600 C 295.437 57.600,295.207 57.462,295.133 57.293 C 294.930 56.825,287.960 52.420,282.800 49.499 C 276.343 45.844,269.201 42.432,261.400 39.274 C 258.886 38.256,251.395 35.626,249.800 35.201 C 249.140 35.025,247.070 34.429,245.200 33.877 C 241.993 32.929,235.976 31.488,230.600 30.381 C 228.294 29.906,226.999 29.708,220.400 28.820 C 214.888 28.079,205.428 27.203,202.924 27.201 C 201.562 27.201,200.336 27.020,200.200 26.800 C 199.854 26.239,193.394 26.383,188.600 27.059 M204.400 92.014 C 209.268 92.778,210.609 93.730,232.240 111.784 C 243.438 121.130,252.727 128.782,252.883 128.789 C 253.039 128.795,253.219 121.375,253.283 112.300 C 253.443 89.748,251.107 92.000,274.339 92.000 C 292.527 92.000,292.705 92.022,294.441 94.455 L 295.400 95.800 295.600 130.098 L 295.800 164.396 301.600 169.228 C 304.790 171.885,307.760 174.362,308.200 174.732 C 309.235 175.601,327.092 190.349,328.383 191.400 C 335.406 197.117,335.298 197.933,326.058 208.939 C 318.261 218.226,319.194 218.382,303.284 205.132 C 297.188 200.055,291.409 195.248,290.442 194.451 C 289.474 193.653,286.856 191.470,284.624 189.600 C 282.391 187.730,279.763 185.536,278.782 184.725 C 277.802 183.914,272.950 179.887,268.000 175.776 C 263.050 171.664,258.204 167.648,257.232 166.850 C 256.260 166.053,252.480 162.903,248.832 159.852 C 245.184 156.801,241.630 153.831,240.934 153.252 C 240.237 152.673,238.437 151.173,236.934 149.919 C 235.430 148.664,230.060 144.197,225.000 139.991 C 219.940 135.786,215.440 132.041,215.000 131.670 C 207.952 125.724,200.710 119.965,200.412 120.068 C 200.203 120.141,196.676 122.990,192.573 126.400 C 188.471 129.810,176.809 139.504,166.657 147.943 C 156.506 156.381,147.750 163.675,147.200 164.151 C 146.650 164.627,143.590 167.170,140.400 169.802 C 137.210 172.434,132.800 176.091,130.600 177.928 C 128.400 179.766,126.238 181.569,125.796 181.935 C 125.354 182.301,122.384 184.756,119.196 187.392 C 116.008 190.027,113.310 192.289,113.200 192.419 C 113.090 192.548,110.300 194.884,107.000 197.609 C 103.700 200.335,100.910 202.663,100.800 202.782 C 100.690 202.902,99.700 203.710,98.600 204.577 C 97.500 205.444,95.869 206.794,94.976 207.577 C 94.083 208.360,92.124 209.990,90.624 211.200 C 89.123 212.410,87.655 213.632,87.361 213.915 C 84.984 216.208,80.523 215.801,78.691 213.123 C 78.343 212.615,77.495 211.570,76.804 210.800 C 65.348 198.021,65.353 197.742,77.213 187.940 C 79.516 186.037,89.500 177.750,99.400 169.525 C 140.678 135.230,170.102 110.781,180.782 101.903 C 192.709 91.989,195.853 90.673,204.400 92.014 M203.238 136.100 C 205.241 137.664,207.720 139.695,212.400 143.607 C 214.922 145.715,221.435 151.079,227.205 155.800 C 229.893 158.000,232.657 160.273,233.347 160.851 C 234.036 161.430,239.190 165.652,244.800 170.235 C 250.410 174.818,255.205 178.755,255.455 178.984 C 255.705 179.213,257.055 180.337,258.455 181.482 C 259.855 182.627,262.804 185.057,265.010 186.882 C 267.215 188.707,270.455 191.370,272.210 192.800 C 273.964 194.230,275.760 195.700,276.200 196.067 C 276.640 196.433,278.710 198.140,280.800 199.859 C 282.890 201.577,284.930 203.257,285.334 203.592 C 285.737 203.926,286.393 204.470,286.791 204.800 C 287.190 205.130,288.745 206.390,290.248 207.600 C 291.751 208.810,293.570 210.367,294.291 211.060 L 295.600 212.320 295.600 252.487 C 295.600 297.448,295.726 295.380,292.800 298.554 C 291.949 299.477,290.386 300.674,289.327 301.216 L 287.400 302.200 254.600 302.200 L 221.800 302.200 221.600 270.800 L 221.400 239.400 200.600 239.400 L 179.800 239.400 179.600 270.800 L 179.400 302.200 146.600 302.200 C 114.789 302.200,113.752 302.176,112.213 301.413 C 110.077 300.354,107.934 298.142,106.826 295.853 L 105.913 293.967 105.700 253.239 L 105.486 212.512 106.643 211.337 C 107.279 210.691,109.240 209.005,111.000 207.589 C 112.760 206.174,114.840 204.473,115.622 203.808 C 116.404 203.144,117.927 201.880,119.008 201.000 C 120.089 200.120,122.172 198.410,123.636 197.200 C 125.101 195.990,127.521 194.010,129.013 192.800 C 130.505 191.590,133.018 189.520,134.597 188.200 C 138.000 185.355,139.396 184.214,141.444 182.600 C 142.281 181.940,144.251 180.320,145.821 179.000 C 149.427 175.968,151.981 173.854,153.971 172.255 C 157.610 169.330,161.431 166.200,161.832 165.815 C 162.070 165.587,164.037 163.960,166.203 162.200 C 168.370 160.440,171.776 157.649,173.771 155.997 C 175.767 154.345,179.803 151.015,182.741 148.597 C 185.679 146.179,189.549 142.988,191.341 141.506 C 193.133 140.024,195.500 138.116,196.600 137.267 C 197.701 136.417,198.848 135.424,199.149 135.061 C 200.000 134.036,200.880 134.259,203.238 136.100 " stroke="none" fill="#ffffff" fill-rule="evenodd"></path><path id="path1" d="" stroke="none" fill="#ff0000" fill-rule="evenodd"></path><path id="path2" d="" stroke="none" fill="#ff5555" fill-rule="evenodd"></path><path id="path3" d="M179.003 0.274 C 177.025 0.362,175.234 0.606,175.023 0.817 C 174.812 1.028,173.596 1.200,172.320 1.200 C 171.044 1.200,170.000 1.355,170.000 1.544 C 170.000 1.828,164.889 2.426,162.300 2.445 C 161.915 2.447,161.600 2.619,161.600 2.825 C 161.600 3.031,160.610 3.200,159.400 3.200 C 158.190 3.200,157.200 3.380,157.200 3.600 C 157.200 3.820,156.570 4.000,155.800 4.000 C 155.030 4.000,154.400 4.154,154.400 4.343 C 154.400 4.531,153.135 4.803,151.588 4.946 C 150.042 5.090,148.467 5.358,148.088 5.541 C 147.710 5.725,146.976 6.096,146.458 6.367 C 145.880 6.669,145.619 6.693,145.782 6.430 C 145.928 6.193,145.857 6.000,145.624 6.000 C 145.391 6.000,145.200 6.180,145.200 6.400 C 145.200 6.620,144.750 6.800,144.200 6.800 C 143.650 6.800,143.200 6.961,143.200 7.158 C 143.200 7.478,140.952 7.954,139.108 8.024 C 138.727 8.039,138.312 8.219,138.184 8.425 C 138.057 8.631,137.513 8.800,136.976 8.800 C 136.439 8.800,136.000 8.980,136.000 9.200 C 136.000 9.420,135.550 9.600,135.000 9.600 C 134.450 9.600,134.000 9.760,134.000 9.955 C 134.000 10.150,133.415 10.421,132.700 10.558 C 130.090 11.056,130.341 10.979,127.500 12.144 C 126.895 12.392,126.400 12.731,126.400 12.898 C 126.400 13.064,125.860 13.200,125.200 13.200 C 124.540 13.200,124.000 13.374,124.000 13.587 C 124.000 13.801,123.730 13.871,123.400 13.745 C 123.070 13.618,122.800 13.714,122.800 13.957 C 122.800 14.201,122.451 14.400,122.024 14.400 C 121.597 14.400,121.136 14.580,121.000 14.800 C 120.864 15.020,120.403 15.200,119.976 15.200 C 119.549 15.200,119.200 15.366,119.200 15.568 C 119.200 15.771,118.615 16.056,117.900 16.202 C 116.195 16.550,114.400 17.317,114.400 17.698 C 114.400 17.864,114.040 18.000,113.600 18.000 C 113.160 18.000,112.800 18.160,112.800 18.357 C 112.800 18.705,110.897 19.396,110.300 19.266 C 110.135 19.230,110.000 19.380,110.000 19.600 C 110.000 19.820,109.730 20.000,109.400 20.000 C 109.070 20.000,108.800 20.138,108.800 20.306 C 108.800 20.708,105.543 22.168,104.900 22.054 C 104.625 22.005,104.400 22.153,104.400 22.382 C 104.400 22.612,104.130 22.800,103.800 22.800 C 103.470 22.800,103.200 22.980,103.200 23.200 C 103.200 23.420,102.840 23.600,102.400 23.600 C 101.960 23.600,101.600 23.760,101.600 23.957 C 101.600 24.153,101.150 24.426,100.600 24.564 C 100.050 24.702,99.600 25.002,99.600 25.231 C 99.600 25.460,99.435 25.545,99.232 25.420 C 99.030 25.295,98.593 25.464,98.261 25.796 C 97.929 26.128,97.464 26.400,97.229 26.400 C 96.993 26.400,96.800 26.580,96.800 26.800 C 96.800 27.020,96.518 27.200,96.173 27.200 C 95.829 27.200,94.957 27.650,94.236 28.200 C 93.514 28.750,92.718 29.200,92.466 29.200 C 92.213 29.200,91.782 29.560,91.507 30.000 C 91.232 30.440,90.753 30.800,90.442 30.800 C 90.130 30.800,89.286 31.250,88.564 31.800 C 87.843 32.350,87.061 32.800,86.827 32.800 C 86.592 32.800,86.400 32.953,86.400 33.139 C 86.400 33.326,85.684 33.801,84.809 34.196 C 83.934 34.591,83.112 35.248,82.982 35.657 C 82.852 36.066,82.476 36.400,82.146 36.400 C 81.653 36.400,79.163 38.000,78.400 38.807 C 78.290 38.923,77.660 39.360,77.000 39.777 C 76.340 40.195,75.565 40.865,75.277 41.268 C 74.990 41.671,74.484 42.000,74.154 42.000 C 73.801 42.000,73.671 42.191,73.838 42.462 C 74.014 42.746,73.948 42.815,73.668 42.642 C 73.155 42.325,70.303 44.970,70.714 45.381 C 70.858 45.525,70.695 45.535,70.352 45.403 C 69.946 45.247,69.251 45.697,68.364 46.689 C 67.614 47.528,66.460 48.557,65.800 48.975 C 64.359 49.887,47.200 67.074,47.200 67.605 C 47.200 67.810,46.300 68.853,45.200 69.925 C 44.100 70.996,43.200 72.056,43.200 72.280 C 43.200 72.504,42.572 73.298,41.804 74.044 C 41.037 74.790,40.407 75.606,40.404 75.857 C 40.402 76.109,40.130 76.418,39.800 76.545 C 39.470 76.671,39.200 77.061,39.200 77.411 C 39.200 77.761,39.020 77.936,38.800 77.800 C 38.580 77.664,38.400 77.853,38.400 78.219 C 38.400 78.585,37.950 79.239,37.400 79.671 C 36.850 80.104,36.400 80.734,36.400 81.071 C 36.400 81.409,35.974 82.020,35.454 82.429 C 34.934 82.838,34.282 83.719,34.006 84.386 C 33.729 85.054,33.345 85.600,33.151 85.600 C 32.958 85.600,32.800 85.799,32.800 86.042 C 32.800 86.285,32.347 87.050,31.794 87.742 C 30.384 89.505,30.214 89.764,30.091 90.342 C 30.032 90.622,29.629 91.232,29.196 91.697 C 28.763 92.161,28.295 92.900,28.156 93.340 C 28.016 93.779,27.564 94.501,27.151 94.945 C 26.738 95.388,26.400 95.972,26.400 96.242 C 26.400 96.512,26.265 96.793,26.100 96.867 C 25.935 96.940,25.486 97.630,25.102 98.400 C 24.205 100.202,23.490 101.334,23.049 101.655 C 22.856 101.796,22.810 102.092,22.946 102.313 C 23.083 102.535,22.915 102.824,22.572 102.955 C 22.230 103.087,22.054 103.363,22.181 103.570 C 22.309 103.776,22.230 104.058,22.007 104.196 C 21.783 104.334,21.600 104.797,21.600 105.224 C 21.600 105.651,21.420 106.000,21.200 106.000 C 20.980 106.000,20.800 106.270,20.800 106.600 C 20.800 106.930,20.662 107.200,20.494 107.200 C 20.117 107.200,18.800 110.175,18.800 111.026 C 18.800 111.368,18.620 111.536,18.400 111.400 C 18.180 111.264,18.000 111.523,18.000 111.976 C 18.000 112.429,17.820 112.800,17.600 112.800 C 17.380 112.800,17.194 113.115,17.187 113.500 C 17.180 113.885,16.910 114.549,16.587 114.976 C 16.264 115.404,16.000 116.269,16.000 116.900 C 16.000 117.563,15.831 117.943,15.600 117.800 C 15.380 117.664,15.200 117.923,15.200 118.376 C 15.200 118.829,15.064 119.200,14.898 119.200 C 14.481 119.200,13.705 121.094,13.380 122.900 C 13.232 123.725,12.951 124.400,12.755 124.400 C 12.560 124.400,12.400 124.760,12.400 125.200 C 12.400 125.640,12.220 126.000,12.000 126.000 C 11.780 126.000,11.600 126.540,11.600 127.200 C 11.600 127.860,11.422 128.400,11.205 128.400 C 10.987 128.400,10.694 129.124,10.552 130.009 C 10.411 130.894,10.139 131.714,9.947 131.832 C 9.756 131.951,9.600 132.587,9.600 133.247 C 9.600 133.907,9.440 134.348,9.243 134.227 C 9.047 134.106,8.790 134.590,8.671 135.303 C 8.184 138.234,7.473 140.800,7.147 140.800 C 6.956 140.800,6.800 141.430,6.800 142.200 C 6.800 142.970,6.620 143.600,6.400 143.600 C 6.180 143.600,6.000 144.110,6.000 144.733 C 6.000 145.357,5.876 145.990,5.725 146.141 C 5.574 146.293,5.409 146.728,5.359 147.108 C 4.841 151.029,4.640 152.000,4.344 152.000 C 4.155 152.000,4.000 152.911,4.000 154.024 C 4.000 155.271,3.847 155.952,3.600 155.800 C 3.356 155.649,3.200 156.263,3.200 157.376 C 3.200 158.379,3.031 159.200,2.825 159.200 C 2.619 159.200,2.457 159.515,2.465 159.900 C 2.512 162.030,1.830 168.000,1.540 168.000 C 1.353 168.000,1.200 169.335,1.200 170.967 C 1.200 172.928,1.036 173.988,0.717 174.094 C -0.104 174.368,0.017 226.516,0.840 227.025 C 1.038 227.147,1.200 228.677,1.200 230.424 C 1.200 232.171,1.353 233.600,1.541 233.600 C 1.808 233.600,2.295 238.179,2.510 242.700 C 2.523 242.975,2.683 243.200,2.867 243.200 C 3.050 243.200,3.200 243.884,3.200 244.720 C 3.200 245.556,3.362 246.411,3.559 246.620 C 3.756 246.829,4.016 247.720,4.135 248.600 C 4.255 249.480,4.565 251.370,4.824 252.800 C 5.083 254.230,5.312 255.715,5.333 256.100 C 5.354 256.485,5.513 256.800,5.686 256.800 C 5.859 256.800,6.000 257.509,6.000 258.376 C 6.000 259.243,6.180 260.064,6.400 260.200 C 6.620 260.336,6.800 261.067,6.800 261.824 C 6.800 262.581,6.963 263.200,7.162 263.200 C 7.362 263.200,7.652 264.145,7.808 265.300 C 7.964 266.455,8.204 267.580,8.342 267.800 C 8.850 268.609,9.588 271.026,9.594 271.900 C 9.597 272.395,9.767 272.800,9.971 272.800 C 10.175 272.800,10.466 273.790,10.617 275.000 C 10.768 276.210,11.051 277.200,11.246 277.200 C 11.441 277.200,11.600 277.650,11.600 278.200 C 11.600 278.750,11.780 279.200,12.000 279.200 C 12.220 279.200,12.400 279.650,12.400 280.200 C 12.400 280.750,12.556 281.200,12.746 281.200 C 12.936 281.200,13.197 281.973,13.327 282.918 C 13.456 283.863,13.831 285.155,14.161 285.789 C 14.490 286.424,14.668 287.091,14.556 287.271 C 14.444 287.452,14.543 287.600,14.776 287.600 C 15.009 287.600,15.200 287.960,15.200 288.400 C 15.200 288.840,15.380 289.200,15.600 289.200 C 15.820 289.200,16.000 289.639,16.000 290.176 C 16.000 290.713,16.172 291.259,16.383 291.389 C 16.593 291.519,16.664 291.890,16.540 292.213 C 16.416 292.536,16.514 292.800,16.757 292.800 C 17.001 292.800,17.200 293.261,17.200 293.824 C 17.200 294.404,17.373 294.740,17.600 294.600 C 17.833 294.456,18.000 294.863,18.000 295.576 C 18.000 296.249,18.180 296.800,18.400 296.800 C 18.620 296.800,18.800 297.070,18.800 297.400 C 18.800 297.730,18.957 298.000,19.148 298.000 C 19.339 298.000,19.487 298.315,19.475 298.700 C 19.444 299.790,20.048 301.600,20.443 301.600 C 20.640 301.600,20.800 301.960,20.800 302.400 C 20.800 302.840,20.980 303.200,21.200 303.200 C 21.420 303.200,21.600 303.559,21.600 303.997 C 21.600 304.983,22.877 308.000,23.294 308.000 C 23.462 308.000,23.600 308.360,23.600 308.800 C 23.600 309.240,23.780 309.600,24.000 309.600 C 24.220 309.600,24.400 309.849,24.400 310.154 C 24.400 310.459,24.669 311.224,24.998 311.854 C 25.326 312.484,25.596 313.326,25.598 313.724 C 25.599 314.122,25.780 314.336,26.000 314.200 C 26.220 314.064,26.400 314.323,26.400 314.776 C 26.400 315.229,26.580 315.600,26.800 315.600 C 27.020 315.600,27.200 315.960,27.200 316.400 C 27.200 316.840,27.380 317.200,27.600 317.200 C 27.820 317.200,28.000 317.549,28.000 317.976 C 28.000 318.403,28.183 318.866,28.407 319.004 C 28.630 319.142,28.709 319.423,28.583 319.628 C 28.456 319.832,28.543 320.000,28.776 320.000 C 29.009 320.000,29.200 320.270,29.200 320.600 C 29.200 320.930,29.380 321.200,29.600 321.200 C 29.820 321.200,30.000 321.560,30.000 322.000 C 30.000 322.440,30.160 322.800,30.355 322.800 C 30.551 322.800,30.829 323.430,30.974 324.200 C 31.118 324.970,31.374 325.600,31.543 325.600 C 31.712 325.600,32.098 326.230,32.400 327.000 C 32.702 327.770,33.096 328.400,33.275 328.400 C 33.454 328.400,33.600 328.760,33.600 329.200 C 33.600 329.640,33.780 330.000,34.000 330.000 C 34.220 330.000,34.371 330.135,34.335 330.300 C 34.219 330.841,35.103 332.622,35.758 333.165 C 36.111 333.458,36.400 334.023,36.400 334.420 C 36.400 334.818,36.670 335.413,37.000 335.743 C 37.330 336.073,37.600 336.626,37.600 336.971 C 37.600 337.317,37.780 337.600,38.000 337.600 C 38.220 337.600,38.400 337.870,38.400 338.200 C 38.400 338.530,38.558 338.800,38.750 338.800 C 38.943 338.800,39.200 339.295,39.323 339.900 C 39.445 340.505,39.917 341.397,40.373 341.883 C 40.828 342.369,41.200 343.044,41.200 343.383 C 41.200 343.722,41.360 344.000,41.557 344.000 C 41.753 344.000,42.026 344.450,42.164 345.000 C 42.302 345.550,42.592 346.000,42.808 346.000 C 43.023 346.000,43.200 346.270,43.200 346.600 C 43.200 346.930,43.380 347.200,43.600 347.200 C 43.820 347.200,44.000 347.560,44.000 348.000 C 44.000 348.440,44.180 348.800,44.400 348.800 C 44.620 348.800,44.800 349.138,44.800 349.551 C 44.800 349.964,45.070 350.526,45.400 350.800 C 45.730 351.074,46.000 351.546,46.000 351.849 C 46.000 352.152,46.180 352.400,46.400 352.400 C 46.620 352.400,46.800 352.670,46.800 353.000 C 46.800 353.330,46.980 353.600,47.200 353.600 C 47.420 353.600,47.600 353.938,47.600 354.351 C 47.600 354.764,47.870 355.326,48.200 355.600 C 48.530 355.874,48.800 356.327,48.800 356.606 C 48.800 356.886,49.081 357.222,49.425 357.354 C 49.769 357.486,49.959 357.743,49.847 357.924 C 49.735 358.106,49.993 358.507,50.421 358.815 C 50.850 359.124,51.200 359.697,51.200 360.088 C 51.200 360.480,51.335 360.801,51.500 360.803 C 51.902 360.806,53.200 363.119,53.200 363.832 C 53.200 364.145,53.372 364.400,53.581 364.400 C 53.791 364.400,54.261 365.030,54.627 365.800 C 54.992 366.570,55.451 367.200,55.646 367.200 C 55.841 367.200,56.000 367.470,56.000 367.800 C 56.000 368.130,56.180 368.400,56.400 368.400 C 56.620 368.400,56.800 368.657,56.800 368.971 C 56.800 369.286,57.064 369.806,57.386 370.129 C 57.708 370.451,58.023 370.959,58.086 371.257 C 58.149 371.556,58.489 372.070,58.843 372.400 C 59.196 372.730,59.613 373.405,59.770 373.900 C 59.926 374.395,60.222 374.800,60.427 374.800 C 60.632 374.800,60.800 375.068,60.800 375.397 C 60.800 375.725,61.160 376.218,61.600 376.493 C 62.040 376.768,62.400 377.309,62.400 377.696 C 62.400 378.083,62.577 378.400,62.792 378.400 C 63.008 378.400,63.298 378.850,63.436 379.400 C 63.574 379.950,63.819 380.400,63.980 380.400 C 64.142 380.400,64.613 381.030,65.028 381.800 C 65.443 382.570,65.921 383.200,66.091 383.200 C 66.261 383.200,66.400 383.468,66.400 383.797 C 66.400 384.125,66.760 384.618,67.200 384.893 C 67.640 385.168,68.000 385.709,68.000 386.096 C 68.000 386.483,68.168 386.800,68.373 386.800 C 68.578 386.800,68.874 387.205,69.030 387.700 C 69.187 388.195,69.623 388.870,70.000 389.200 C 70.377 389.530,70.813 390.205,70.970 390.700 C 71.126 391.195,71.422 391.600,71.627 391.600 C 71.832 391.600,72.000 391.868,72.000 392.197 C 72.000 392.525,72.360 393.018,72.800 393.293 C 73.240 393.568,73.600 394.109,73.600 394.496 C 73.600 394.883,73.768 395.200,73.973 395.200 C 74.178 395.200,74.448 395.515,74.572 395.900 C 74.696 396.285,75.315 397.151,75.948 397.823 C 76.580 398.496,77.223 399.441,77.376 399.923 C 77.529 400.406,77.822 400.800,78.027 400.800 C 78.232 400.800,78.400 401.060,78.400 401.377 C 78.400 401.695,78.718 402.190,79.106 402.477 C 79.495 402.765,80.033 403.500,80.303 404.111 C 80.572 404.722,81.065 405.327,81.397 405.454 C 81.728 405.581,82.000 406.026,82.000 406.443 C 82.000 406.859,82.168 407.200,82.373 407.200 C 82.578 407.200,82.854 407.539,82.985 407.953 C 83.117 408.368,83.714 409.237,84.312 409.884 C 85.417 411.080,86.199 412.164,86.661 413.140 C 86.801 413.437,87.340 414.104,87.858 414.622 C 88.376 415.140,88.802 415.797,88.804 416.082 C 88.806 416.367,89.346 417.025,90.004 417.545 C 90.662 418.065,91.200 418.732,91.200 419.027 C 91.200 419.322,91.650 420.014,92.200 420.564 C 92.750 421.114,93.200 421.752,93.200 421.982 C 93.200 422.212,93.368 422.400,93.573 422.400 C 93.778 422.400,94.065 422.805,94.211 423.300 C 94.357 423.795,94.989 424.665,95.616 425.233 C 96.243 425.802,96.811 426.512,96.878 426.812 C 96.945 427.112,97.405 427.747,97.900 428.224 C 98.395 428.701,98.800 429.397,98.800 429.769 C 98.800 430.142,98.980 430.336,99.200 430.200 C 99.420 430.064,99.600 430.214,99.600 430.534 C 99.600 430.853,99.870 431.218,100.200 431.345 C 100.530 431.471,100.800 431.897,100.800 432.291 C 100.800 432.685,101.160 433.232,101.600 433.507 C 102.040 433.782,102.400 434.182,102.400 434.396 C 102.400 434.610,103.030 435.434,103.800 436.227 C 104.570 437.020,105.200 437.923,105.200 438.234 C 105.200 438.545,105.341 438.800,105.514 438.800 C 105.686 438.800,106.149 439.345,106.543 440.011 C 106.936 440.677,107.650 441.650,108.129 442.173 C 109.408 443.569,110.000 444.337,110.000 444.597 C 110.000 444.725,110.368 445.227,110.818 445.714 C 112.346 447.370,113.599 448.999,113.600 449.331 C 113.600 449.513,114.141 450.203,114.803 450.864 C 115.464 451.526,115.924 452.199,115.824 452.361 C 115.724 452.522,116.008 452.912,116.455 453.227 C 116.902 453.542,117.549 454.340,117.893 455.000 C 118.238 455.660,118.852 456.435,119.260 456.723 C 119.667 457.010,120.000 457.406,120.000 457.602 C 120.000 457.798,120.450 458.444,121.000 459.038 C 121.550 459.631,122.000 460.288,122.000 460.498 C 122.000 460.708,122.585 461.426,123.300 462.093 C 124.015 462.761,124.623 463.464,124.650 463.654 C 124.678 463.844,124.722 464.191,124.750 464.424 C 124.778 464.657,124.980 464.736,125.200 464.600 C 125.420 464.464,125.600 464.633,125.600 464.976 C 125.600 465.319,125.772 465.600,125.981 465.600 C 126.191 465.600,126.658 466.223,127.020 466.985 C 127.381 467.747,127.998 468.473,128.391 468.597 C 128.784 468.722,129.209 469.344,129.336 469.980 C 129.472 470.662,129.902 471.242,130.384 471.395 C 130.833 471.537,131.200 471.936,131.200 472.281 C 131.200 472.626,131.650 473.325,132.200 473.835 C 132.750 474.345,133.200 474.923,133.200 475.120 C 133.200 475.316,133.830 476.126,134.600 476.919 C 135.370 477.712,136.000 478.627,136.000 478.953 C 136.000 479.279,136.360 479.660,136.799 479.800 C 137.239 479.939,137.707 480.485,137.839 481.014 C 137.972 481.542,138.600 482.385,139.236 482.887 C 139.872 483.389,140.394 484.102,140.396 484.471 C 140.398 484.840,140.850 485.496,141.400 485.929 C 141.950 486.361,142.400 486.826,142.400 486.961 C 142.400 487.096,142.895 487.762,143.500 488.441 C 144.105 489.120,144.616 489.794,144.635 489.938 C 144.743 490.761,145.371 491.600,146.037 491.812 C 146.457 491.945,146.800 492.320,146.800 492.645 C 146.800 492.970,147.205 493.644,147.700 494.143 C 148.195 494.642,148.855 495.532,149.166 496.122 C 149.478 496.712,150.153 497.470,150.666 497.807 C 151.180 498.143,151.600 498.703,151.600 499.052 C 151.600 499.400,152.050 500.039,152.600 500.471 C 153.150 500.904,153.600 501.593,153.600 502.002 C 153.600 502.411,153.960 502.860,154.400 503.000 C 154.840 503.140,155.200 503.383,155.200 503.540 C 155.200 503.930,156.686 505.811,158.500 507.719 C 159.325 508.587,160.003 509.500,160.006 509.748 C 160.009 509.997,160.995 511.079,162.196 512.154 C 163.397 513.229,164.284 514.264,164.167 514.454 C 164.049 514.644,164.143 514.800,164.376 514.800 C 164.609 514.800,164.800 514.985,164.800 515.212 C 164.800 515.438,165.970 516.776,167.400 518.185 C 168.830 519.594,170.000 520.910,170.000 521.109 C 170.000 521.309,170.675 522.128,171.500 522.931 C 172.325 523.734,173.399 524.798,173.887 525.296 C 174.375 525.793,174.965 526.380,175.198 526.600 C 176.072 527.426,177.599 529.412,177.600 529.724 C 177.600 529.902,177.780 529.936,178.000 529.800 C 178.220 529.664,178.400 529.761,178.400 530.015 C 178.400 530.269,180.290 532.353,182.600 534.646 C 184.910 536.940,186.800 539.019,186.800 539.267 C 186.800 539.515,188.870 541.754,191.400 544.242 C 193.930 546.730,196.000 548.925,196.000 549.119 C 196.000 549.314,196.720 550.207,197.600 551.105 C 198.480 552.003,199.200 552.931,199.200 553.169 C 199.200 553.406,199.584 553.600,200.053 553.600 C 200.857 553.600,204.800 549.843,204.800 549.076 C 204.800 548.894,205.610 547.969,206.600 547.021 C 207.590 546.072,208.400 545.123,208.400 544.911 C 208.400 544.699,209.390 543.487,210.600 542.218 C 211.810 540.948,212.800 539.758,212.800 539.573 C 212.800 539.125,214.740 537.200,215.191 537.200 C 215.386 537.200,215.669 536.795,215.819 536.300 C 215.970 535.805,216.711 534.770,217.466 534.000 C 220.088 531.328,220.400 530.970,220.400 530.638 C 220.400 530.454,221.210 529.528,222.200 528.579 C 223.190 527.631,224.000 526.680,224.000 526.467 C 224.000 526.253,224.897 525.206,225.994 524.139 C 227.090 523.073,227.990 521.999,227.994 521.752 C 227.997 521.506,228.990 520.307,230.200 519.087 C 231.410 517.868,232.400 516.755,232.400 516.616 C 232.400 516.476,233.210 515.541,234.200 514.536 C 235.190 513.532,236.000 512.541,236.000 512.333 C 236.000 512.125,236.900 511.041,238.000 509.923 C 239.100 508.806,240.000 507.736,240.000 507.546 C 240.000 507.356,240.675 506.491,241.500 505.625 C 242.325 504.759,243.360 503.575,243.800 502.993 C 244.240 502.412,244.825 501.693,245.100 501.396 C 245.375 501.100,245.600 500.746,245.600 500.610 C 245.600 500.475,246.050 499.914,246.600 499.364 C 247.150 498.814,247.600 498.219,247.600 498.041 C 247.600 497.864,248.140 497.154,248.800 496.463 C 249.460 495.772,250.003 495.071,250.006 494.904 C 250.010 494.737,250.520 494.025,251.139 493.323 C 251.759 492.620,252.701 491.406,253.233 490.625 C 253.765 489.844,254.335 489.204,254.500 489.203 C 254.665 489.201,254.800 489.012,254.800 488.782 C 254.800 488.552,255.250 487.914,255.800 487.364 C 256.350 486.814,256.800 486.174,256.800 485.942 C 256.800 485.711,257.340 485.017,258.000 484.400 C 258.660 483.783,259.200 483.089,259.200 482.858 C 259.200 482.626,259.650 481.986,260.200 481.436 C 260.750 480.886,261.200 480.325,261.200 480.190 C 261.200 480.054,261.425 479.706,261.700 479.416 C 261.975 479.126,262.549 478.407,262.975 477.819 C 263.680 476.846,264.489 475.826,265.593 474.517 C 265.817 474.251,266.000 473.928,266.000 473.799 C 266.000 473.669,266.450 473.114,267.000 472.564 C 267.550 472.014,268.000 471.374,268.000 471.142 C 268.000 470.911,268.540 470.217,269.200 469.600 C 269.860 468.983,270.400 468.358,270.400 468.211 C 270.400 468.063,270.625 467.692,270.900 467.385 C 271.977 466.184,272.400 465.624,272.400 465.399 C 272.400 465.269,272.850 464.714,273.400 464.164 C 273.950 463.614,274.400 462.984,274.400 462.764 C 274.400 462.544,274.850 461.914,275.400 461.364 C 275.950 460.814,276.400 460.226,276.400 460.057 C 276.400 459.889,276.715 459.402,277.100 458.975 C 278.367 457.571,280.000 455.260,280.000 454.872 C 280.000 454.662,280.538 454.065,281.196 453.545 C 281.854 453.025,282.394 452.310,282.396 451.956 C 282.398 451.602,282.850 450.974,283.400 450.561 C 283.950 450.148,284.400 449.574,284.400 449.286 C 284.400 448.998,284.850 448.345,285.400 447.835 C 285.950 447.325,286.400 446.712,286.400 446.472 C 286.400 446.233,286.850 445.586,287.400 445.036 C 287.950 444.486,288.400 443.770,288.400 443.445 C 288.400 443.120,288.760 442.740,289.200 442.600 C 289.640 442.460,290.000 442.080,290.000 441.756 C 290.000 441.431,290.450 440.680,291.000 440.087 C 291.550 439.493,292.000 438.821,292.000 438.592 C 292.000 438.364,292.360 437.917,292.800 437.600 C 293.240 437.283,293.600 436.836,293.600 436.608 C 293.600 436.379,294.050 435.707,294.600 435.113 C 295.150 434.520,295.600 433.847,295.600 433.617 C 295.600 433.388,295.741 433.200,295.914 433.200 C 296.086 433.200,296.569 432.615,296.985 431.900 C 297.402 431.185,298.071 430.309,298.472 429.953 C 298.872 429.597,299.200 429.032,299.200 428.696 C 299.200 428.360,299.470 427.982,299.800 427.855 C 300.130 427.729,300.400 427.348,300.400 427.009 C 300.400 426.670,300.935 425.833,301.588 425.150 C 302.241 424.466,302.883 423.568,303.015 423.153 C 303.146 422.739,303.422 422.400,303.627 422.400 C 303.832 422.400,304.000 422.170,304.000 421.888 C 304.000 421.607,304.360 421.117,304.800 420.800 C 305.240 420.483,305.600 420.032,305.600 419.799 C 305.600 419.404,306.404 418.276,308.100 416.295 C 308.485 415.846,308.800 415.188,308.800 414.835 C 308.800 414.482,309.160 413.968,309.600 413.693 C 310.040 413.418,310.400 412.925,310.400 412.597 C 310.400 412.268,310.568 412.000,310.773 412.000 C 310.978 412.000,311.274 411.595,311.430 411.100 C 311.587 410.605,312.004 409.927,312.357 409.594 C 313.099 408.895,313.840 407.774,314.379 406.532 C 314.586 406.055,314.992 405.515,315.282 405.332 C 315.571 405.150,316.162 404.325,316.595 403.500 C 317.028 402.675,317.521 402.000,317.691 402.000 C 317.861 402.000,318.000 401.745,318.000 401.433 C 318.000 401.122,318.135 400.807,318.300 400.733 C 318.783 400.519,320.800 397.693,320.800 397.231 C 320.800 396.844,321.524 395.827,322.647 394.637 C 322.893 394.376,323.220 393.766,323.374 393.281 C 323.528 392.797,323.822 392.400,324.027 392.400 C 324.232 392.400,324.400 392.059,324.400 391.643 C 324.400 391.226,324.679 390.779,325.019 390.648 C 325.359 390.517,325.827 389.868,326.058 389.205 C 326.289 388.542,326.641 388.000,326.839 388.000 C 327.038 388.000,327.200 387.812,327.200 387.583 C 327.200 387.354,327.567 386.773,328.015 386.291 C 328.464 385.810,328.943 384.962,329.079 384.408 C 329.216 383.854,329.659 383.109,330.064 382.753 C 330.469 382.397,330.800 381.902,330.800 381.653 C 330.800 381.404,330.968 381.200,331.173 381.200 C 331.378 381.200,331.670 380.809,331.822 380.331 C 331.974 379.853,332.436 379.099,332.849 378.655 C 333.262 378.212,333.600 377.613,333.600 377.325 C 333.600 377.036,333.760 376.800,333.957 376.800 C 334.153 376.800,334.426 376.350,334.564 375.800 C 334.702 375.250,334.992 374.800,335.208 374.800 C 335.423 374.800,335.600 374.440,335.600 374.000 C 335.600 373.560,335.752 373.200,335.937 373.200 C 336.122 373.200,336.617 372.530,337.037 371.711 C 337.457 370.892,338.115 369.868,338.500 369.435 C 338.885 369.003,339.200 368.413,339.200 368.125 C 339.200 367.836,339.360 367.600,339.557 367.600 C 339.753 367.600,340.026 367.150,340.164 366.600 C 340.302 366.050,340.592 365.600,340.808 365.600 C 341.023 365.600,341.200 365.330,341.200 365.000 C 341.200 364.670,341.380 364.400,341.600 364.400 C 341.820 364.400,342.000 364.122,342.000 363.783 C 342.000 363.444,342.372 362.769,342.827 362.283 C 343.283 361.797,343.755 360.905,343.877 360.300 C 344.000 359.695,344.257 359.200,344.450 359.200 C 344.643 359.200,344.800 359.012,344.800 358.783 C 344.800 358.554,345.167 357.973,345.615 357.491 C 346.064 357.010,346.543 356.168,346.681 355.621 C 346.818 355.074,347.254 354.279,347.650 353.854 C 348.046 353.429,348.692 352.299,349.085 351.342 C 349.478 350.386,349.935 349.602,350.100 349.601 C 350.265 349.601,350.400 349.280,350.400 348.888 C 350.400 348.497,350.759 347.918,351.198 347.601 C 351.637 347.285,352.107 346.435,352.243 345.713 C 352.378 344.991,352.649 344.400,352.845 344.400 C 353.040 344.400,353.200 344.130,353.200 343.800 C 353.200 343.470,353.380 343.200,353.600 343.200 C 353.820 343.200,354.000 342.840,354.000 342.400 C 354.000 341.960,354.177 341.600,354.392 341.600 C 354.608 341.600,354.898 341.150,355.036 340.600 C 355.174 340.050,355.447 339.600,355.643 339.600 C 355.840 339.600,356.000 339.330,356.000 339.000 C 356.000 338.670,356.180 338.400,356.400 338.400 C 356.620 338.400,356.800 338.040,356.800 337.600 C 356.800 337.160,356.972 336.800,357.182 336.800 C 357.392 336.800,357.682 336.170,357.826 335.400 C 357.971 334.630,358.249 334.000,358.445 334.000 C 358.640 334.000,358.800 333.730,358.800 333.400 C 358.800 333.070,358.980 332.800,359.200 332.800 C 359.420 332.800,359.600 332.440,359.600 332.000 C 359.600 331.560,359.745 331.200,359.923 331.200 C 360.101 331.200,360.580 330.435,360.987 329.500 C 361.395 328.565,361.844 327.710,361.985 327.600 C 362.352 327.314,363.600 324.562,363.600 324.040 C 363.600 323.798,363.780 323.600,364.000 323.600 C 364.220 323.600,364.400 323.255,364.400 322.833 C 364.400 322.412,364.542 322.007,364.716 321.933 C 365.206 321.727,367.200 317.275,367.200 316.389 C 367.200 315.955,367.380 315.600,367.600 315.600 C 367.820 315.600,368.000 315.330,368.000 315.000 C 368.000 314.670,368.180 314.400,368.400 314.400 C 368.620 314.400,368.800 314.040,368.800 313.600 C 368.800 313.160,368.972 312.800,369.182 312.800 C 369.392 312.800,369.682 312.170,369.826 311.400 C 369.971 310.630,370.249 310.000,370.445 310.000 C 370.640 310.000,370.800 309.730,370.800 309.400 C 370.800 309.070,370.935 308.800,371.100 308.800 C 371.265 308.800,371.745 307.720,372.167 306.400 C 372.589 305.080,373.084 304.000,373.267 304.000 C 373.450 304.000,373.600 303.640,373.600 303.200 C 373.600 302.760,373.780 302.400,374.000 302.400 C 374.220 302.400,374.400 302.051,374.400 301.624 C 374.400 301.197,374.560 300.749,374.755 300.628 C 374.950 300.507,375.228 299.777,375.373 299.004 C 375.518 298.232,375.808 297.600,376.018 297.600 C 376.228 297.600,376.400 297.251,376.400 296.824 C 376.400 296.397,376.580 295.936,376.800 295.800 C 377.020 295.664,377.200 295.203,377.200 294.776 C 377.200 294.349,377.369 294.000,377.575 294.000 C 377.782 294.000,378.072 293.190,378.221 292.200 C 378.369 291.210,378.650 290.400,378.845 290.400 C 379.040 290.400,379.200 290.130,379.200 289.800 C 379.200 289.470,379.380 289.200,379.600 289.200 C 379.820 289.200,380.000 288.660,380.000 288.000 C 380.000 287.340,380.178 286.800,380.395 286.800 C 380.613 286.800,380.906 286.080,381.046 285.200 C 381.187 284.320,381.459 283.600,381.651 283.600 C 381.843 283.600,382.000 283.060,382.000 282.400 C 382.000 281.740,382.135 281.199,382.300 281.197 C 382.784 281.192,383.613 279.136,383.870 277.300 C 384.001 276.365,384.264 275.600,384.454 275.600 C 384.644 275.600,384.800 275.150,384.800 274.600 C 384.800 274.050,384.980 273.600,385.200 273.600 C 385.420 273.600,385.600 273.251,385.600 272.824 C 385.600 272.397,385.770 271.942,385.977 271.814 C 386.184 271.686,386.475 270.776,386.622 269.791 C 386.770 268.806,387.050 268.000,387.245 268.000 C 387.440 268.000,387.600 267.471,387.600 266.824 C 387.600 266.177,387.780 265.536,388.000 265.400 C 388.220 265.264,388.400 264.713,388.400 264.176 C 388.400 263.639,388.580 263.200,388.800 263.200 C 389.020 263.200,389.200 262.660,389.200 262.000 C 389.200 261.340,389.371 260.800,389.580 260.800 C 389.789 260.800,390.082 259.720,390.232 258.400 C 390.381 257.080,390.660 256.000,390.852 256.000 C 391.043 256.000,391.200 255.561,391.200 255.024 C 391.200 254.487,391.380 253.936,391.600 253.800 C 391.820 253.664,392.000 253.034,392.000 252.400 C 392.000 251.766,392.166 251.145,392.369 251.019 C 392.571 250.894,392.862 249.623,393.015 248.196 C 393.168 246.768,393.452 245.600,393.647 245.600 C 393.841 245.600,394.000 244.981,394.000 244.224 C 394.000 243.467,394.180 242.736,394.400 242.600 C 394.620 242.464,394.800 241.834,394.800 241.200 C 394.800 240.566,394.961 239.948,395.158 239.826 C 395.355 239.704,395.644 238.162,395.800 236.400 C 395.956 234.638,396.245 233.096,396.442 232.974 C 396.639 232.852,396.800 231.953,396.800 230.976 C 396.800 229.999,396.963 229.200,397.161 229.200 C 397.551 229.200,397.743 227.924,398.430 220.800 C 398.673 218.270,399.081 215.768,399.336 215.239 C 399.981 213.904,400.001 166.900,399.357 166.485 C 399.113 166.328,398.785 164.400,398.628 162.200 C 398.471 160.000,398.176 158.140,397.971 158.067 C 397.767 157.993,397.600 157.138,397.600 156.167 C 397.600 155.195,397.420 154.400,397.200 154.400 C 396.980 154.400,396.800 153.590,396.800 152.600 C 396.800 151.610,396.641 150.800,396.447 150.800 C 396.252 150.800,395.968 149.632,395.815 148.204 C 395.662 146.777,395.371 145.506,395.169 145.381 C 394.966 145.255,394.800 144.724,394.800 144.200 C 394.800 143.676,394.620 143.136,394.400 143.000 C 394.180 142.864,394.000 142.223,394.000 141.576 C 394.000 140.929,393.843 140.400,393.652 140.400 C 393.460 140.400,393.185 139.507,393.040 138.416 C 392.895 137.325,392.602 136.325,392.388 136.193 C 392.175 136.061,392.000 135.513,392.000 134.976 C 392.000 134.439,391.820 134.000,391.600 134.000 C 391.380 134.000,391.200 133.561,391.200 133.024 C 391.200 132.487,391.036 131.946,390.835 131.822 C 390.634 131.697,390.348 130.877,390.200 129.998 C 390.051 129.119,389.766 128.400,389.565 128.400 C 389.364 128.400,389.200 128.076,389.200 127.680 C 389.200 126.786,388.306 124.807,387.900 124.803 C 387.735 124.801,387.600 124.440,387.600 124.000 C 387.600 123.560,387.443 123.200,387.251 123.200 C 387.059 123.200,386.787 122.480,386.646 121.600 C 386.506 120.720,386.213 120.000,385.995 120.000 C 385.778 120.000,385.600 119.640,385.600 119.200 C 385.600 118.760,385.420 118.400,385.200 118.400 C 384.980 118.400,384.800 118.130,384.800 117.800 C 384.800 117.470,384.640 117.200,384.445 117.200 C 384.249 117.200,383.971 116.570,383.826 115.800 C 383.682 115.030,383.392 114.400,383.182 114.400 C 382.972 114.400,382.800 114.040,382.800 113.600 C 382.800 113.160,382.620 112.800,382.400 112.800 C 382.180 112.800,382.000 112.440,382.000 112.000 C 382.000 111.560,381.820 111.200,381.600 111.200 C 381.380 111.200,381.200 111.002,381.200 110.760 C 381.200 110.004,379.873 107.429,379.147 106.776 C 378.766 106.433,378.325 105.639,378.167 105.011 C 377.902 103.955,377.366 103.117,376.100 101.784 C 375.825 101.494,375.600 100.969,375.600 100.616 C 375.600 100.263,375.330 99.871,375.000 99.745 C 374.670 99.618,374.400 99.240,374.400 98.904 C 374.400 98.568,374.066 98.003,373.657 97.647 C 373.249 97.291,372.787 96.595,372.630 96.100 C 372.474 95.605,372.178 95.200,371.973 95.200 C 371.768 95.200,371.600 94.970,371.600 94.688 C 371.600 94.407,371.240 93.917,370.800 93.600 C 370.360 93.283,370.000 92.697,370.000 92.299 C 370.000 91.901,369.730 91.471,369.400 91.345 C 369.070 91.218,368.800 90.888,368.800 90.612 C 368.800 90.335,368.391 89.680,367.891 89.155 C 367.392 88.630,366.733 87.708,366.427 87.107 C 366.122 86.505,365.541 85.908,365.136 85.780 C 364.731 85.651,364.400 85.289,364.400 84.975 C 364.400 84.661,363.590 83.583,362.600 82.579 C 361.610 81.575,360.800 80.562,360.800 80.330 C 360.800 80.097,360.080 79.208,359.200 78.354 C 358.320 77.500,357.600 76.641,357.600 76.445 C 357.600 76.249,356.115 74.569,354.300 72.711 C 352.485 70.854,350.460 68.642,349.800 67.796 C 349.140 66.950,348.381 66.065,348.114 65.829 C 347.038 64.879,346.548 64.367,345.400 62.991 C 342.994 60.107,335.943 53.200,335.406 53.200 C 335.102 53.200,334.752 52.880,334.628 52.489 C 334.504 52.098,334.018 51.513,333.548 51.189 C 333.078 50.865,332.059 49.925,331.283 49.100 C 330.507 48.275,329.724 47.600,329.543 47.600 C 329.362 47.600,328.369 46.790,327.335 45.800 C 326.302 44.810,325.297 44.000,325.102 44.000 C 324.906 44.000,324.152 43.370,323.426 42.600 C 322.700 41.830,321.883 41.200,321.610 41.200 C 321.338 41.200,320.761 40.750,320.329 40.200 C 319.896 39.650,319.240 39.198,318.871 39.196 C 318.502 39.194,317.789 38.672,317.287 38.036 C 316.785 37.400,315.930 36.769,315.387 36.632 C 314.844 36.496,314.400 36.208,314.400 35.992 C 314.400 35.777,314.196 35.600,313.947 35.600 C 313.698 35.600,313.203 35.266,312.847 34.857 C 312.491 34.449,311.795 33.987,311.300 33.830 C 310.805 33.674,310.400 33.378,310.400 33.173 C 310.400 32.968,310.052 32.800,309.627 32.800 C 309.202 32.800,308.740 32.440,308.600 32.000 C 308.460 31.560,308.011 31.200,307.602 31.200 C 307.192 31.200,306.587 30.930,306.257 30.600 C 305.927 30.270,305.547 30.000,305.412 30.000 C 305.277 30.000,304.776 29.636,304.299 29.192 C 303.822 28.747,302.749 28.083,301.916 27.715 C 301.082 27.347,300.400 26.901,300.400 26.723 C 300.400 26.545,300.130 26.400,299.800 26.400 C 299.470 26.400,299.200 26.220,299.200 26.000 C 299.200 25.780,298.840 25.600,298.400 25.600 C 297.960 25.600,297.600 25.434,297.600 25.232 C 297.600 25.029,297.015 24.735,296.300 24.578 C 295.586 24.421,294.731 23.989,294.400 23.618 C 294.070 23.247,292.946 22.597,291.901 22.172 C 290.857 21.747,290.002 21.265,290.001 21.100 C 290.001 20.935,289.640 20.800,289.200 20.800 C 288.760 20.800,288.400 20.662,288.400 20.494 C 288.400 20.173,285.480 18.800,284.797 18.800 C 284.579 18.800,284.400 18.620,284.400 18.400 C 284.400 18.180,283.950 18.000,283.400 18.000 C 282.850 18.000,282.400 17.820,282.400 17.600 C 282.400 17.380,282.040 17.200,281.600 17.200 C 281.160 17.200,280.800 17.028,280.800 16.818 C 280.800 16.608,280.170 16.318,279.400 16.174 C 278.630 16.029,278.000 15.751,278.000 15.555 C 278.000 15.360,277.550 15.200,277.000 15.200 C 276.450 15.200,276.000 15.020,276.000 14.800 C 276.000 14.580,275.640 14.400,275.200 14.400 C 274.760 14.400,274.400 14.240,274.400 14.045 C 274.400 13.850,273.590 13.569,272.600 13.421 C 271.610 13.272,270.800 12.982,270.800 12.775 C 270.800 12.569,270.350 12.400,269.800 12.400 C 269.250 12.400,268.800 12.220,268.800 12.000 C 268.800 11.780,268.350 11.600,267.800 11.600 C 267.250 11.600,266.800 11.433,266.800 11.229 C 266.800 11.025,265.810 10.734,264.600 10.583 C 263.390 10.432,262.400 10.149,262.400 9.954 C 262.400 9.759,261.950 9.600,261.400 9.600 C 260.850 9.600,260.400 9.420,260.400 9.200 C 260.400 8.980,259.961 8.800,259.424 8.800 C 258.887 8.800,258.344 8.633,258.217 8.428 C 258.091 8.223,256.998 7.932,255.788 7.781 C 254.579 7.630,253.491 7.348,253.371 7.153 C 253.251 6.959,252.713 6.800,252.176 6.800 C 251.639 6.800,251.200 6.620,251.200 6.400 C 251.200 6.180,250.570 6.000,249.800 6.000 C 249.030 6.000,248.400 5.832,248.400 5.627 C 248.400 5.423,246.960 5.129,245.200 4.976 C 243.440 4.822,242.000 4.540,242.000 4.348 C 242.000 4.157,241.370 4.000,240.600 4.000 C 239.830 4.000,239.200 3.820,239.200 3.600 C 239.200 3.380,238.315 3.200,237.233 3.200 C 236.152 3.200,235.207 3.030,235.133 2.823 C 235.060 2.615,233.155 2.320,230.900 2.166 C 228.645 2.012,226.800 1.731,226.800 1.543 C 226.800 1.354,225.555 1.200,224.033 1.200 C 222.253 1.200,221.210 1.031,221.108 0.725 C 220.950 0.249,187.582 -0.108,179.003 0.274 M200.200 26.800 C 200.336 27.020,201.562 27.201,202.924 27.201 C 207.647 27.204,224.670 29.160,230.600 30.381 C 235.976 31.488,241.993 32.929,245.200 33.877 C 247.070 34.429,249.140 35.025,249.800 35.201 C 254.950 36.573,265.194 40.640,273.200 44.490 C 280.791 48.141,294.680 56.249,295.133 57.293 C 295.207 57.462,295.437 57.600,295.646 57.600 C 298.455 57.600,322.158 78.978,330.400 88.944 C 331.830 90.673,333.180 92.293,333.400 92.544 C 333.620 92.795,334.330 93.720,334.979 94.600 C 335.627 95.480,336.269 96.290,336.405 96.400 C 337.224 97.063,348.000 113.213,348.000 113.778 C 348.000 113.864,348.802 115.291,349.783 116.950 C 351.674 120.148,356.321 129.524,358.332 134.200 C 361.849 142.376,365.070 152.133,367.443 161.800 C 368.891 167.698,369.091 168.633,369.795 172.800 C 370.986 179.856,371.164 180.995,371.391 183.000 C 371.515 184.100,371.783 185.900,371.985 187.000 C 372.485 189.721,372.471 221.722,371.968 224.000 C 371.750 224.990,371.397 227.060,371.183 228.600 C 370.366 234.496,368.448 244.761,367.596 247.800 C 367.349 248.680,367.000 250.030,366.820 250.800 C 366.073 254.006,363.172 263.601,362.377 265.500 C 361.721 267.067,361.295 268.159,360.780 269.600 C 360.218 271.172,359.457 273.032,358.407 275.400 C 358.017 276.280,357.361 277.810,356.949 278.800 C 355.864 281.410,350.318 292.312,349.067 294.294 C 348.480 295.224,348.000 296.076,348.000 296.188 C 348.000 296.301,346.612 298.509,344.915 301.096 C 343.218 303.683,341.643 306.091,341.415 306.447 C 340.587 307.740,339.360 309.445,337.400 312.026 C 336.300 313.475,334.866 315.367,334.214 316.230 C 333.562 317.094,332.392 318.533,331.614 319.430 C 330.836 320.326,329.570 321.854,328.800 322.825 C 326.655 325.530,313.963 338.073,310.731 340.682 C 309.152 341.957,306.676 343.951,305.230 345.114 C 303.783 346.277,302.150 347.594,301.600 348.041 C 300.622 348.836,294.585 353.007,293.266 353.800 C 292.900 354.020,292.510 354.315,292.400 354.456 C 292.290 354.597,291.434 355.111,290.498 355.598 C 289.562 356.085,288.708 356.626,288.600 356.800 C 288.492 356.974,287.696 357.486,286.831 357.937 C 284.372 359.219,283.417 359.778,283.198 360.064 C 282.627 360.814,263.445 370.000,262.452 370.000 C 262.217 370.000,261.383 370.360,260.600 370.800 C 259.817 371.240,258.909 371.600,258.582 371.600 C 258.256 371.600,257.677 371.764,257.295 371.965 C 256.913 372.165,255.700 372.629,254.600 372.996 C 253.500 373.362,252.240 373.813,251.800 373.998 C 251.360 374.182,250.640 374.426,250.200 374.540 C 249.760 374.653,248.410 375.043,247.200 375.405 C 245.990 375.767,244.370 376.217,243.600 376.405 C 242.830 376.593,241.480 376.949,240.600 377.197 C 238.779 377.709,234.315 378.712,231.500 379.242 C 230.455 379.439,228.655 379.780,227.500 379.999 C 226.345 380.219,224.230 380.561,222.800 380.758 C 221.370 380.956,219.390 381.304,218.400 381.531 C 215.473 382.203,179.974 382.628,178.810 382.005 C 178.286 381.725,176.585 381.341,175.029 381.153 C 173.473 380.964,171.120 380.617,169.800 380.382 C 168.480 380.146,166.680 379.856,165.800 379.736 C 164.920 379.616,164.029 379.356,163.820 379.159 C 163.611 378.962,162.981 378.798,162.420 378.795 C 161.859 378.793,159.960 378.416,158.200 377.957 C 156.440 377.499,154.503 377.030,153.895 376.916 C 153.287 376.801,152.692 376.549,152.571 376.354 C 152.451 376.159,152.007 376.000,151.585 376.000 C 150.901 376.000,145.899 374.487,143.800 373.646 C 143.360 373.469,142.010 373.017,140.800 372.640 C 139.590 372.264,137.880 371.628,137.000 371.227 C 136.120 370.825,134.590 370.184,133.600 369.800 C 130.143 368.461,119.437 363.327,115.800 361.265 C 114.700 360.642,112.900 359.626,111.800 359.008 C 110.700 358.391,109.322 357.551,108.738 357.143 C 108.154 356.734,107.479 356.400,107.238 356.400 C 106.997 356.400,106.800 356.261,106.800 356.091 C 106.800 355.921,106.170 355.443,105.400 355.028 C 104.630 354.613,104.000 354.122,104.000 353.937 C 104.000 353.752,103.796 353.600,103.547 353.600 C 103.161 353.600,95.378 348.282,94.800 347.623 C 94.690 347.498,93.880 346.860,93.000 346.204 C 90.959 344.686,90.937 344.667,85.964 340.401 C 81.050 336.185,68.747 323.609,66.170 320.167 C 65.526 319.308,64.640 318.220,64.200 317.750 C 62.478 315.907,56.800 308.169,56.800 307.663 C 56.800 307.445,56.661 307.207,56.492 307.133 C 56.072 306.951,51.200 299.612,51.200 299.161 C 51.200 298.962,51.041 298.800,50.847 298.800 C 50.652 298.800,50.390 298.485,50.263 298.100 C 50.033 297.401,48.955 295.443,47.346 292.800 C 45.630 289.982,42.800 284.378,42.800 283.797 C 42.800 283.469,42.620 283.200,42.400 283.200 C 42.180 283.200,42.000 283.030,42.000 282.821 C 42.000 282.613,41.390 281.128,40.644 279.521 C 38.641 275.208,38.150 274.049,37.202 271.400 C 36.357 269.039,35.983 268.083,35.209 266.300 C 34.994 265.805,34.535 264.500,34.189 263.400 C 33.843 262.300,33.406 261.040,33.217 260.600 C 33.029 260.160,32.575 258.630,32.208 257.200 C 31.447 254.237,30.832 252.160,30.372 251.000 C 30.197 250.560,29.963 249.660,29.851 249.000 C 29.739 248.340,29.172 245.640,28.590 243.000 C 28.008 240.360,27.375 237.210,27.183 236.000 C 26.187 229.731,25.986 228.298,25.609 224.800 C 25.383 222.710,25.006 220.100,24.771 219.000 C 24.195 216.308,24.493 192.057,25.154 187.800 C 25.427 186.040,25.928 182.710,26.268 180.400 C 27.642 171.052,27.771 170.319,29.004 164.800 C 29.373 163.150,29.761 161.350,29.867 160.800 C 29.973 160.250,30.210 159.440,30.393 159.000 C 30.575 158.560,31.025 157.030,31.392 155.600 C 32.092 152.875,32.713 150.746,33.201 149.400 C 33.360 148.960,33.801 147.610,34.179 146.400 C 34.558 145.190,35.033 143.795,35.234 143.300 C 35.435 142.805,35.766 141.995,35.968 141.500 C 36.170 141.005,36.831 139.250,37.436 137.600 C 38.042 135.950,38.831 134.060,39.190 133.400 C 39.549 132.740,40.166 131.338,40.560 130.284 C 41.723 127.182,47.466 116.282,50.429 111.554 C 51.513 109.824,52.400 108.255,52.400 108.066 C 52.400 107.878,52.760 107.398,53.200 107.000 C 53.640 106.602,54.000 106.034,54.000 105.738 C 54.000 105.442,54.139 105.200,54.309 105.200 C 54.479 105.200,54.957 104.570,55.372 103.800 C 55.787 103.030,56.278 102.400,56.463 102.400 C 56.648 102.400,56.800 102.208,56.800 101.973 C 56.800 101.617,58.504 99.081,59.200 98.400 C 59.313 98.290,59.934 97.480,60.581 96.600 C 61.228 95.720,61.858 94.910,61.981 94.800 C 62.104 94.690,62.741 93.880,63.396 93.000 C 64.701 91.246,64.994 90.890,68.796 86.439 C 71.394 83.398,82.597 72.073,84.428 70.638 C 84.963 70.219,86.128 69.229,87.017 68.438 C 89.453 66.272,92.429 63.846,93.155 63.434 C 93.510 63.233,93.890 62.957,94.000 62.821 C 94.110 62.685,95.190 61.865,96.400 61.000 C 97.610 60.135,98.690 59.325,98.800 59.202 C 99.099 58.866,108.505 52.601,109.200 52.275 C 109.530 52.120,110.340 51.660,111.000 51.253 C 112.185 50.523,113.081 50.008,117.000 47.810 C 121.067 45.528,122.532 44.800,123.060 44.800 C 123.357 44.800,123.600 44.620,123.600 44.400 C 123.600 44.180,123.782 44.000,124.005 44.000 C 124.228 44.000,125.713 43.393,127.305 42.650 C 131.490 40.699,133.088 40.000,133.365 40.000 C 133.499 40.000,134.372 39.658,135.304 39.239 C 137.771 38.132,142.536 36.400,143.114 36.400 C 143.387 36.400,143.923 36.241,144.305 36.047 C 146.241 35.062,150.708 33.600,151.781 33.600 C 152.127 33.600,152.723 33.438,153.105 33.239 C 153.487 33.040,154.520 32.692,155.400 32.465 C 156.280 32.237,158.092 31.770,159.426 31.426 C 160.761 31.082,162.327 30.800,162.907 30.800 C 163.488 30.800,164.376 30.637,164.881 30.438 C 166.850 29.663,174.673 28.401,180.200 27.967 C 182.620 27.777,186.400 27.368,188.600 27.059 C 193.394 26.383,199.854 26.239,200.200 26.800 M196.470 92.010 C 192.731 92.554,189.823 94.388,180.782 101.903 C 170.102 110.781,140.678 135.230,99.400 169.525 C 89.500 177.750,79.516 186.037,77.213 187.940 C 65.353 197.742,65.348 198.021,76.804 210.800 C 77.495 211.570,78.343 212.615,78.691 213.123 C 80.523 215.801,84.984 216.208,87.361 213.915 C 87.655 213.632,89.123 212.410,90.624 211.200 C 92.124 209.990,94.083 208.360,94.976 207.577 C 95.869 206.794,97.500 205.444,98.600 204.577 C 99.700 203.710,100.690 202.902,100.800 202.782 C 100.910 202.663,103.700 200.335,107.000 197.609 C 110.300 194.884,113.090 192.548,113.200 192.419 C 113.310 192.289,116.008 190.027,119.196 187.392 C 122.384 184.756,125.354 182.301,125.796 181.935 C 126.238 181.569,128.400 179.766,130.600 177.928 C 132.800 176.091,137.210 172.434,140.400 169.802 C 143.590 167.170,146.650 164.627,147.200 164.151 C 147.750 163.675,156.506 156.381,166.657 147.943 C 176.809 139.504,188.471 129.810,192.573 126.400 C 196.676 122.990,200.203 120.141,200.412 120.068 C 200.710 119.965,207.952 125.724,215.000 131.670 C 215.440 132.041,219.940 135.786,225.000 139.991 C 230.060 144.197,235.430 148.664,236.934 149.919 C 238.437 151.173,240.237 152.673,240.934 153.252 C 241.630 153.831,245.184 156.801,248.832 159.852 C 252.480 162.903,256.260 166.053,257.232 166.850 C 258.204 167.648,263.050 171.664,268.000 175.776 C 272.950 179.887,277.802 183.914,278.782 184.725 C 279.763 185.536,282.391 187.730,284.624 189.600 C 286.856 191.470,289.474 193.653,290.442 194.451 C 291.409 195.248,297.188 200.055,303.284 205.132 C 319.194 218.382,318.261 218.226,326.058 208.939 C 335.298 197.933,335.406 197.117,328.383 191.400 C 327.092 190.349,309.235 175.601,308.200 174.732 C 307.760 174.362,304.790 171.885,301.600 169.228 L 295.800 164.396 295.600 130.098 L 295.400 95.800 294.441 94.455 C 292.705 92.022,292.527 92.000,274.339 92.000 C 251.107 92.000,253.443 89.748,253.283 112.300 C 253.219 121.375,253.039 128.795,252.883 128.789 C 252.727 128.782,243.438 121.130,232.240 111.784 C 207.161 90.853,206.589 90.537,196.470 92.010 M199.149 135.061 C 198.848 135.424,197.701 136.417,196.600 137.267 C 195.500 138.116,193.133 140.024,191.341 141.506 C 189.549 142.988,185.679 146.179,182.741 148.597 C 179.803 151.015,175.767 154.345,173.771 155.997 C 171.776 157.649,168.370 160.440,166.203 162.200 C 164.037 163.960,162.070 165.587,161.832 165.815 C 161.431 166.200,157.610 169.330,153.971 172.255 C 151.981 173.854,149.427 175.968,145.821 179.000 C 144.251 180.320,142.281 181.940,141.444 182.600 C 139.396 184.214,138.000 185.355,134.597 188.200 C 133.018 189.520,130.505 191.590,129.013 192.800 C 127.521 194.010,125.101 195.990,123.636 197.200 C 122.172 198.410,120.089 200.120,119.008 201.000 C 117.927 201.880,116.404 203.144,115.622 203.808 C 114.840 204.473,112.760 206.174,111.000 207.589 C 109.240 209.005,107.279 210.691,106.643 211.337 L 105.486 212.512 105.700 253.239 L 105.913 293.967 106.826 295.853 C 107.934 298.142,110.077 300.354,112.213 301.413 C 113.752 302.176,114.789 302.200,146.600 302.200 L 179.400 302.200 179.600 270.800 L 179.800 239.400 200.600 239.400 L 221.400 239.400 221.600 270.800 L 221.800 302.200 254.600 302.200 L 287.400 302.200 289.327 301.216 C 290.386 300.674,291.949 299.477,292.800 298.554 C 295.726 295.380,295.600 297.448,295.600 252.487 L 295.600 212.320 294.291 211.060 C 293.570 210.367,291.751 208.810,290.248 207.600 C 288.745 206.390,287.190 205.130,286.791 204.800 C 286.393 204.470,285.737 203.926,285.334 203.592 C 284.930 203.257,282.890 201.577,280.800 199.859 C 278.710 198.140,276.640 196.433,276.200 196.067 C 275.760 195.700,273.964 194.230,272.210 192.800 C 270.455 191.370,267.215 188.707,265.010 186.882 C 262.804 185.057,259.855 182.627,258.455 181.482 C 257.055 180.337,255.705 179.213,255.455 178.984 C 255.205 178.755,250.410 174.818,244.800 170.235 C 239.190 165.652,234.036 161.430,233.347 160.851 C 232.657 160.273,229.893 158.000,227.205 155.800 C 221.435 151.079,214.922 145.715,212.400 143.607 C 200.771 133.886,200.350 133.614,199.149 135.061 " stroke="none" fill="#ffaf68" fill-rule="evenodd"></path><path id="path4" d="" stroke="none" fill="#ffff00" fill-rule="evenodd"></path></g></svg>